<svg width="24" height="24" viewBox="0 0 24 24" fill="none" xmlns="http://www.w3.org/2000/svg">
    <path d="M18.5 0h-13a4 4 0 0 0-4 4v16a4 4 0 0 0 4 4h13a4 4 0 0 0 4-4V4a4 4 0 0 0-4-4z" fill="#fff"/>
    <g opacity=".9" fill="#EF4040">
        <path d="M9.458 5.234a.756.756 0 0 0-.922-.516.728.728 0 0 0-.532.894l1.425 5.155c.107.389.52.62.922.516a.728.728 0 0 0 .532-.895L9.458 5.234z"/>
        <path d="M9.639 10.389c-.108.39.13.79.532.894a.756.756 0 0 0 .922-.516l1.425-5.153a.728.728 0 0 0-.532-.894.756.756 0 0 0-.922.516l-1.425 5.153z"/>
        <path d="M12.606 5.233a.756.756 0 0 0-.922-.516.728.728 0 0 0-.532.894l1.425 5.154c.108.39.52.62.922.516a.728.728 0 0 0 .532-.894l-1.425-5.154z"/>
        <path d="M12.907 10.387c-.108.39.13.79.532.894a.756.756 0 0 0 .922-.516l1.425-5.153a.728.728 0 0 0-.532-.894.756.756 0 0 0-.923.516l-1.424 5.153z"/>
        <path d="M17.5 7.867c0-.443-.37-.8-.825-.8h-9.35a.812.812 0 0 0-.825.8c0 .442.37.8.825.8h9.35a.812.812 0 0 0 .825-.8z"/>
    </g>
    <rect x="5.5" y="17.472" width="8" height="2" rx="1" fill="#CBD4DE"/>
    <rect x="5.5" y="14.472" width="13" height="2" rx="1" fill="#CBD4DE"/>
</svg>
