<svg width="24" height="24" viewBox="0 0 24 24" fill="none" xmlns="http://www.w3.org/2000/svg">
    <path d="M8.935 24c-1.435 0-2.663-.192-3.685-.576-1.022-.384-1.87-.885-2.543-1.504-.674-.619-1.207-1.27-1.598-1.952-.392-.683-.674-1.333-.848-1.952-.152-.619-.24-1.12-.261-1.504h4.141l.066.416c.043.256.14.576.293.96.174.384.424.779.75 1.184.348.384.815.704 1.402.96s1.326.384 2.218.384c1.087 0 1.978-.224 2.674-.672.717-.448 1.25-1.024 1.597-1.728.348-.704.522-1.45.522-2.24 0-.79-.174-1.536-.522-2.24a4.465 4.465 0 0 0-1.565-1.792c-.696-.47-1.565-.704-2.609-.704-.804 0-1.478.128-2.021.384-.522.256-.935.544-1.24.864-.304.32-.521.608-.652.864l-.195.384H.489L2.543 0h13.794v3.808H5.609l-.88 5.856h.13c.152-.17.413-.416.782-.736.37-.32.892-.608 1.566-.864.673-.256 1.554-.384 2.64-.384 1.762 0 3.24.384 4.436 1.152 1.217.768 2.14 1.77 2.771 3.008A8.295 8.295 0 0 1 18 15.712a8.055 8.055 0 0 1-.587 3.008 8.054 8.054 0 0 1-1.696 2.688c-.739.79-1.674 1.419-2.804 1.888-1.13.47-2.457.704-3.978.704z" fill="#fff"/>
</svg>
