<svg width="24" height="24" viewBox="0 0 24 24" fill="none" xmlns="http://www.w3.org/2000/svg">
    <path d="M8.5 24c-1.59 0-2.927-.242-4.015-.726-1.087-.485-1.965-1.106-2.634-1.864-.649-.757-1.12-1.568-1.412-2.431-.293-.863-.439-1.663-.439-2.4h4.015c0 .631.157 1.253.47 1.863.335.59.837 1.074 1.506 1.453.669.358 1.495.537 2.478.537 1.212 0 2.227-.316 3.042-.948.837-.652 1.255-1.547 1.255-2.684 0-1.01-.356-1.832-1.067-2.463-.69-.632-1.652-.947-2.885-.947H5.677v-3.316h3.168c1.046 0 1.903-.295 2.572-.885.67-.589 1.004-1.347 1.004-2.273 0-1.01-.387-1.821-1.16-2.432-.754-.631-1.684-.947-2.792-.947-.9 0-1.652.2-2.259.6A3.75 3.75 0 0 0 4.83 5.62a4.097 4.097 0 0 0-.47 1.895H.44c0-.758.135-1.569.407-2.432a7.66 7.66 0 0 1 1.38-2.431c.648-.78 1.485-1.41 2.51-1.895C5.781.253 7.046 0 8.53 0c1.38 0 2.677.263 3.89.79 1.233.505 2.227 1.252 2.98 2.242.773.968 1.16 2.126 1.16 3.473 0 .906-.178 1.706-.533 2.4-.335.695-.774 1.263-1.318 1.706a5.403 5.403 0 0 1-1.662.978v.19c1.087.379 2.018 1 2.791 1.863.774.863 1.161 1.99 1.161 3.38 0 1.473-.397 2.736-1.192 3.789-.774 1.031-1.809 1.82-3.105 2.368-1.296.547-2.697.821-4.203.821z" fill="#fff"/>
</svg>
