<svg width="24" height="24" viewBox="0 0 24 24" fill="none" xmlns="http://www.w3.org/2000/svg">
    <path d="M.127 24v-3.008l4.4-3.936 4.147-3.584c1.16-1.024 2.058-1.984 2.691-2.88.633-.896.95-1.877.95-2.944 0-.81-.2-1.504-.602-2.08a3.695 3.695 0 0 0-1.488-1.312 4.282 4.282 0 0 0-1.9-.448c-.907 0-1.645.181-2.215.544-.549.363-.971.8-1.266 1.312a5.756 5.756 0 0 0-.57 1.504c-.106.47-.159.821-.159 1.056H0c0-.47.074-1.045.222-1.728.168-.704.443-1.43.823-2.176.38-.747.886-1.45 1.52-2.112.632-.661 1.434-1.195 2.405-1.6C5.941.203 7.091 0 8.42 0c1.478 0 2.829.299 4.053.896 1.245.597 2.237 1.45 2.976 2.56.76 1.11 1.14 2.443 1.14 4 0 1.43-.36 2.73-1.077 3.904-.696 1.173-1.657 2.325-2.88 3.456a111.649 111.649 0 0 1-4.18 3.584L6.49 20.192H17V24H.127z" fill="#fff"/>
</svg>
