<svg xmlns="http://www.w3.org/2000/svg" width="32" height="32" viewBox="0 0 32 32">
    <path data-name="패스 1892" d="M79.535 76.619a1.213 1.213 0 0 0-.387-1.16l-7.626-5.933a1.475 1.475 0 0 0-1.975-.007l-7.575 5.876a1.2 1.2 0 0 0-.37 1.19 1.289 1.289 0 0 0-.038.3v8.865a1.448 1.448 0 0 0 1.5 1.39h5.328V81.1a.774.774 0 0 1 .75-.8h2.844a.774.774 0 0 1 .75.8v6.042h5.328a1.448 1.448 0 0 0 1.5-1.39v-8.864a1.289 1.289 0 0 0-.029-.269z" transform="translate(-54.064 -61.643)" style="fill:none;stroke:#000;stroke-linecap:round;stroke-linejoin:round;stroke-width:2px"/>
</svg>
