<svg xmlns="http://www.w3.org/2000/svg" width="32" height="32" viewBox="0 0 32 32">
    <path data-name="패스 5652" d="M12.246 1.679a2.341 2.341 0 0 0-4.49 0l-.118.4a1.091 1.091 0 0 1-1.569.65l-.365-.2A2.341 2.341 0 0 0 2.529 5.7l.2.365a1.091 1.091 0 0 1-.65 1.569l-.4.118a2.341 2.341 0 0 0 0 4.49l.4.118a1.091 1.091 0 0 1 .65 1.569l-.2.365A2.341 2.341 0 0 0 5.7 17.472l.365-.2a1.091 1.091 0 0 1 1.569.65l.118.4a2.341 2.341 0 0 0 4.49 0l.118-.4a1.091 1.091 0 0 1 1.569-.65l.365.2a2.341 2.341 0 0 0 3.178-3.172l-.2-.365a1.091 1.091 0 0 1 .65-1.569l.4-.118a2.341 2.341 0 0 0 0-4.49l-.4-.118a1.091 1.091 0 0 1-.65-1.569l.2-.365A2.341 2.341 0 0 0 14.3 2.529l-.365.2a1.091 1.091 0 0 1-1.569-.65l-.118-.4z" transform="translate(5.999 6)" style="stroke:#222426;stroke-width:2px;fill:none"/>
    <g data-name="타원 91" transform="translate(11.626 11.627)" style="stroke:#222426;stroke-width:2px;fill:none">
        <circle cx="4.167" cy="4.167" r="4.167" style="stroke:none"/>
        <circle cx="4.167" cy="4.167" r="3.167" style="fill:none"/>
    </g>
</svg>
