<svg xmlns="http://www.w3.org/2000/svg" width="32" height="32" viewBox="0 0 32 32">
    <g data-name="그룹 10215">
        <g data-name="패스 10070" style="fill:none;stroke-linecap:round;stroke-linejoin:round">
            <path d="m24.129 10.332-7.084-6.214a4.709 4.709 0 0 0-6.09 0l-7.084 6.214A2.481 2.481 0 0 0 3 12.2v8.521A4.521 4.521 0 0 0 7.725 25h12.55A4.521 4.521 0 0 0 25 20.717V12.2a2.481 2.481 0 0 0-.871-1.868z" style="stroke:none" transform="translate(2 2)"/>
            <path d="M14 5c-.657 0-1.27.221-1.726.621L5.19 11.836c-.122.107-.19.235-.19.36v8.52c0 1.26 1.222 2.285 2.725 2.285h12.55C21.778 23 23 21.976 23 20.717v-8.522c0-.124-.068-.252-.19-.36l-7.084-6.214c-.456-.4-1.069-.62-1.726-.62m0-2c1.098 0 2.196.372 3.045 1.117l7.084 6.214c.557.489.871 1.16.871 1.863v8.522C25 23.083 22.885 25 20.275 25H7.725C5.115 25 3 23.083 3 20.717v-8.522c0-.702.314-1.374.871-1.863l7.084-6.214c.849-.745 1.947-1.117 3.045-1.117z" style="fill:#222426;stroke:none" transform="translate(2 2)"/>
        </g>
        <path data-name="패스 10072" d="M28.557 49.581h-5v-6.488a1.421 1.421 0 0 1 1.307-1.512h2.386a1.421 1.421 0 0 1 1.307 1.512z" transform="translate(-10.057 -24.077)" style="stroke:#222426;stroke-width:2px;fill:none;stroke-linecap:round;stroke-linejoin:round"/>
    </g>
</svg>
