<svg xmlns="http://www.w3.org/2000/svg" width="24" height="24" viewBox="0 0 24 24" fill="none">
  <path d="M5.93188 13.2998C5.99523 13.3027 6.05851 13.2928 6.1179 13.2706C6.17729 13.2483 6.23156 13.2143 6.27742 13.1705C6.32329 13.1267 6.35979 13.0741 6.38473 13.0158C6.40968 12.9575 6.42254 12.8947 6.42254 12.8313C6.42254 12.7679 6.40968 12.7051 6.38473 12.6468C6.35979 12.5885 6.32329 12.5359 6.27742 12.4921C6.23156 12.4483 6.17729 12.4143 6.1179 12.3921C6.05851 12.3698 5.99523 12.3599 5.93188 12.3628V13.2998ZM3.43188 13.2998H5.93188V12.3628H3.43188V13.2998Z" fill="#3D39FF"/>
  <path d="M20.0999 12.832H17.5999" stroke="#3D39FF" stroke-width="0.938" stroke-linecap="round" stroke-linejoin="round"/>
  <path d="M3.43188 16.168V17.668C3.43188 17.9332 3.53724 18.1875 3.72478 18.3751C3.91231 18.5626 4.16667 18.668 4.43188 18.668H6.18188C6.4471 18.668 6.70146 18.5626 6.88899 18.3751C7.07653 18.1875 7.18188 17.9332 7.18188 17.668V16.168" stroke="#141B34" stroke-width="0.938" stroke-linecap="round" stroke-linejoin="round"/>
  <path d="M16.3499 16.168V17.668C16.3499 17.9332 16.4552 18.1875 16.6427 18.3751C16.8303 18.5626 17.0846 18.668 17.3499 18.668H19.0999C19.3651 18.668 19.6194 18.5626 19.807 18.3751C19.9945 18.1875 20.0999 17.9332 20.0999 17.668V16.168" stroke="#141B34" stroke-width="0.938" stroke-linecap="round" stroke-linejoin="round"/>
  <path d="M20.3919 9.03421C20.4418 8.99638 20.4837 8.94893 20.515 8.89466C20.5462 8.84039 20.5663 8.78041 20.5741 8.71825C20.5818 8.65608 20.577 8.593 20.5599 8.53273C20.5429 8.47245 20.5139 8.4162 20.4748 8.3673C20.4356 8.3184 20.3871 8.27784 20.332 8.24801C20.2769 8.21817 20.2164 8.19968 20.1541 8.19361C20.0917 8.18754 20.0288 8.19403 19.969 8.21268C19.9092 8.23133 19.8537 8.26178 19.8059 8.30221L20.3919 9.03421ZM18.3089 10.7002L20.3919 9.03421L19.8069 8.30021L17.7229 9.96921L18.3089 10.7002Z" fill="#141B34"/>
  <path d="M5.51488 10.335L3.43188 8.66797" stroke="#141B34" stroke-width="0.938" stroke-linecap="round" stroke-linejoin="round"/>
  <path d="M5.09985 10.332L6.31085 6.70003C6.44366 6.3013 6.6987 5.95453 7.03976 5.70896C7.38083 5.4634 7.79058 5.33151 8.21085 5.33203H15.3279C15.7481 5.33151 16.1579 5.4634 16.4989 5.70896C16.84 5.95453 17.095 6.3013 17.2279 6.70003L18.4389 10.332" stroke="#141B34" stroke-width="0.938" stroke-linejoin="round"/>
  <path d="M3.43188 16.1651V13.1341C3.43184 12.9365 3.4903 12.7434 3.59988 12.5791L5.09988 10.3311H18.4319L19.9319 12.5791C20.0415 12.7434 20.0999 12.9365 20.0999 13.1341V16.1651H3.43188Z" stroke="#141B34" stroke-width="0.938" stroke-linejoin="round"/>
</svg>