<svg xmlns="http://www.w3.org/2000/svg" width="32" height="32" viewBox="0 0 32 32">
    <path data-name="사각형 2272" style="fill:none" d="M0 0h32v32H0z"/>
    <g data-name="그룹 21951">
        <path data-name="합치기 5" d="M5.5 21.25a2 2 0 0 1-2-2V9.05a1.8 1.8 0 0 1 .556-1.3 2.115 2.115 0 0 1 .3-.3l7.879-6.42a2 2 0 0 1 2.527 0l7.879 6.42a2.114 2.114 0 0 1 .3.3 1.8 1.8 0 0 1 .557 1.3v10.2a2 2 0 0 1-2 2z" transform="translate(2.5 5.085)" style="stroke:#242f4b;stroke-width:1.5px;fill:none"/>
        <path data-name="선 50" transform="translate(13 22.085)" style="stroke-linecap:round;stroke:#242f4b;stroke-width:1.5px;fill:none" d="M0 0h6"/>
    </g>
</svg>
