<svg xmlns="http://www.w3.org/2000/svg" width="24" height="24" viewBox="0 0 24 24">
    <path data-name="패스 15" d="M23.5 2.643A3.029 3.029 0 0 0 21.374.5C19.5 0 12 0 12 0S4.487 0 2.626.5A3.029 3.029 0 0 0 .5 2.643 31.38 31.38 0 0 0 0 8.452a31.38 31.38 0 0 0 .5 5.809A3.029 3.029 0 0 0 2.626 16.4c1.878.5 9.374.5 9.374.5s7.513 0 9.374-.5a3.029 3.029 0 0 0 2.126-2.139 31.383 31.383 0 0 0 .5-5.809 31.383 31.383 0 0 0-.5-5.809zM9.548 12.017v-7.13l6.278 3.565z" transform="translate(0 3.548)" style="fill:#ccc"/>
</svg>
