<svg xmlns="http://www.w3.org/2000/svg" width="180" height="20" viewBox="0 0 180 20">
    <path data-name="패스 17" d="M178.98 3.715H166.3a1.621 1.621 0 0 1-1.193-.492 1.7 1.7 0 0 1-.488-1.191 1.622 1.622 0 0 1 .492-1.191A1.612 1.612 0 0 1 166.3.35h12.68a1.683 1.683 0 0 1 0 3.365z" transform="translate(-.661 1.652)" style="fill:#3965ff"/>
    <path data-name="패스 18" d="M178.98 9.669h-13.75a1.306 1.306 0 0 0-.926.384 1.223 1.223 0 0 0-.4.91 1.207 1.207 0 0 0 .4.928 1.326 1.326 0 0 0 .926.367h13.75a1.683 1.683 0 1 1 0 3.365H165.3a4.48 4.48 0 0 1-1.819-.367 4.776 4.776 0 0 1-1.47-1 4.62 4.62 0 0 1-.995-1.471 4.7 4.7 0 0 1 0-3.642 4.7 4.7 0 0 1 2.465-2.468 4.467 4.467 0 0 1 1.819-.367h13.68a1.683 1.683 0 0 1 0 3.365z" transform="translate(-.661 1.348)" style="fill:#3965ff"/>
    <path data-name="패스 19" d="M138.664 9.137a4.76 4.76 0 0 1-1.47-.977 4.544 4.544 0 0 1-1-1.442 4.323 4.323 0 0 1-.366-1.784 4.323 4.323 0 0 1 .366-1.784 4.658 4.658 0 0 1 2.47-2.419 4.542 4.542 0 0 1 1.819-.359h14.185a1.635 1.635 0 0 1 1.189.482 1.574 1.574 0 0 1 .492 1.167 1.574 1.574 0 0 1-.492 1.167 1.635 1.635 0 0 1-1.189.482h-14.254a1.343 1.343 0 0 0-.927.359 1.175 1.175 0 0 0-.4.909 1.191 1.191 0 0 0 .4.892 1.3 1.3 0 0 0 .927.376h12.292a4.658 4.658 0 0 1 1.837.359 4.816 4.816 0 0 1 1.487.977A4.587 4.587 0 0 1 157.025 9a4.444 4.444 0 0 1 .367 1.8 4.321 4.321 0 0 1-.367 1.784 4.657 4.657 0 0 1-.995 1.442 4.556 4.556 0 0 1-1.487.96 4.9 4.9 0 0 1-1.837.343H138.56a1.635 1.635 0 0 1-1.189-.482 1.63 1.63 0 0 1 0-2.334 1.628 1.628 0 0 1 1.189-.482h14.289a1.286 1.286 0 0 0 .909-.359 1.165 1.165 0 0 0 .384-.875 1.3 1.3 0 0 0-1.293-1.3h-12.366a4.556 4.556 0 0 1-1.819-.36z" transform="translate(-.661 1.652)" style="fill:#3965ff"/>
    <path data-name="패스 20" d="M129.634 10.755q.982.672 1.995 1.463a3.228 3.228 0 0 1 .668.634 1.337 1.337 0 0 1 .281.842 1.576 1.576 0 0 1-.492 1.171 1.638 1.638 0 0 1-1.194.482 1.912 1.912 0 0 1-1.194-.482q-1.436-1.034-2.944-2c-1-.643-4.922-3.37-7.443-3.37h-2.328a1.262 1.262 0 0 0-.771.414 1.218 1.218 0 0 0-.315.858v2.922a1.681 1.681 0 0 1-3.362 0v-3.3a4.125 4.125 0 0 1 .332-1.632 4.382 4.382 0 0 1 .892-1.341 4.113 4.113 0 0 1 1.332-.892 4.294 4.294 0 0 1 1.681-.326h11.207a1.341 1.341 0 0 0 .926-.359 1.2 1.2 0 0 0 0-1.8 1.3 1.3 0 0 0-.926-.376h-13.763a1.665 1.665 0 0 1-1.681-1.649 1.665 1.665 0 0 1 1.681-1.649h13.625a4.69 4.69 0 0 1 1.84.359 4.949 4.949 0 0 1 1.509.981 4.542 4.542 0 0 1 1.017 1.446 4.341 4.341 0 0 1 .366 1.789 4.327 4.327 0 0 1-.366 1.789 4.59 4.59 0 0 1-1.017 1.446 4.889 4.889 0 0 1-1.509.981 4.69 4.69 0 0 1-1.84.359h-.141q.943.584 1.926 1.256z" transform="translate(-.463 1.652)" style="fill:#3965ff"/>
    <path data-name="패스 21" d="M106.82 3.715H94.143a1.622 1.622 0 0 1-1.194-.492 1.7 1.7 0 0 1-.487-1.191 1.623 1.623 0 0 1 .492-1.191A1.612 1.612 0 0 1 94.143.35h12.677a1.683 1.683 0 0 1 0 3.365z" transform="translate(-.371 1.652)" style="fill:#3965ff"/>
    <path data-name="패스 22" d="M106.82 9.669H93.07a1.308 1.308 0 0 0-.927.384 1.226 1.226 0 0 0-.4.91 1.209 1.209 0 0 0 .4.928 1.328 1.328 0 0 0 .927.367h13.75a1.683 1.683 0 1 1 0 3.365H93.139a4.478 4.478 0 0 1-1.819-.367 4.761 4.761 0 0 1-1.47-1 4.622 4.622 0 0 1-1-1.471 4.708 4.708 0 0 1 0-3.642 4.7 4.7 0 0 1 2.47-2.464 4.464 4.464 0 0 1 1.819-.367h13.681a1.683 1.683 0 0 1 0 3.365z" transform="translate(-.364 1.348)" style="fill:#3965ff"/>
    <path data-name="패스 23" d="M70.021.352a1.965 1.965 0 0 1 1.625.82l6.267 9.172 6.728-9.218A2.032 2.032 0 0 1 87.3.64a1.656 1.656 0 0 1 .53 2.423l-8.379 11.468a2.017 2.017 0 0 1-3.215-.042L68.4 3.021a1.66 1.66 0 0 1 .608-2.407 2.055 2.055 0 0 1 1.008-.266z" transform="translate(-.28 1.652)" style="fill:#3965ff"/>
    <path data-name="패스 24" d="M62.339 10.755q.983.672 2 1.463a3.256 3.256 0 0 1 .668.634 1.341 1.341 0 0 1 .28.842 1.577 1.577 0 0 1-.491 1.171 1.639 1.639 0 0 1-1.194.482 1.91 1.91 0 0 1-1.194-.482q-1.435-1.034-2.944-2c-1-.643-4.922-3.37-7.444-3.37h-2.332a1.264 1.264 0 0 0-.772.414 1.216 1.216 0 0 0-.315.858v2.922a1.681 1.681 0 0 1-3.362 0v-3.3a4.127 4.127 0 0 1 .332-1.632 4.373 4.373 0 0 1 .892-1.341 4.113 4.113 0 0 1 1.337-.889 4.294 4.294 0 0 1 1.677-.327h11.207a1.343 1.343 0 0 0 .927-.359 1.2 1.2 0 0 0 0-1.8 1.3 1.3 0 0 0-.927-.376H46.921a1.665 1.665 0 0 1-1.681-1.651A1.665 1.665 0 0 1 46.921.365h13.625a4.693 4.693 0 0 1 1.84.359 4.937 4.937 0 0 1 1.509.981 4.538 4.538 0 0 1 1.017 1.446 4.348 4.348 0 0 1 .366 1.789 4.334 4.334 0 0 1-.366 1.789 4.586 4.586 0 0 1-1.017 1.446 4.886 4.886 0 0 1-1.509.981 4.693 4.693 0 0 1-1.84.359h-.138q.944.584 1.927 1.256z" transform="translate(-.186 1.652)" style="fill:#3965ff"/>
    <path data-name="패스 25" d="M40.75 15.314a1.965 1.965 0 0 1-1.625-.82l-6.267-9.172-6.728 9.219a2.032 2.032 0 0 1-2.655.486 1.656 1.656 0 0 1-.53-2.423l8.374-11.468a2.017 2.017 0 0 1 3.215.042l7.84 11.468a1.66 1.66 0 0 1-.612 2.406 2.055 2.055 0 0 1-1.009.266z" transform="translate(0 1.652)" style="fill:#3965ff"/>
    <path data-name="패스 26" d="M6.945 12.016c-3.25 0-3.56-2.267-2.509-4.123l1.34-2.368a3.732 3.732 0 0 1 3.246-1.87h9.34a1.656 1.656 0 0 0 1.672-1.641A1.654 1.654 0 0 0 18.38.378 1160.88 1160.88 0 0 0 8.746.357a6.572 6.572 0 0 0-5.741 3.336L.635 7.926a4.973 4.973 0 0 0 4.439 7.367s6.914.03 13.288.051a1.657 1.657 0 0 0 1.677-1.644v-.021a1.656 1.656 0 0 0-1.672-1.641L6.945 12.02z" transform="translate(0 1.652)" style="fill:#3965ff"/>
</svg>
