<svg xmlns="http://www.w3.org/2000/svg" width="40" height="40" viewBox="0 0 40 40">
    <path style="fill:none" d="M0 0h40v40H0z"/>
    <g data-name="그룹 10">
        <path d="M18.254 8.519a.565.565 0 0 1 0 .8L9.176 18.4a.568.568 0 0 1-.8-.8l9.078-9.078a.568.568 0 0 1 .8 0zm-8.123 4.032a2.27 2.27 0 1 0-2.27-2.271 2.27 2.27 0 0 0 2.271 2.271zm6.359 6.359a2.27 2.27 0 1 0-2.271-2.269 2.271 2.271 0 0 0 2.272 2.269z" transform="translate(6.938 7.155)" style="fill:#222" data-name="그룹 8"/>
        <g data-name="그룹 9">
            <path data-name="합치기 1" d="M8.1 26.882A15.212 15.212 0 0 1 2.882 18H.44a.437.437 0 0 1-.281-.1.444.444 0 0 1-.059-.63l3.455-4.178a.489.489 0 0 1 .057-.055.437.437 0 0 1 .619.055l3.457 4.178a.443.443 0 0 1-.337.73h-1.9A12.539 12.539 0 0 0 27.4 23.234a1.249 1.249 0 0 1 1.761-.228 1.27 1.27 0 0 1 .229 1.774l-.053.064A15.011 15.011 0 0 1 8.1 26.882zm23.149-9.274a.493.493 0 0 1-.057-.055l-3.454-4.178a.442.442 0 0 1 .056-.622.434.434 0 0 1 .281-.1h1.947A12.537 12.537 0 0 0 8.009 7.127a1.253 1.253 0 0 1-1.763.228 1.269 1.269 0 0 1-.226-1.774.634.634 0 0 1 .051-.065 15.014 15.014 0 0 1 21.237-2.037 15.213 15.213 0 0 1 5.266 9.17h2.409a.443.443 0 0 1 .336.726l-3.455 4.178a.441.441 0 0 1-.338.158.432.432 0 0 1-.281-.103z" style="stroke:#fff;stroke-miterlimit:10;stroke-width:.5px;fill:#222" transform="translate(2.546 5.435)"/>
        </g>
    </g>
</svg>
