<svg xmlns="http://www.w3.org/2000/svg" width="24" height="24" viewBox="0 0 24 24">
    <g data-name="icon_24_ estimate">
        <g data-name="그룹 21128">
            <path data-name="패스 61" d="M27 19.768c0-1.54 0-2.311.347-2.876a2.353 2.353 0 0 1 .777-.777c.566-.347 1.336-.347 2.877-.347s2.311 0 2.876.347a2.353 2.353 0 0 1 .777.777c.347.566.347 1.336.347 2.876s0 2.311-.347 2.877a2.353 2.353 0 0 1-.777.777c-.566.347-1.336.347-2.876.347s-2.311 0-2.877-.347a2.353 2.353 0 0 1-.777-.777C27 22.078 27 21.308 27 19.768z" style="fill:none;stroke:#3d39ff;stroke-width:1.5px" transform="translate(-24.5 -13.769)"/>
            <path data-name="패스 62" d="M28.282 28.551c1.047-1.047 1.57-1.57 2.191-1.719a2.262 2.262 0 0 1 1.056 0c.62.149 1.144.672 2.19 1.719s1.57 1.57 1.719 2.19a2.262 2.262 0 0 1 0 1.056c-.149.62-.672 1.144-1.719 2.19s-1.57 1.57-2.19 1.719a2.262 2.262 0 0 1-1.056 0c-.62-.149-1.144-.672-2.191-1.719s-1.57-1.57-1.719-2.19a2.262 2.262 0 0 1 0-1.056c.148-.62.672-1.141 1.719-2.19z" style="fill:none;stroke:#3d39ff;stroke-width:1.5px" transform="translate(-24.5 -13.769)"/>
            <path data-name="패스 63" d="M38.5 31.77c0-1.54 0-2.311.347-2.877a2.353 2.353 0 0 1 .777-.777c.566-.347 1.336-.347 2.877-.347s2.311 0 2.876.347a2.353 2.353 0 0 1 .777.777c.347.566.347 1.336.347 2.877s0 2.311-.347 2.876a2.353 2.353 0 0 1-.777.777c-.566.347-1.336.347-2.876.347s-2.311 0-2.877-.347a2.353 2.353 0 0 1-.777-.777c-.347-.566-.347-1.336-.347-2.876z" style="fill:none;stroke:#3d39ff;stroke-width:1.5px" transform="translate(-24.5 -13.769)"/>
            <path data-name="패스 64" d="M42.5 15.768v8m4-4h-8" style="stroke-linecap:round;stroke-linejoin:round;fill:none;stroke:#3d39ff;stroke-width:1.5px" transform="translate(-24.5 -13.769)"/>
        </g>
    </g>
</svg>
