<svg xmlns="http://www.w3.org/2000/svg" width="24" height="24" viewBox="0 0 24 24">
    <g data-name="그룹 21130">
        <g data-name="패스 57" style="fill:none">
            <path d="M30.345 24.3a1.636 1.636 0 0 0-.445-1.4 3.31 3.31 0 0 0-.784-.422 3.642 3.642 0 0 0-1.1-.4c-.821-.066-1.263.494-1.737 1.069a6.018 6.018 0 0 0-1.313 2.887v.013a9.293 9.293 0 0 0 0 1.9 5.027 5.027 0 0 0 1.261 2.878c.071.063.148.118.224.175a4.419 4.419 0 0 0 .81.476.886.886 0 0 0 .164.056 3.7 3.7 0 0 0 1.548.014 1.4 1.4 0 0 0 .282-.1 2.68 2.68 0 0 0 .647-.36 1.636 1.636 0 0 0 .448-1.394z" style="stroke:none" transform="translate(-24.703 -13.768)"/>
            <path d="M27.896 23.586c-.109.087-.3.32-.433.48l-.03.038c-.801.973-.967 2.005-.981 2.1-.053.587-.061 1.244-.018 1.471.3 1.579.78 2.033.782 2.035l.078.06.052.038c.179.135.368.233.47.282.086.016.241.04.427.04a1.925 1.925 0 0 0 .382-.038c.046-.021.138-.063.215-.1.005-.097.005-.224.005-.29v-5.405c0-.066 0-.193-.005-.29-.092-.044-.222-.103-.349-.16-.234-.107-.474-.217-.595-.26m-.016-1.51c.043 0 .086 0 .13.004.275.023.55.148 1.103.4.418.19.627.285.784.422.433.377.448.859.448 1.394v5.405c0 .535-.015 1.017-.448 1.393-.139.121-.318.21-.647.36-.09.042-.185.077-.282.098a3.695 3.695 0 0 1-1.548-.014.886.886 0 0 1-.165-.056 4.42 4.42 0 0 1-.81-.475c-.075-.057-.153-.112-.224-.175-.257-.23-.898-.97-1.26-2.878-.117-.613-.01-1.808-.001-1.905v-.013c.013-.105.197-1.53 1.314-2.886.448-.544.867-1.075 1.606-1.075z" style="fill:#3d39ff;stroke:none" transform="translate(-24.703 -13.768)"/>
        </g>
        <g data-name="패스 58" style="fill:none">
            <path d="M43.061 24.3a1.636 1.636 0 0 1 .448-1.394 3.312 3.312 0 0 1 .784-.422 3.641 3.641 0 0 1 1.1-.4c.821-.066 1.263.494 1.737 1.069a6.017 6.017 0 0 1 1.313 2.887v.013a9.278 9.278 0 0 1 0 1.9 5.027 5.027 0 0 1-1.261 2.878c-.071.063-.148.118-.224.175a4.426 4.426 0 0 1-.81.476.887.887 0 0 1-.165.056 3.7 3.7 0 0 1-1.548.014 1.4 1.4 0 0 1-.282-.1 2.679 2.679 0 0 1-.647-.36 1.636 1.636 0 0 1-.448-1.394z" style="stroke:none" transform="translate(-24.703 -13.768)"/>
            <path d="M45.51 23.586c-.12.044-.361.154-.596.26a18.84 18.84 0 0 0-.348.161c-.005.097-.005.224-.005.29v5.405c0 .066 0 .193.005.29l.214.1.005.002c.118.023.245.035.379.035.185 0 .34-.023.427-.04.1-.048.29-.146.47-.28l.051-.04.075-.056c.005-.005.485-.459.785-2.038.048-.248.03-.956-.017-1.47-.015-.098-.181-1.13-.981-2.1l-.031-.038c-.132-.16-.324-.394-.433-.48m.016-1.51c.739 0 1.158.53 1.606 1.074 1.117 1.357 1.301 2.78 1.313 2.886l.002.013c.009.097.115 1.292-.001 1.905-.363 1.909-1.003 2.649-1.261 2.878-.07.063-.149.118-.224.175a4.427 4.427 0 0 1-.81.475.887.887 0 0 1-.165.056 3.695 3.695 0 0 1-1.547.014 1.402 1.402 0 0 1-.283-.098c-.328-.15-.508-.239-.647-.36-.433-.376-.448-.858-.448-1.393v-5.405c0-.535.015-1.017.448-1.394.157-.137.366-.232.784-.422.552-.252.829-.377 1.102-.4.045-.003.089-.005.131-.005z" style="fill:#3d39ff;stroke:none" transform="translate(-24.703 -13.768)"/>
        </g>
        <path data-name="패스 59" d="M27.883 22.076c0-4.078 3.857-7.385 8.615-7.385s8.616 3.309 8.616 7.385" style="stroke-linecap:square;stroke:#3d39ff;stroke-linejoin:round;stroke-width:1.5px;fill:none" transform="translate(-24.703 -13.768)"/>
        <path data-name="패스 60" d="M45.115 31.922v.985c0 2.175-2.2 3.938-4.923 3.938H37.73" style="stroke-linecap:round;stroke:#3d39ff;stroke-linejoin:round;stroke-width:1.5px;fill:none" transform="translate(-24.703 -13.768)"/>
    </g>
</svg>
