<svg xmlns="http://www.w3.org/2000/svg" width="24" height="24" viewBox="0 0 24 24">
    <defs>
        <clipPath id="6ch3sufyza">
            <path data-name="사각형 5868" transform="translate(64)" style="opacity:0;fill:#fff" d="M0 0h24v24H0z"/>
        </clipPath>
    </defs>
    <g data-name="그룹 21843" transform="translate(4.246 4.197)">
        <g data-name="합치기 4" style="stroke-linecap:round;stroke-linejoin:round;fill:none">
            <path d="M3 15.768a3 3 0 0 1-3-3V6.084a3 3 0 0 1 3-3h4.961L11.15 0v3.083H13a3 3 0 0 1 3 3v6.683a3 3 0 0 1-3 3z" style="stroke:none" transform="rotate(180 7.876 7.804)"/>
            <path d="M13 15.768c1.656 0 3-1.344 3-3V6.083c0-1.657-1.344-3-3-3h-1.85V-.002L7.96 3.083H3a3 3 0 0 0-3 3.001v6.683a3 3 0 0 0 3 3.001h10m0 1H3c-2.206 0-4-1.795-4-4V6.083c0-2.206 1.794-4 4-4h4.556L10.455-.72A1 1 0 0 1 12.15 0v2.083H13c2.206 0 4 1.795 4 4.001v6.683c0 2.206-1.794 4.001-4 4.001z" style="fill:#242f4b;stroke:none" transform="rotate(180 7.876 7.804)"/>
        </g>
        <circle data-name="타원 965" cx="1" cy="1" r="1" transform="translate(2.754 5.803)" style="fill:#3965ff"/>
        <circle data-name="타원 966" cx="1" cy="1" r="1" transform="translate(6.754 5.803)" style="fill:#3965ff"/>
        <circle data-name="타원 967" cx="1" cy="1" r="1" transform="translate(10.754 5.803)" style="fill:#3965ff"/>
    </g>
</svg>
