<svg xmlns="http://www.w3.org/2000/svg" width="102.184" height="87.05" viewBox="0 0 102.184 87.05">
    <defs>
        <linearGradient id="v46gc9hfga" x1="-.017" y1=".5" x2="1.007" y2=".5" gradientUnits="objectBoundingBox">
            <stop offset=".1" stop-color="#006cbb"/>
            <stop offset=".224" stop-color="#0072c1"/>
            <stop offset=".396" stop-color="#0084d2"/>
            <stop offset=".4" stop-color="#0085d3"/>
            <stop offset=".75" stop-color="#00a88b"/>
            <stop offset="1" stop-color="#70b32f"/>
        </linearGradient>
    </defs>
    <g data-name="그룹 35">
        <path data-name="패스 31" d="M216.574 308.248v1.879h4.244s.794.194.794.793v1.993h-5.038v1.879h4.6a14.379 14.379 0 0 1-3.985 5.313l1.523 1.685a14.234 14.234 0 0 0 4.665-6.771 11.266 11.266 0 0 0 .486-2.138c.032-.745 0-2.592 0-2.592s-.519-2.041-2.3-2.041z" transform="translate(-168.243 -239.082)" style="fill:#003370"/>
        <path data-name="패스 32" d="M240.907 305.249V324.3h2.138v-10.142h1.814V324.3h2.106v-19.05h-2.009v6.965h-1.944v-6.965z" transform="translate(-183.116 -237.249)" style="fill:#003370"/>
        <g data-name="그룹 20">
            <path data-name="패스 33" d="M275.316 318.26a7.659 7.659 0 0 1-2.56.486v-8.553h1.425v-1.945h-9.849v1.912h1.652v8.553h-1.911v1.717h9.752a3.446 3.446 0 0 0 1.912-.68zm-4.99.389h-2.138v-8.392h2.138z" transform="translate(-197.277 -239.082)" style="fill:#003370"/>
        </g>
        <path data-name="사각형 9" transform="translate(79.886 68)" style="fill:#003370" d="M0 0h2.397v19.05H0z"/>
        <path data-name="패스 34" d="M320.456 306.416h-8.132v6.8s.518 2.463 2.624 2.463h2.981a7.551 7.551 0 0 0 3.4-.972v-1.685a14.1 14.1 0 0 1-3.92.778c-1.749 0-2.017-.252-2.77-.883v-1.093h5.734v-1.774h-5.733v-1.677h5.807z" transform="translate(-226.768 -237.962)" style="fill:#003370"/>
        <path data-name="패스 35" d="M342.282 305.249v10.067h2.308v-4.568h2.673v-1.9h-2.7v-3.6z" transform="translate(-245.079 -237.249)" style="fill:#003370"/>
        <path data-name="패스 36" d="M318.969 334.332v1.725h8.923s.924.1.924.7v.607h-9.847v3.183a1.827 1.827 0 0 0 1.742 1.523h10.164s.29-.259.29-1.523h-9.055a.76.76 0 0 1-.607-.729v-.85h9.4v-3.086a1.957 1.957 0 0 0-2.085-1.555z" transform="translate(-231.801 -255.025)" style="fill:#003370"/>
        <g data-name="그룹 24">
            <g data-name="그룹 23">
                <g data-name="그룹 22">
                    <g data-name="그룹 21">
                        <path data-name="패스 37" d="M98.018 307.391h-5.76v17.12h5.76c5.047 0 8.307-3.361 8.307-8.56s-3.261-8.56-8.307-8.56zm4.047 12.961a5.325 5.325 0 0 1-4.158 1.636h-2.813v-12.1h2.812c3.552 0 5.588 2.209 5.588 6.062a6.455 6.455 0 0 1-1.43 4.402z" transform="translate(-92.258 -238.558)" style="fill:#003370"/>
                        <path data-name="패스 38" d="M141.5 317.689h3.762l-.008.048a4.437 4.437 0 0 1-4.577 4.124c-3.11 0-5.2-2.55-5.2-6.344a7.166 7.166 0 0 1 1.386-4.517 4.575 4.575 0 0 1 3.7-1.773 4.077 4.077 0 0 1 4.173 3.026h2.834c-.717-3.544-3.267-5.574-7.007-5.574-4.6 0-7.942 3.715-7.942 8.836s3.386 8.84 8.053 8.84c4.278 0 7.269-3.2 7.269-7.776v-1.3H141.5z" transform="translate(-116.928 -238.125)" style="fill:#003370"/>
                        <path data-name="패스 39" d="m187.424 315.712-.116-.04.116-.039a3.654 3.654 0 0 0 2.213-3.6c0-2.946-2.109-4.639-5.786-4.639h-5.983v17.12h6.542c3.676 0 5.788-1.784 5.788-4.89a4.13 4.13 0 0 0-2.774-3.912zm-6.809-5.879h3.208c2.083 0 3.095.773 3.095 2.365 0 1.608-1.042 2.423-3.095 2.423h-3.208zm3.74 12.237h-3.74v-5.124h3.74c1.95 0 3.067.934 3.067 2.563.001 1.606-1.147 2.562-3.067 2.562z" transform="translate(-144.585 -238.558)" style="fill:#003370"/>
                    </g>
                </g>
            </g>
        </g>
    </g>
    <g data-name="그룹 28">
        <g data-name="그룹 3">
            <g data-name="그룹 1">
                <path data-name="패스 2" d="M431.177 253.986c6.974-1.21 30.521-6.058 27.619-19.491-1.04-4.823-6-10.12-13.481-13.81a52.5 52.5 0 0 0-21.469-4.251c-22.726 0-38.532 12.012-38.532 26.829 0 10.317 7.672 19.278 20.009 23.763 2.619-6.893 13.041-10.818 25.854-13.04z" transform="translate(-372.383 -216.434)" style="fill:#006cbb"/>
                <path data-name="패스 3" d="M429.717 265.054c-10.192 1.28-14.869 4.57-17.872 8.566a54.738 54.738 0 0 0 17.725 2.78c22.729 0 38.534-12.006 38.534-26.823a20.449 20.449 0 0 0-.369-3.872c-.754 17.402-26.871 17.962-38.018 19.349z" transform="translate(-378.106 -222.749)" style="fill:url(#v46gc9hfga)"/>
            </g>
            <g data-name="그룹 2">
                <path data-name="패스 4" d="M404.383 232.779h-7.622l.091.221a11.048 11.048 0 0 1 .292 3.648l-.008 17.591h.152c.032 0 3.465.126 6.729.126 6.809 0 11.382-4.613 11.382-11.483.001-6.134-4.325-10.103-11.016-10.103zM400.4 234.7c.441-.034 1.786-.135 2.754-.135 5.821 0 8.534 2.823 8.534 8.874 0 6.268-2.407 9.307-7.363 9.307-3.631 0-3.924-.172-3.924-2.318z" transform="translate(-374.852 -219.96)" style="fill:#fff"/>
                <path data-name="패스 5" d="M441.5 254.044c-.112-1.264-.164-2.116-.164-2.858v-7.513h-3.619l.118.227a5.546 5.546 0 0 1 .372 2.311c0 .051.009 5.222-.134 6.446a12.762 12.762 0 0 1-2.8.3c-5.746 0-8.658-3.293-8.658-9.795 0-4.965 3.277-8.667 7.979-9.009a8.9 8.9 0 0 1 6.346 1.8l.261.23v-3.039l-.128-.027a26.568 26.568 0 0 0-4.955-.589c-8.273 0-13.21 4.353-13.21 11.644 0 7.765 6.032 10.534 11.677 10.534a44.36 44.36 0 0 0 6.785-.494l.147-.023z" transform="translate(-380.492 -219.906)" style="fill:#fff"/>
                <path data-name="패스 6" d="M460.486 242.455a5.288 5.288 0 0 0 4.05-5.037c0-2.9-2.624-4.639-7.012-4.639H451l.043.191a14.3 14.3 0 0 1 .193 2.846v18.607h.16c.027 0 2.564-.049 5.706-.049 5.479 0 8.622-2.381 8.622-6.531.003-2.567-2.124-4.714-5.238-5.388zm-5.993 1.049h1.682c3.886 0 5.852 1.521 5.852 4.528 0 3.172-1.7 4.715-5.186 4.715-1.691 0-2.349-.61-2.349-2.176zm.012-9.039h2.131c3.353 0 4.78 1.016 4.78 3.392 0 2.7-1.757 3.963-5.535 3.963h-1.387z" transform="translate(-386.554 -219.96)" style="fill:#fff"/>
            </g>
        </g>
    </g>
</svg>
