<svg xmlns="http://www.w3.org/2000/svg" width="40" height="40" viewBox="0 0 40 40">
    <path style="fill:none" d="M0 0h40v40H0z"/>
    <g data-name="패스 214" style="fill:none">
        <path d="M3.293 2A3.563 3.563 0 0 0 0 5.781v22.688a3.563 3.563 0 0 0 3.293 3.781h28.539a3.563 3.563 0 0 0 3.293-3.781V5.781A3.563 3.563 0 0 0 31.832 2z" style="stroke:none" transform="translate(2.437 2.875)"/>
        <path d="M3.293 4C2.593 4 2 4.816 2 5.781V28.47c0 .965.592 1.78 1.293 1.78h28.539c.7 0 1.293-.815 1.293-1.78V5.78c0-.965-.592-1.781-1.293-1.781H3.292m0-2h28.54c1.818 0 3.293 1.693 3.293 3.781V28.47c0 2.088-1.475 3.78-3.293 3.78H3.292C1.475 32.25 0 30.558 0 28.47V5.78C0 3.693 1.474 2 3.293 2z" style="fill:#222;stroke:none" transform="translate(2.437 2.875)"/>
    </g>
    <g data-name="그룹 2702">
        <path data-name="선 18" transform="translate(20.811 16.344)" style="stroke:#222;stroke-linecap:round;stroke-width:2px;fill:none" d="M0 0h7.312"/>
        <path data-name="선 19" transform="translate(20.811 23.656)" style="stroke:#222;stroke-linecap:round;stroke-width:2px;fill:none" d="M0 0h7.312"/>
        <path data-name="패스 1" d="m690.247 719.876 1.8 1.433 3.07-2.437" transform="translate(-678.373 -703.746)" style="stroke:#222;stroke-linecap:round;stroke-width:2px;fill:none"/>
        <path data-name="패스 385" d="m690.247 719.876 1.8 1.433 3.07-2.437" transform="translate(-678.373 -696.434)" style="stroke:#222;stroke-linecap:round;stroke-width:2px;fill:none"/>
    </g>
</svg>
