<svg xmlns="http://www.w3.org/2000/svg" width="16" height="16" viewBox="0 0 16 16">
    <g data-name="그룹 9225">
        <path data-name="패스 9314" d="M12.292 14H1.708A1.708 1.708 0 0 1 0 12.292V1.708A1.708 1.708 0 0 1 1.708 0h10.584A1.708 1.708 0 0 1 14 1.708v10.584A1.708 1.708 0 0 1 12.292 14" transform="translate(1 1)" style="fill:#25bd97"/>
        <g data-name="그룹 9219">
            <path data-name="패스 9315" d="M30.646 17.541a2.426 2.426 0 1 1-2.426-2.426 2.426 2.426 0 0 1 2.426 2.426" transform="translate(-19.952 -12.115)" style="fill:#a7f4c2"/>
            <path data-name="패스 9317" d="M19.506 47.535a1.052 1.052 0 0 1-.847-.434 1.125 1.125 0 0 1-.175-.964 4.684 4.684 0 0 1 9.067-.046 1.125 1.125 0 0 1-.165.965 1.053 1.053 0 0 1-.848.443l-7.027.036zm3.519-2.735" transform="translate(-14.972 -35.015)" style="fill:#a7f4c2"/>
        </g>
    </g>
</svg>
