<svg xmlns="http://www.w3.org/2000/svg" width="20" height="20" viewBox="0 0 20 20">
    <path data-name="사각형 4123" style="fill:#ef4040;opacity:.002" d="M0 0h20v20H0z"/>
    <path data-name="ic_홈" d="M8.21.347.462 7.229A1.376 1.376 0 0 0 0 8.258v10.365A1.376 1.376 0 0 0 1.376 20h3.44a1.376 1.376 0 0 0 1.376-1.376V14.7a1.376 1.376 0 0 1 1.376-1.376h3.112a1.376 1.376 0 0 1 1.376 1.376v3.928A1.376 1.376 0 0 0 13.432 20h3.44a1.376 1.376 0 0 0 1.376-1.376V8.258a1.376 1.376 0 0 0-.462-1.029L10.038.347a1.376 1.376 0 0 0-1.828 0" transform="translate(1)" style="fill:#cacdd0"/>
</svg>
