<svg xmlns="http://www.w3.org/2000/svg" width="24" height="26" viewBox="0 0 24 26">
    <g data-name="패스 12" style="fill:#fff">
        <path d="M20 23.25H4A3.254 3.254 0 0 1 .75 20V4A3.254 3.254 0 0 1 4 .75h16A3.254 3.254 0 0 1 23.25 4v16A3.254 3.254 0 0 1 20 23.25z" style="stroke:none" transform="translate(0 2)"/>
        <path d="M4 1.5A2.503 2.503 0 0 0 1.5 4v16c0 1.378 1.122 2.5 2.5 2.5h16c1.378 0 2.5-1.122 2.5-2.5V4c0-1.378-1.122-2.5-2.5-2.5H4M4 0h16a4 4 0 0 1 4 4v16a4 4 0 0 1-4 4H4a4 4 0 0 1-4-4V4a4 4 0 0 1 4-4z" style="fill:#222;stroke:none" transform="translate(0 2)"/>
    </g>
    <g data-name="사각형 24" transform="translate(6)" style="stroke:#222;fill:#fff">
        <rect width="1.5" height="6" rx=".75" style="stroke:none"/>
        <rect x=".5" y=".5" width=".5" height="5" rx=".25" style="fill:none"/>
    </g>
    <g data-name="사각형 25" transform="translate(17.25)" style="stroke:#222;fill:#fff">
        <rect width="1.5" height="6" rx=".75" style="stroke:none"/>
        <rect x=".5" y=".5" width=".5" height="5" rx=".25" style="fill:none"/>
    </g>
    <g data-name="합치기 3" style="fill:#fff">
        <path d="M11.5 7.5h-1v-1h1v1zm-5 0h-1v-1h1v1zm-5 0h-1v-1h1v1zm10-6h-1v-1h1v1zm-5 0h-1v-1h1v1zm-5 0h-1v-1h1v1z" style="stroke:none" transform="translate(6 11)"/>
        <path d="M12 8h-2V6h2v2zM7 8H5V6h2v2zM2 8H0V6h2v2zm10-6h-2V0h2v2zM7 2H5V0h2v2zM2 2H0V0h2v2z" style="fill:#222;stroke:none" transform="translate(6 11)"/>
    </g>
</svg>
