<svg xmlns="http://www.w3.org/2000/svg" width="442" height="172" viewBox="0 0 442 172">
    <defs>
        <clipPath id="94vd3dujpa">
            <path data-name="사각형 1649" transform="translate(1384.873 77)" style="fill:#fff" d="M0 0h442v172H0z"/>
        </clipPath>
        <clipPath id="00aifftagb">
            <path data-name="사각형 1648" style="fill:none" d="M0 0h402.589v293.301H0z"/>
        </clipPath>
    </defs>
    <g data-name="03. 일러스트" transform="translate(-1384.873 -77)" style="clip-path:url(#94vd3dujpa)">
        <g data-name="02_1. illust" transform="translate(1385.438 77)" style="clip-path:url(#00aifftagb)">
            <path data-name="패스 232" d="M314.072 144.759a25.478 25.478 0 0 1-8.67.722l2.917 10.621a124.06 124.06 0 0 1 12.924-4.858c6.989-2.33 4.1-13.151-3.074-10.992-5.735 1.724-11.522 3.511-17.5 4.162l4.089 9.73a48.087 48.087 0 0 1 8.175-5.184l-5.836-9.843a26.175 26.175 0 0 1-15.025 3.5q2.5 4.288 4.992 8.577-2.526 1.639.584.282l3.432-1.16 6.861-2.316c7.146-2.416 4.2-12.155-3.074-10.992-3.318.53-6.64 1.005-9.98 1.373-2.626.29-6.74 1.381-9.218.206v9.843a25.374 25.374 0 0 1 8.717-3.467c6.486-1.332 4.865-11.159-1.537-11.2l-9.057-.052 1.537 11.2 3.854-1.572c5.729-2.337 5.45-11.034-1.536-11.2a18.321 18.321 0 0 1-5.662-1.06l-1.536 11.2c6.334.573 11.991-2.126 18.067-3.346 5.479-1.1 13.516-2.157 19-.678l-3.454-2.62c-.938-1.909-.435-.68-2.309.1l5.625 9.527q.45-.5.9-.99c2.811-3.089 1.863-8.426-2.551-9.527a49.895 49.895 0 0 0-4.534-.912c-7.28-1.115-10.416 9.867-3.074 10.992 1.544.237 3.019.533 4.534.911l-2.551-9.527q-.452.494-.9.99c-3.443 3.782-.147 11.916 5.625 9.527 4.738-1.962 9.236-4.979 10.285-10.3 1.123-5.7-2.419-9.252-7.912-9.67a84.3 84.3 0 0 0-18.289.614c-6.125.879-12.256 4.078-18.463 3.517-6.809-.615-7.383 9.23-1.537 11.2a29.2 29.2 0 0 0 8.736 1.468l-1.537-11.2-3.854 1.572c-5.667 2.311-5.494 11.156 1.536 11.2l9.057.052-1.536-11.2a34.575 34.575 0 0 0-11.48 4.617c-3.4 2.126-4.108 7.9 0 9.843 8.4 3.983 19.283.982 28.109-.429L304.867 137c-5.662 1.915-14.439 3.03-17.79 8.437-2.395 3.864.756 8.351 4.992 8.577a37.363 37.363 0 0 0 20.86-5.057c6.453-3.716.743-13.237-5.836-9.843a62.3 62.3 0 0 0-10.516 6.966c-3.731 3-.777 10.26 4.088 9.73a113.972 113.972 0 0 0 20.578-4.57l-3.074-10.992a150.713 150.713 0 0 0-15.686 6.008c-5.639 2.607-2.248 10.238 2.918 10.621a35.511 35.511 0 0 0 11.744-1.129c7.187-1.874 4.139-12.873-3.074-10.992" transform="translate(-7.931 -5.384)" style="fill:#fff"/>
            <path data-name="패스 233" d="M237.924 249.7c7.44 0 7.453-11.4 0-11.4s-7.453 11.4 0 11.4" transform="translate(-6.703 -10.141)" style="fill:#fff"/>
            <path data-name="패스 234" d="M206.929 218.288c13.02 0 13.042-19.949 0-19.949-13.02 0-13.042 19.949 0 19.949" transform="translate(-5.688 -8.441)" style="fill:#fff"/>
            <path data-name="패스 235" d="M217.6 204.917s4.126-8.214 7.618-16.349c3.689-8.6 17.944-58.6 20.947-60.235 3.779-2.062 22.929-2.314 28.58-2.344a1.7 1.7 0 0 1 1.711 1.465 29.173 29.173 0 0 0 5.574 13.865c5.395 6.884 20.947 14.08 32.056 8.135s19.043-14.824 16.187-33.286c0 0 11.743-12.2 17.139-12.2s20.313-2.191 25.073 12.829 31.1 100.248 31.422 103.377c.244 2.4 2.923 16.814 4.152 23.363a12.862 12.862 0 0 1-.785 7.445c-2.731 6.377-10.168 17.078-28.124 10.5-24.756-9.075-38.4-45.371-38.4-45.371l-31.422-73.22s31.738-14.707 32.691-15.332 40.625 69.152 50.147 95.124" transform="translate(-6.278 -4.42)" style="fill:#fff"/>
            <path data-name="패스 236" d="M217.6 204.917s4.126-8.214 7.618-16.349c3.689-8.6 17.944-58.6 20.947-60.235 3.779-2.062 22.929-2.314 28.58-2.344a1.7 1.7 0 0 1 1.711 1.465 29.173 29.173 0 0 0 5.574 13.865c5.395 6.884 20.947 14.08 32.056 8.135s19.043-14.824 16.187-33.286c0 0 11.743-12.2 17.139-12.2s20.313-2.191 25.073 12.829 31.1 100.248 31.422 103.377c.244 2.4 2.923 16.814 4.152 23.363a12.862 12.862 0 0 1-.785 7.445c-2.731 6.377-10.168 17.078-28.124 10.5-24.756-9.075-38.4-45.371-38.4-45.371l-31.422-73.22s31.738-14.707 32.691-15.332 40.625 69.152 50.147 95.124" transform="translate(-6.278 -4.42)" style="stroke-width:1.2px;stroke-linecap:round;stroke-linejoin:round;stroke:#000;fill:none"/>
            <path data-name="패스 237" d="M206.929 218.288c13.02 0 13.042-19.949 0-19.949-13.02 0-13.042 19.949 0 19.949" transform="translate(-5.688 -8.441)" style="fill:#fff"/>
            <path data-name="패스 238" d="M173.949 131.854H174a1.829 1.829 0 0 0 .928-.2 1.8 1.8 0 0 0 .775-.491 2.624 2.624 0 0 0 .706-1.678l-.086-.632a2.358 2.358 0 0 0-.62-1.047l-.488-.371A2.415 2.415 0 0 0 174 127.1h-.053a2.7 2.7 0 0 0-1.7.7 2.616 2.616 0 0 0-.705 1.679l.085.631a2.367 2.367 0 0 0 .62 1.047l.488.372a2.415 2.415 0 0 0 1.216.325" transform="translate(-4.949 -5.409)" style="fill:#fff"/>
            <path data-name="패스 239" d="m174.06 131.824 15.662-.011a2.375 2.375 0 1 0 0-4.75l-15.662.011a2.375 2.375 0 1 0 0 4.75" transform="translate(-4.952 -5.407)" style="fill:#fff"/>
            <path data-name="패스 240" d="m174.078 143.867.057.977a2.454 2.454 0 0 0 1.768 2.29 2.429 2.429 0 0 0 2.721-1.091q.82-1.873 1.753-3.692a2.413 2.413 0 0 0-.864-3.25 2.46 2.46 0 0 0-3.3.852 39.642 39.642 0 0 0-3.213 7.016l4.646 1.263c1.529-4.609 3.713-8.932 4.14-13.832a2.364 2.364 0 0 0-2.089-2.332 2.418 2.418 0 0 0-2.643 1.7 24.429 24.429 0 0 1-2.537 5.655l4.489 1.2a32.779 32.779 0 0 0 .147-5.157 2.426 2.426 0 0 0-4.731-.631 34.909 34.909 0 0 1-1.4 3.359l4.489 1.2q.079-2.354-.06-4.7c-.132-2.239-3.279-3.374-4.489-1.2a16.129 16.129 0 0 0-1.423 3.419l4.732.631.017-1.839a2.38 2.38 0 0 0-2.088-2.333 2.443 2.443 0 0 0-2.643 1.7q-.185.5-.369.991l4.731.632a34.826 34.826 0 0 1 .291-3.525c.2-1.4.639-2.771.263-4.179-.788-2.954-5.436-1.7-4.646 1.263 0 0 .119-.731-.014.171-.033.22-.082.438-.118.658-.12.7-.219 1.41-.309 2.118a39.317 39.317 0 0 0-.286 3.495 2.374 2.374 0 0 0 2.089 2.332 2.443 2.443 0 0 0 2.642-1.7l.37-.991-4.731-.631q-.01.919-.018 1.839c-.027 2.688 4 3.213 4.731.632a10.426 10.426 0 0 1 .937-2.284l-4.49-1.2q.138 2.351.06 4.7c-.076 2.265 3.451 3.356 4.489 1.2a47 47 0 0 0 1.887-4.494l-4.732-.631a32.781 32.781 0 0 1-.147 5.157 2.391 2.391 0 0 0 1.768 2.29 2.479 2.479 0 0 0 2.72-1.091 29.532 29.532 0 0 0 3.022-6.79l-4.731-.631c-.383 4.386-2.6 8.439-3.968 12.569a2.4 2.4 0 0 0 1.683 2.922 2.46 2.46 0 0 0 2.963-1.659 33.066 33.066 0 0 1 2.729-5.882l-4.159-2.4q-.934 1.821-1.754 3.693l4.489 1.2-.057-.977a2.445 2.445 0 0 0-2.409-2.374 2.414 2.414 0 0 0-2.408 2.374" transform="translate(-4.936 -5.418)" style="fill:#fff"/>
            <path data-name="패스 241" d="M169.926 149.867c.58 9.43-.144 18.87.065 28.307.068 3.051 4.886 3.062 4.818 0-.209-9.437.515-18.877-.065-28.307-.186-3.037-5.005-3.058-4.818 0" transform="translate(-4.902 -6.281)" style="fill:#fff"/>
            <path data-name="패스 242" d="M239.829 208.068a31.192 31.192 0 0 1-13.94 14.078l8.493 6.437 1.565-10.888c.6-4.177-3.945-9.849-8.493-6.436a28.07 28.07 0 0 1-6.086 3.657l6.529 8.374a29.52 29.52 0 0 0 3.327-9.852c.6-4.265-2.429-8.1-7.113-7.011a14.217 14.217 0 0 0-4.486 1.876l8.493 6.436.3-1.225c1.484-6.093-7.369-10.273-10.567-4.392l-3.12 5.741c-3.52 6.475 6.02 11.977 9.983 5.753 1.63-2.557 8.125-3.165 10.928-4.4l-7.007-.89a5.8 5.8 0 0 0 3.7 2.024c1.229.227 3.435 1.048.905-.281l-2.863-4.922q.02.523.042 1.044l1.693-4.031c-3.982 4.636-10.183 8.21-15.223 11.656-6.031 4.125-.589 13.744 5.837 9.843a8.93 8.93 0 0 1 4.7-1.541l-4.089-9.73a32.346 32.346 0 0 1-4.341 2.981c-5.389 3.184-1.826 12.906 4.456 10.418a148.488 148.488 0 0 1 33.741-8.952l-4.455-10.418c-11.445 5.807-23.659 9.7-35.885 13.563l4.447 10.42a64.465 64.465 0 0 1 27.169-7.423l-2.917-10.621a72.73 72.73 0 0 1-28.048 9.308l1.536 11.2a151.156 151.156 0 0 1 25.479-3.2l-1.537-11.2a132.454 132.454 0 0 1-25.165 6.176l3.074 10.992A116.113 116.113 0 0 1 240.1 236.7c4.565-.988 5.961-8.427 1.381-10.418-7.6-3.3-12.093 4.231-16.651 9.135l9.663 5.546a4.829 4.829 0 0 1 2.02-2.409l-9.87-4.03a25.163 25.163 0 0 1-.69 4.125c-1.579 6.538 6.813 9.531 10.567 4.393a18.151 18.151 0 0 1 3.628-3.543l-9.87-4.03a6.436 6.436 0 0 1-.451 2.961c-1.734 6.318 7.1 9.836 10.567 4.392a7.044 7.044 0 0 1 2.154-2.47l-8.493-6.437a2.819 2.819 0 0 1-.924 2.263l9.663 5.546a2.92 2.92 0 0 1 .879-2.117c4.861-5.514-3.284-13.61-8.176-8.061a15.509 15.509 0 0 0-3.853 7.147c-1.151 5.238 5.543 10 9.663 5.545a14.206 14.206 0 0 0 3.9-7.293c.784-4.273-4.035-9.732-8.493-6.437a23.756 23.756 0 0 0-6.3 6.559l10.567 4.392a24.515 24.515 0 0 0 .864-5.992c.126-5.388-6.206-6.923-9.87-4.031a28.662 28.662 0 0 0-5.436 5.849l10.566 4.393a45.124 45.124 0 0 0 1.1-7.156c.425-5.472-6.358-6.783-9.869-4.031a14.955 14.955 0 0 0-4.994 7.438c-1.8 5.376 5.813 9.687 9.663 5.546l4.1-4.412c.658-.708 4.115-3.387 2.2-2.712l-4.456-.574.8.346 1.381-10.417a116.135 116.135 0 0 0-19.208 5.923c-6.911 2.805-4.339 12.061 3.074 10.992a132.486 132.486 0 0 0 25.166-6.176c5.808-2.045 5.364-11.479-1.537-11.2a170.035 170.035 0 0 0-28.553 3.612c-6.253 1.335-5 11.933 1.537 11.2a86.885 86.885 0 0 0 33.88-10.857c4.8-2.752 2.924-10.905-2.918-10.622a78.06 78.06 0 0 0-33 8.979c-5.724 3.026-1.826 12.4 4.455 10.418 13.175-4.159 26.315-8.455 38.647-14.712 6.321-3.207 1.515-11.273-4.455-10.418a148.5 148.5 0 0 0-33.742 8.952l4.456 10.418a51.548 51.548 0 0 0 6.681-4.764c3.819-3.163.728-9.967-4.088-9.73a21.3 21.3 0 0 0-10.535 3.1l5.837 9.843q5.1-3.49 10.029-7.216c2.687-2.04 6.08-4 7.986-6.8 1.7-2.491 1.777-6.27-.494-8.527-2.069-2.055-4.508-1.743-7.143-2.064l4.089 1.669-.379-.456c-1.734-2.094-4.81-1.857-7.006-.891-5.827 2.563-11.356 2.646-15.075 8.488l9.983 5.753q1.562-2.869 3.121-5.741l-10.567-4.392q-.149.613-.3 1.225c-1.12 4.6 4.082 9.249 8.493 6.437a2.336 2.336 0 0 1 1.725-.726l-7.112-7.011a20.987 20.987 0 0 1-2.162 7.128c-2.054 3.9 1.5 10.436 6.529 8.373a38.526 38.526 0 0 0 8.848-4.807l-8.493-6.437-1.565 10.887c-.693 4.826 3.687 8.951 8.493 6.437a41.652 41.652 0 0 0 18.089-18.167c3.288-6.554-6.682-12.337-9.984-5.753" transform="translate(-6.113 -8.731)" style="fill:#fff"/>
            <path data-name="패스 243" d="M226.667 229.029s5.314 6.257 6.267 20.025" transform="translate(-6.539 -9.747)" style="stroke-width:1.2px;stroke-linecap:round;stroke-linejoin:round;stroke:#000;fill:none"/>
            <path data-name="패스 244" d="M201.428 180.2c13.64 0 13.663-20.9 0-20.9-13.64 0-13.663 20.9 0 20.9" transform="translate(-5.516 -6.779)" style="fill:#fff"/>
            <path data-name="패스 245" d="M180 157.19a31.553 31.553 0 0 1 3.357 12.394c.343 5.635 4.625 10.45 10.6 10.45 6.282 0 9.93-4.819 10.6-10.45a64.675 64.675 0 0 0-.672-17.824 47.521 47.521 0 0 0-1.813-6.769 86.428 86.428 0 0 1-1.153-3.97c-.1-.363-1.091-4.459-.89-2.649l-1.447 5.275.251-.491-9.152 5.175c2.879-.324 5.151.821 8.105.053 3.385-.881 5.5-2.9 7.543-5.584l-16.647 2.115.779.731c9.874 9.281 24.887-5.474 14.99-14.777l-.779-.732c-5.379-5.057-12.546-3.287-16.646 2.115l-.431.567 6.335-4.8c3.046-.84-2.429-.609-3.248-.585a10.864 10.864 0 0 0-9.152 5.176c-2.646 4.3-1.429 8.661-.257 13.169.919 3.538 2.436 7.01 2.973 10.618a50.526 50.526 0 0 1 .115 13.19h21.2a57.22 57.22 0 0 0-6.251-22.942c-2.56-5.047-9.791-6.466-14.5-3.749-5.211 3.005-6.372 9.233-3.8 14.3" transform="translate(-5.155 -5.411)" style="fill:#fff"/>
            <path data-name="패스 246" d="M173.948 153.109q-.052 17.863 1.406 35.667c.667 8.153 6.834 16.075 15.9 15.674 8.04-.354 16.615-6.921 15.9-15.674q-1.458-17.8-1.406-35.667c.024-8.2-7.329-16.053-15.9-15.674-8.635.381-15.873 6.887-15.9 15.674" transform="translate(-5.018 -5.848)" style="fill:#fff"/>
            <path data-name="패스 247" d="M175.537 189.917c-.618 5.6.333 11.328 1.735 16.764.609 2.358 1.384 4.671 2.047 7.013q.514 1.751.947 3.521.5 2.964.363 1.2c.791 6.419 3.367 11.66 9.774 14.324 5.579 2.322 13.131 1.428 17.368-3.241 2.884-3.179 5.33-6.8 6.178-11.053h-30.661c.119.348 1.219 4.162.856 2.529-.3-1.359.175 1.572.208 1.879.423 3.9.668 7.935 2.223 11.568a16.725 16.725 0 0 0 10.643 9.8 23.843 23.843 0 0 0 5.361.867c1.067.081 5.529.832 1.61-.283l-11.1-10.947.137.795v-8.334a34.1 34.1 0 0 1-.915 4.1c-2.266 7.884 2.776 17.411 11.1 19.281 8.456 1.9 17.13-2.5 19.558-10.947a28.451 28.451 0 0 0 .777-13.228c-.912-5.276-6.175-9.544-11.1-10.948a25.288 25.288 0 0 0-5.82-.782c-.914-.041-4.191-.624-1.151.2l9.5 7.2c.013.028 1.427 2.453 1.059 2.456-.048 0-.406-3.746-.435-3.98a46.457 46.457 0 0 0-1.845-9.56c-2.172-6.333-8.12-11.826-15.331-11.508-6.641.294-13.953 4.6-15.332 11.508q-.963 3.882 2-2.78l27.142 11.083a102.671 102.671 0 0 0-3.49-16.557c-1.517-5.2-2.156-6.932-1.6-11.942.9-8.179-7.957-16.025-15.9-15.674-9.385.415-14.932 6.912-15.9 15.674" transform="translate(-5.059 -7.415)" style="fill:#fff"/>
            <path data-name="패스 248" d="M192.967 245.067a16.908 16.908 0 0 0 10.144 11.689c3.719 1.546 7.161 1.517 11.053.778.969-.184 1.927-.384 2.9-.524l-4.226.56a33.868 33.868 0 0 1 4.062-.238l-15.332-19.841a9.589 9.589 0 0 1-.372 1l1.6-3.745a12.238 12.238 0 0 1-1.388 2.285l2.486-3.173a9.719 9.719 0 0 1-.721.8 15.606 15.606 0 0 0-1.243 20.581 15.176 15.176 0 0 0 8.259 5.617c3.967.89 8.795.824 12.251-1.581a12.487 12.487 0 0 1 2.177-1.216l-3.8 1.58.589-.213c3.958-1.428 7.313-3.516 9.5-7.2a15.806 15.806 0 0 0 1.6-12.078c-1.245-3.792-3.629-7.452-7.307-9.368-3.6-1.878-8.269-3.016-12.251-1.58a28.028 28.028 0 0 0-6.563 3.008l19.267 24.618a28.143 28.143 0 0 0 6.568-11c3.323-9.77-5.468-19.829-15.331-19.841a61.66 61.66 0 0 0-11.428 1.366l4.226-.56-.465-.033 8.024 2.14-.32-.17 3.217 2.451-.24-.27 2.486 3.172-.173-.338 1.6 3.745a4.063 4.063 0 0 1-.2-.754c-.821-3.722-4.043-7.484-7.307-9.368a16.432 16.432 0 0 0-12.251-1.58 16.011 16.011 0 0 0-11.1 19.281" transform="translate(-5.555 -9.584)" style="fill:#fff"/>
            <path data-name="패스 249" d="M204.681 248.053a5.132 5.132 0 0 1 .161.752l-.568-4.167a4.73 4.73 0 0 1-.012 1.074l.568-4.167c-.015.1-.033.2-.054.3a11.708 11.708 0 0 0-.285 6.25 11.556 11.556 0 0 0 1.887 5.827 11.914 11.914 0 0 0 4.1 4.4 12.036 12.036 0 0 0 5.406 2.805l4.226.56a16 16 0 0 0 8.025-2.14l3.217-2.451a15.616 15.616 0 0 0 4.089-6.917c.734-3.676.985-6.791-.094-10.463a11.76 11.76 0 0 0-2.846-5.331 14.29 14.29 0 0 0-10.372-5.9 12.2 12.2 0 0 0-6.34.281l-3.8 1.58a15.868 15.868 0 0 0-5.7 5.623l-1.6 3.745a15.564 15.564 0 0 0 0 8.334" transform="translate(-5.889 -9.711)" style="fill:#fff"/>
            <path data-name="패스 250" d="M220.1 261.673c8.316 0 16.283-7.21 15.9-15.674-.386-8.493-6.985-15.674-15.9-15.674-8.316 0-16.283 7.21-15.9 15.674.386 8.493 6.985 15.674 15.9 15.674" transform="translate(-5.891 -9.802)" style="fill:#fff"/>
            <path data-name="패스 251" d="M222.234 263.841c9.828 0 19.244-8.52 18.79-18.525-.456-10.036-8.256-18.524-18.79-18.524-9.828 0-19.244 8.52-18.79 18.524.456 10.037 8.256 18.525 18.79 18.525" transform="translate(-5.869 -9.652)" style="fill:#fff"/>
            <path data-name="패스 252" d="M222.567 262.511c9.828 0 19.244-8.52 18.79-18.525-.456-10.036-8.256-18.524-18.79-18.524-9.828 0-19.244 8.52-18.79 18.524.456 10.037 8.256 18.525 18.79 18.525" transform="translate(-5.879 -9.595)" style="fill:#fff"/>
            <path data-name="패스 253" d="M218.576 268.5c9.828 0 19.244-8.52 18.79-18.525-.456-10.036-8.256-18.524-18.79-18.524-9.828 0-19.244 8.52-18.79 18.524.456 10.037 8.256 18.525 18.79 18.525" transform="translate(-5.763 -9.85)" style="fill:#fff"/>
            <path data-name="패스 254" d="M216.249 271.157c9.828 0 19.244-8.52 18.79-18.525-.456-10.036-8.256-18.524-18.79-18.524-9.828 0-19.244 8.52-18.79 18.524.456 10.037 8.256 18.525 18.79 18.525" transform="translate(-5.696 -9.963)" style="fill:#fff"/>
            <path data-name="패스 255" d="M212.258 274.372c9.828 0 19.244-8.52 18.79-18.525-.456-10.036-8.256-18.524-18.79-18.524-9.828 0-19.244 8.52-18.79 18.524.456 10.037 8.256 18.525 18.79 18.525" transform="translate(-5.581 -10.1)" style="fill:#fff"/>
            <path data-name="패스 256" d="M213.921 273.707c9.828 0 19.244-8.52 18.79-18.525-.456-10.036-8.256-18.524-18.79-18.524-9.828 0-19.244 8.52-18.79 18.524.456 10.037 8.256 18.525 18.79 18.525" transform="translate(-5.629 -10.071)" style="fill:#fff"/>
            <path data-name="패스 257" d="M209.573 276.97c8.316 0 16.283-7.21 15.9-15.674-.386-8.493-6.985-15.674-15.9-15.674-8.316 0-16.283 7.21-15.9 15.674.386 8.492 6.985 15.674 15.9 15.674" transform="translate(-5.587 -10.453)" style="fill:#fff"/>
            <path data-name="패스 258" d="M211.457 276.194c8.316 0 16.283-7.21 15.9-15.674-.386-8.493-6.985-15.674-15.9-15.674-8.316 0-16.283 7.21-15.9 15.674.386 8.493 6.985 15.674 15.9 15.674" transform="translate(-5.641 -10.42)" style="fill:#fff"/>
            <path data-name="패스 259" d="M206.6 276.086a13.3 13.3 0 1 0-13.49-13.3 13.606 13.606 0 0 0 13.49 13.3" transform="translate(-5.571 -10.617)" style="fill:#fff"/>
            <path data-name="패스 260" d="M206.264 275.809a13.3 13.3 0 1 0-13.49-13.3 13.606 13.606 0 0 0 13.49 13.3" transform="translate(-5.562 -10.606)" style="fill:#fff"/>
            <path data-name="패스 261" d="m215.358 252.437-.053-.053a10.141 10.141 0 0 0-4.342-2.751 12.366 12.366 0 0 0-10.394 0 10.135 10.135 0 0 0-4.342 2.751l-2.109 2.691a13.1 13.1 0 0 0-1.841 6.713q.24 1.768.482 3.535a13.248 13.248 0 0 0 3.469 5.869l.054.053a10.121 10.121 0 0 0 4.341 2.75 12.359 12.359 0 0 0 10.4 0 10.121 10.121 0 0 0 4.341-2.75l2.109-2.691a13.083 13.083 0 0 0 1.841-6.713l-.482-3.536a13.241 13.241 0 0 0-3.469-5.868" transform="translate(-5.547 -10.575)" style="fill:#fff"/>
            <path data-name="패스 262" d="m214.969 251.936-.108-.106a10.13 10.13 0 0 0-4.341-2.75 12.368 12.368 0 0 0-10.4 0 10.13 10.13 0 0 0-4.341 2.75l-2.109 2.691a13.1 13.1 0 0 0-1.842 6.713l.483 3.536a13.241 13.241 0 0 0 3.469 5.868l.108.106a10.121 10.121 0 0 0 4.341 2.75 12.359 12.359 0 0 0 10.4 0 10.121 10.121 0 0 0 4.341-2.75l2.109-2.691a13.083 13.083 0 0 0 1.841-6.713l-.482-3.536a13.241 13.241 0 0 0-3.469-5.868" transform="translate(-5.534 -10.551)" style="fill:#fff"/>
            <path data-name="패스 263" d="M214.512 251.143a3.672 3.672 0 0 1-.314-.357l2.109 2.692c-.666-.906-1.024-1.978-1.654-2.9-1.878-2.758-4.645-5.344-8.062-6.111l-3.585-.476a10.277 10.277 0 0 0-5.2 1.146 6.76 6.76 0 0 0-2.977 1.71 10.1 10.1 0 0 0-3.474 3.731L190 253.75a16.678 16.678 0 0 0 2.329 12.646 18.833 18.833 0 0 0 6.666 6.3 10.141 10.141 0 0 0 5.015 1.578 10.352 10.352 0 0 0 5.379-.237 10.213 10.213 0 0 0 4.588-2.38 10.105 10.105 0 0 0 3.475-3.732c1.654-3.086 2.483-6.826 1.36-10.248a13.458 13.458 0 0 0-6.2-7.949 6.36 6.36 0 0 1-.782-.477l2.73 2.08a6.112 6.112 0 0 1-.976-.957l2.109 2.691a6.1 6.1 0 0 1-.69-1.176l1.36 3.177a5.691 5.691 0 0 1-.347-1.314L191.358 264a16.06 16.06 0 0 1 .977 1.788 7.915 7.915 0 0 0 .471.827 26.11 26.11 0 0 0 2.629 3.338 10.121 10.121 0 0 0 4.341 2.75 12.359 12.359 0 0 0 10.4 0 10.121 10.121 0 0 0 4.341-2.75c2.36-2.534 4.112-5.861 3.951-9.4l-.482-3.536a13.24 13.24 0 0 0-3.469-5.868" transform="translate(-5.468 -10.383)" style="fill:#fff"/>
            <path data-name="패스 264" d="M211.9 247.338c2.612 3.294.446.414-.04-.4a34.699 34.699 0 0 1-1.249-2.329c-.454-.921-1.365-3.74-.044.07-.328-.949-.767-1.875-1.14-2.808-1.33-3.332-2.951-6.075-6.2-7.948a13.948 13.948 0 0 0-10.4-1.341c-3.264 1.042-6.413 3.036-8.062 6.112-1.8 3.364-1.941 6.513-1.36 10.248.575 3.7 2.614 7.16 4.79 10.17 2.084 2.886 4.488 5.141 8.062 6.112a13.962 13.962 0 0 0 10.4-1.341c5.689-3.616 9.217-12.136 4.839-18.2-.71-.983-1.353-1.99-2.013-3-1.122-1.724.588 1.245.442 1.248-.186 0-.48-1.94-.5-2.059l-26.015 7.071c1.222 3.06 2.445 6.134 3.9 9.093a45.469 45.469 0 0 0 5.507 8.116c1.977 2.494 6.5 3.9 9.539 3.9a13.826 13.826 0 0 0 9.539-3.9c2.36-2.534 4.112-5.861 3.951-9.4-.17-3.759-1.621-6.467-3.951-9.4" transform="translate(-5.283 -9.877)" style="fill:#fff"/>
            <path data-name="패스 265" d="M209.592 244.358c-.579-1.589-.683-3.3-1.329-4.869a9.958 9.958 0 0 0-2.414-4.522 12.118 12.118 0 0 0-8.8-5 10.353 10.353 0 0 0-5.379.237c-3.264 1.041-6.413 3.035-8.062 6.111l-1.36 3.177a13.205 13.205 0 0 0 0 7.072c.646 1.569.749 3.278 1.328 4.868a14.272 14.272 0 0 0 6.2 7.949 10.141 10.141 0 0 0 5.015 1.578 10.352 10.352 0 0 0 5.379-.237c3.264-1.042 6.413-3.035 8.062-6.111 1.622-3.028 2.577-6.9 1.36-10.248" transform="translate(-5.244 -9.776)" style="fill:#fff"/>
            <path data-name="패스 266" d="M181.695 243.333a2.661 2.661 0 0 0-.012.431 30.76 30.76 0 0 0 .527 3.9 9.966 9.966 0 0 0 2.414 4.523 12.118 12.118 0 0 0 8.8 5 10.352 10.352 0 0 0 5.379-.237l3.222-1.34a13.462 13.462 0 0 0 4.84-4.771l1.36-3.178a13.221 13.221 0 0 0 0-7.071 2.787 2.787 0 0 1-.029-.183l.482 3.536a2.9 2.9 0 0 1 0-.616 14.686 14.686 0 0 0-3.951-9.4 10.124 10.124 0 0 0-4.342-2.75 10.276 10.276 0 0 0-5.2-1.146l-3.586.476a13.524 13.524 0 0 0-5.953 3.42l-2.109 2.691a13.1 13.1 0 0 0-1.841 6.713" transform="translate(-5.241 -9.789)" style="fill:#fff"/>
            <path data-name="패스 267" d="m207.72 239.512-1.43-4.186c-1.835-5.374-6.9-10.034-13.009-9.764a16.171 16.171 0 0 0-6.808 1.815c-3.3 1.719-4.837 4.75-6.2 7.949a14.047 14.047 0 0 0-.667 4.332l26.5-3.536a73.986 73.986 0 0 0-3.267-7.731c-1.395-2.864-5.056-5.3-8.062-6.111a13.957 13.957 0 0 0-10.4 1.34c-2.88 1.831-5.416 4.557-6.2 7.948a14.715 14.715 0 0 0 1.36 10.248q.482.988.92 1.994l-1.36-3.177c.354.845.682 1.7.987 2.56 1.112 3.15 3.087 6.327 6.2 7.948a14.073 14.073 0 0 0 8.6 1.578c6.821-.9 11.33-6.378 11.7-13.061l.022-.415-.482 3.536.163-.383h-26.013l1.43 4.186a14.131 14.131 0 0 0 6.2 7.949 13.949 13.949 0 0 0 10.394 1.34c3.264-1.042 6.413-3.035 8.063-6.111s2.519-6.854 1.36-10.248" transform="translate(-5.129 -9.441)" style="fill:#fff"/>
            <path data-name="패스 268" d="m203.4 225.554-.517-2.488a9.976 9.976 0 0 0-2.414-4.523 12.127 12.127 0 0 0-8.8-5 10.372 10.372 0 0 0-5.379.237l-3.222 1.341a13.467 13.467 0 0 0-4.839 4.771l-1.361 3.177a13.224 13.224 0 0 0 0 7.072q.188 1.357.468 2.7a9.967 9.967 0 0 0 2.414 4.522 12.123 12.123 0 0 0 8.8 5 10.353 10.353 0 0 0 5.379-.237l3.222-1.34a13.462 13.462 0 0 0 4.84-4.771l1.36-3.177a13.224 13.224 0 0 0 0-7.072q-.28-1.341-.468-2.7l-26.016 7.072.517 2.487a9.975 9.975 0 0 0 2.414 4.523 12.123 12.123 0 0 0 8.8 5 10.352 10.352 0 0 0 5.379-.237l3.222-1.34a13.463 13.463 0 0 0 4.84-4.771q.679-1.59 1.36-3.178a13.2 13.2 0 0 0 0-7.071" transform="translate(-5.089 -9.077)" style="fill:#fff"/>
            <path data-name="패스 269" d="M190.191 243.331a13.3 13.3 0 1 0-13.49-13.3 13.606 13.606 0 0 0 13.49 13.3" transform="translate(-5.098 -9.223)" style="fill:#fff"/>
            <path data-name="패스 270" d="M202.836 225.3q-.776-4.2-1.554-8.391c-.552-2.983-3.527-6.557-6.2-7.948a14.078 14.078 0 0 0-8.6-1.579 13.356 13.356 0 0 0-11.7 13.062c-.015 3.207.946 6.139 1.473 9.241l-.482-3.536.066.577 25.137-6.713a33.374 33.374 0 0 0-.244-.5l1.361 3.178a12.589 12.589 0 0 1-.785-2.675l.482 3.536a12.465 12.465 0 0 1-.035-2.783c.316-3.2-1.732-7.217-3.951-9.4a13.8 13.8 0 0 0-9.539-3.9c-3.489.154-7.108 1.284-9.539 3.9a14.986 14.986 0 0 0-3.952 9.4c-.443 4.486.982 8.7 2.9 12.675l2.109 2.691a10.127 10.127 0 0 0 4.342 2.75 13.117 13.117 0 0 0 8.783.67 16.1 16.1 0 0 0 5.952-3.42c2.223-2.012 4.3-6.37 3.952-9.4-.338-2.968-1.09-5.743-1.5-8.667l.482 3.536a7.244 7.244 0 0 1-.04-1.152l-26.5 3.536 1.553 8.39c.577 3.114 3.524 6.405 6.2 7.949a13.949 13.949 0 0 0 10.394 1.34c3.264-1.042 6.413-3.035 8.062-6.111a14.773 14.773 0 0 0 1.36-10.248" transform="translate(-5.04 -8.82)" style="fill:#fff"/>
            <path data-name="패스 271" d="M172.76 203.039a51.153 51.153 0 0 0 .6 15.284c1.395 6.468 8.548 10.355 14.8 9.527a13.389 13.389 0 0 0 11.7-13.062 116.5 116.5 0 0 0-.16-13.087c-.32-3.59-1.29-6.78-3.951-9.4a13.809 13.809 0 0 0-9.539-3.9c-6.78.3-14.153 5.878-13.49 13.3a116.738 116.738 0 0 1 .16 13.087l26.5-3.536c-.665-3.081-.061 2.865-.026-.288.011-.975-.014-1.936.03-2.912.074-1.673.231-3.343.361-5.012.544-6.953-6.592-13.6-13.489-13.3-7.774.344-12.909 5.852-13.49 13.3" transform="translate(-4.976 -8.017)" style="fill:#fff"/>
            <path data-name="패스 272" d="M184.76 215.12a13.3 13.3 0 1 0-13.49-13.3 13.606 13.606 0 0 0 13.49 13.3" transform="translate(-4.941 -8.023)" style="fill:#fff"/>
            <path data-name="패스 273" d="m171.872 206.184.15.429a9.968 9.968 0 0 0 2.414 4.522 12.123 12.123 0 0 0 8.8 5 10.352 10.352 0 0 0 5.379-.237l3.222-1.34a13.462 13.462 0 0 0 4.84-4.771l1.36-3.177a13.224 13.224 0 0 0 0-7.072l-.15-.428a9.975 9.975 0 0 0-2.414-4.523 12.123 12.123 0 0 0-8.8-5 10.352 10.352 0 0 0-5.379.237l-3.222 1.34a13.462 13.462 0 0 0-4.84 4.771l-1.36 3.178a13.2 13.2 0 0 0 0 7.071" transform="translate(-4.945 -8.058)" style="fill:#fff"/>
            <path data-name="패스 274" d="M197.332 196.189q-2.168 6.672-.442 2.363a15.9 15.9 0 0 0 1.064-2.788 22.919 22.919 0 0 0 .585-6.041c-.586-11.822-14.174-17.136-23.029-9.4l-.726.635 22.546 5.868-.21-.666a13.528 13.528 0 0 0-11.215-9.527c-5.039-.667-11.023 1.629-13.441 6.35l-.239.466 25.137 6.712a68.243 68.243 0 0 0-.064-12c-.643-6.908-5.743-13.642-13.489-13.3-7.133.315-13.71 5.85-13.49 13.3.115 3.889.2 7.825.611 11.7.856 8.091 5.829 14.771 14.8 14.826 7.057.043 13.815-6.148 13.49-13.3a13.636 13.636 0 0 0-13.49-13.3h-.569l9.539 3.9-.458-.383q1.734 2.936 3.469 5.869c.334 1.35.082 1.025.012-.2-.061-1.083-.135-2.165-.191-3.248-.1-1.95-.174-3.9-.232-5.853h-26.98a68.241 68.241 0 0 1 .064 12c-1.078 13.087 19.245 18.213 25.138 6.713l.239-.466-24.661-3.193.21.667c3.119 9.913 14.889 12.555 22.547 5.868l.726-.635-23.029-9.4q-.054 2.733.5-.423 1.222-4.149-.919 1.5a17.326 17.326 0 0 0-.791 5.392c.043 6.955 6.174 13.623 13.489 13.3 7.273-.322 13.536-5.845 13.49-13.3" transform="translate(-4.914 -7.015)" style="fill:#fff"/>
            <path data-name="패스 275" d="M185.793 184.949q.326 2.6.7 5.2.7 2.918.184.753c.172 2.21.048 4.461.135 6.676a91.789 91.789 0 0 0 1.96 15.879c3.253 14.978 26.228 11.136 26.5-3.535q.031-1.614.059-3.227l-26.5 3.536.454 1.248c4.634 12.75 21.254 12.425 26.016 0l.219-.574H189.5q.144.5.29.995c4.082 13.961 27.49 11.876 26.5-3.536q-.3-4.6-.593-9.2L189.2 202.7c-.132-.823-.24 2.937-.241 2.957h26.98c-.373-4.759.44-9.323.415-14.048-.029-5.295-1.057-10.518-1.021-15.834.048-7.187-6.235-13.3-13.49-13.3a13.575 13.575 0 0 0-13.489 13.3c-.036 5.317.992 10.539 1.021 15.834.025 4.72-.787 9.295-.415 14.048.561 7.162 5.8 13.3 13.49 13.3 7.6 0 13.129-6.1 13.489-13.3a46.91 46.91 0 0 0-.723-10.027c-1.037-6.442-8.831-10.411-14.8-9.527-6.243.926-12.129 6.356-11.7 13.062q.3 4.6.593 9.2l26.5-3.536-.291-.994a13.751 13.751 0 0 0-13.008-9.764c-6.3 0-10.887 4.23-13.008 9.764l-.22.574H215.3l-.455-1.249c-2.258-6.212-7.871-10.554-14.8-9.527a13.4 13.4 0 0 0-11.7 13.062l-.059 3.227 26.5-3.536c-1.491-6.865-1.2-15.146-2.01-21.437-.912-7.125-5.547-13.3-13.489-13.3-6.581 0-14.409 6.124-13.49 13.3" transform="translate(-5.358 -6.914)" style="fill:#fff"/>
            <path data-name="패스 276" d="M202.828 189.847a13.3 13.3 0 1 0-13.49-13.3 13.606 13.606 0 0 0 13.49 13.3" transform="translate(-5.462 -6.947)" style="fill:#fff"/>
            <path data-name="패스 277" d="M189.557 178q.58-2.249-.048.14-.246 1.5-.434 3.009a7.523 7.523 0 0 0-.135 3.159q.708 5.69.408 2.776c.714 6.9 5.693 13.644 13.49 13.3 6.757-.3 14.178-5.881 13.489-13.3a39.622 39.622 0 0 1-.12-5.711h-26.98c-.141 5.531-.614 11.171-.01 16.683.756 6.894 5.663 13.645 13.49 13.3 6.658-.294 14.3-5.892 13.49-13.3-.605-5.511-.132-11.153.009-16.683.178-6.96-6.331-13.616-13.489-13.3a13.69 13.69 0 0 0-13.49 13.3 39.619 39.619 0 0 0 .12 5.711h26.98q-.233-2.473-.625-4.928-.587 4.853-.014 2.441a19.375 19.375 0 0 0 .848-6.6c-.248-6.945-6.027-13.629-13.489-13.3-7.1.314-13.756 5.852-13.49 13.3" transform="translate(-5.448 -7.009)" style="fill:#fff"/>
            <path data-name="패스 278" d="M203.327 214.677a13.3 13.3 0 1 0-13.49-13.3 13.606 13.606 0 0 0 13.49 13.3" transform="translate(-5.477 -8.004)" style="fill:#fff"/>
            <path data-name="패스 279" d="M203.216 215.286a13.3 13.3 0 1 0-13.49-13.3 13.606 13.606 0 0 0 13.49 13.3" transform="translate(-5.474 -8.03)" style="fill:#fff"/>
            <path data-name="패스 280" d="M203.216 216.395a13.3 13.3 0 1 0-13.49-13.3 13.606 13.606 0 0 0 13.49 13.3" transform="translate(-5.474 -8.077)" style="fill:#fff"/>
            <path data-name="패스 281" d="M203.216 216.561a13.3 13.3 0 1 0-13.49-13.3 13.606 13.606 0 0 0 13.49 13.3" transform="translate(-5.474 -8.084)" style="fill:#fff"/>
            <path data-name="패스 282" d="M216.087 168.128c-.909-6.728-.643-13.36-1.237-20.072-.844-9.524-3.622-17.273-13.974-19.695-7.084-1.657-14.616 2.19-16.6 9.288-1.881 6.751 2.3 14.695 9.422 16.361q2.567.734-.386-.476l-4.84-4.772c-1.191-2.521-.441 1.11-.449 1.636-.026 1.636-.058 3.279-.061 4.916a94.488 94.488 0 0 0 1.14 12.813c.961 7.119 5.511 13.3 13.489 13.3 6.542 0 14.459-6.129 13.49-13.3" transform="translate(-5.304 -5.446)" style="fill:#fff"/>
            <path data-name="패스 283" d="M209.258 129.042a18.132 18.132 0 0 0-8.767-1.225 7.929 7.929 0 0 0-5.11 2.087 7.188 7.188 0 0 0-2.117 5.038c.169 3.716 3.182 7.3 7.227 7.124 1.125-.05 2.251-.12 3.378-.144a4.069 4.069 0 0 1 1.409.026q-1.342-.2-.552-.011c.26.073.521.138.786.194a9.159 9.159 0 0 0 6.341-.731c2.539-1.423 3.468-3.782 3.785-6.482.437-3.716-3.635-7.283-7.226-7.125-4.289.19-6.759 3.144-7.226 7.125l-.023.192 3.58-6.152q6.357-.2 3.567-.834l-.552-.108a18.778 18.778 0 0 0-3.323-.35c-1.311-.014-2.632.09-3.942.148v14.25a15.364 15.364 0 0 1 1.611-.11c.27 0 .539 0 .808.024q.832.06-.584-.11c.832-.161 2.334.6 3.089.911 1.6.664 4.148.1 5.569-.718a7.276 7.276 0 0 0 3.32-4.258 7.123 7.123 0 0 0-.728-5.49 8.558 8.558 0 0 0-4.319-3.274" transform="translate(-5.576 -5.433)" style="fill:#fff"/>
            <path data-name="패스 284" d="M210.8 131.581a5.321 5.321 0 0 1 .131 1.937 21.574 21.574 0 0 0 .257 2.794 31.392 31.392 0 0 1 .327 5.007q-.087 5.615-.192 11.229c-.052 3.057 4.765 3.058 4.818 0 .069-4.032.185-8.065.2-12.1a49.681 49.681 0 0 0-.523-5.565c-.215-2-.01-3.8-.859-5.7a2.445 2.445 0 0 0-3.3-.852 2.415 2.415 0 0 0-.864 3.25" transform="translate(-6.073 -5.448)" style="fill:#fff"/>
            <path data-name="패스 285" d="M214.134 156.407c3.1 0 3.1-4.75 0-4.75s-3.1 4.75 0 4.75" transform="translate(-6.111 -6.454)" style="fill:#fff"/>
            <path data-name="패스 286" d="M211.691 154.1a59.961 59.961 0 0 1 .094 10 32.949 32.949 0 0 0 .61 10.033 2.407 2.407 0 0 0 4.646-1.263 29.75 29.75 0 0 1-.406-9.11 57.979 57.979 0 0 0-.126-9.664 2.451 2.451 0 0 0-2.409-2.374 2.412 2.412 0 0 0-2.408 2.374" transform="translate(-6.106 -6.457)" style="fill:#fff"/>
            <path data-name="패스 287" d="M170.292 139.862c.014.067.136.765.077.373s.024.306.029.376c.024.348.033.7.03 1.045-.006.791-.072 1.58-.143 2.368a23.6 23.6 0 0 0-.136 4.654 2.553 2.553 0 0 0 .705 1.678 2.461 2.461 0 0 0 1.7.7c1.193-.053 2.55-1.051 2.409-2.374a24.646 24.646 0 0 1 .152-4.83 17.848 17.848 0 0 0-.181-5.249 2.407 2.407 0 0 0-4.646 1.263" transform="translate(-4.907 -5.824)" style="fill:#fff"/>
            <path data-name="패스 288" d="m183.862 129.338-3.881.988-1.907.485c-.309.079-.622.148-.928.237a3.014 3.014 0 0 0-1.76 1.3 2.377 2.377 0 0 0 .864 3.25 2.483 2.483 0 0 0 3.3-.852l.048-.071-.378.481.066-.055-.488.371.078-.041-.574.239c.534-.194 1.118-.3 1.67-.437l1.7-.434 3.472-.884a2.4 2.4 0 0 0 1.68-2.915 2.46 2.46 0 0 0-2.962-1.658" transform="translate(-5.05 -5.501)" style="fill:#fff"/>
            <path data-name="패스 289" d="M219.177 102.2c4.34 0 4.347-6.649 0-6.649s-4.347 6.649 0 6.649" transform="translate(-6.229 -4.066)" style="fill:#fff"/>
            <path data-name="패스 290" d="M213.773 106.768c4.34 0 4.347-6.649 0-6.649s-4.347 6.649 0 6.649" transform="translate(-6.073 -4.261)" style="fill:#fff"/>
            <path data-name="패스 291" d="M217.764 103.276c4.34 0 4.347-6.649 0-6.649s-4.347 6.649 0 6.649" transform="translate(-6.189 -4.112)" style="fill:#fff"/>
            <path data-name="패스 292" d="M216.6 104.69c4.34 0 4.347-6.649 0-6.649s-4.347 6.649 0 6.649" transform="translate(-6.155 -4.172)" style="fill:#fff"/>
            <path data-name="패스 293" d="M213.649 98.587a58.9 58.9 0 0 1-5.829 3.556 3.344 3.344 0 0 0-1.21 4.55 3.457 3.457 0 0 0 4.615 1.192 58.881 58.881 0 0 0 5.828-3.556 3.387 3.387 0 0 0 1.21-4.549 3.428 3.428 0 0 0-4.614-1.193" transform="translate(-5.948 -4.175)" style="fill:#fff"/>
            <path data-name="패스 294" d="M212.784 92.9a4.83 4.83 0 0 0 1.738 1.79c-.015-.007.455.253.381.19-.5-.42-.231-.332-.1.268a6.805 6.805 0 0 0 .523 2q.095.645.17-.225.322-.767-.064-.343c-.21.017-.681.687-.772.8a3.4 3.4 0 0 0 0 4.7c1.164 1.148 3.645 1.425 4.769 0 .843-1.068 1.918-1.739 2.372-3.1a7.137 7.137 0 0 0-.1-4.123 15.474 15.474 0 0 0-1.051-3.325 5.521 5.521 0 0 0-.973-1.362q-.5-.4-1.015-.78-.72-.514-.05.147c-2.322-3.6-8.162-.27-5.824 3.356" transform="translate(-6.123 -3.745)" style="fill:#fff"/>
            <path data-name="패스 295" d="M211.362 107.932c4.34 0 4.347-6.649 0-6.649s-4.347 6.649 0 6.649" transform="translate(-6.004 -4.31)" style="fill:#fff"/>
            <path data-name="패스 296" d="M192.808 106.052c-.962 6.411-2.886 13.419-2.439 19.91.293 4.247 7.04 4.279 6.746 0-.409-5.921 1.319-12.287 2.2-18.143.628-4.186-5.87-5.993-6.5-1.767" transform="translate(-5.49 -4.411)" style="fill:#fff"/>
            <path data-name="패스 297" d="M194.042 112.332a63.755 63.755 0 0 1-1.329 14.4c-.741 4.186 5.759 5.983 6.5 1.768.948-5.355 1.843-10.714 1.567-16.168-.214-4.259-6.961-4.285-6.744 0" transform="translate(-5.558 -4.644)" style="fill:#fff"/>
            <path data-name="패스 298" d="M199.693 100.056c-2.512 4.611-5.736 9.212-6.211 14.54-.254 2.844 3.885 4.427 5.757 2.351l.361-.4c2.876-3.188-1.878-7.908-4.769-4.7l-.361.4 5.757 2.351c.345-3.857 3.472-7.844 5.291-11.184 2.054-3.769-3.767-7.131-5.824-3.356" transform="translate(-5.582 -4.188)" style="fill:#fff"/>
            <path data-name="패스 299" d="m196.973 109.81-1.114 2.162 6.164 2.562a3.274 3.274 0 0 1 2.127-2.022l-4.614-4.549-.529.866c-1.97 3.228 2.608 6.742 5.3 4.029 2.486-2.507 5.767-3.488 8.106-6.367 2.141-2.636 5.621-6.346 6.249-9.749a5.435 5.435 0 0 0-3.327-6.21c-.347-.125-1.888 0-2.045-.262.471.773 1.137-2.11 1.152-2.174a5.2 5.2 0 0 0-.487-3.763 3.316 3.316 0 0 0-2.912-1.646 19.633 19.633 0 0 0-7.388 1.946 3.439 3.439 0 0 0-1.55 3.754c.119.743.769 1.192.926 1.832.325 1.329.9-.959-1.146 1.088-1.681 1.685-1.063 5.046 1.489 5.557q1.378.254 2.739.587l-1.67-2.87c-.028.343-1.744 1.828-1.969 2.55a3.488 3.488 0 0 0 .235 2.863c1.223 2.261 3.834 2.024 6.046 2.038l-1.7-6.2c-2.792 1.775-7.059 3.54-7.445 7.255a4.429 4.429 0 0 0 5.039 4.931c3.316-.452 5.473-3.992 6.121-6.934a14.885 14.885 0 0 0-.2-6.134c-.3-1.458-2.757-6.9-1.692-8.044 2.933-3.146-1.825-7.862-4.769-4.7-2.125 2.279-2.233 4.643-1.762 7.639.166 1.058 3.251 11.769 1.046 11.48l2.912 1.647q-.118 2.169 1.528.273l2.624-1.668a3.344 3.344 0 0 0-1.7-6.2q-1.974-.484-.75.581l.867 3.235c.61-1.742 2.136-2.457 2.314-4.618a3.251 3.251 0 0 0-1.669-2.871 14.824 14.824 0 0 0-4.351-1.257l1.489 5.557c1.638-1.643 3.75-3.207 3.734-5.706a4.745 4.745 0 0 0-.7-2.456c-.278-.5-1.261-2.368-1.078-1.226l-1.549 3.755a15.214 15.214 0 0 1 3.983-1.038l-2.912-1.647c-.219-.409-1.02 3.11-.982 3.579a6.568 6.568 0 0 0 .968 3.068c1.536 2.416 3.719 2.4 6.32 2.727l-2.384-.974.827.876-.988-2.351c.265 2.284-4.24 7.506-5.79 8.949-1.987 1.848-4.621 2.632-6.566 4.593l5.3 4.029.529-.866c1.759-2.88-1.723-6.189-4.614-4.549-2.677 1.518-4.341 3.065-5.227 6-1.073 3.553 4.41 5.966 6.164 2.562l1.114-2.163c1.962-3.807-3.855-7.176-5.824-3.356" transform="translate(-5.637 -3.454)" style="fill:#fff"/>
            <path data-name="패스 300" d="m191.088 88.384.287 12.02c.149 6.221 9.913 8 11.357 1.516a93.089 93.089 0 0 1 3.226-11.836c1.06-2.9-1.194-6.241-4.038-7.011a5.912 5.912 0 0 0-7.112 3.981 93.079 93.079 0 0 0-3.226 11.835l11.356 1.516-.287-12.02c-.175-7.323-11.738-7.35-11.563 0" transform="translate(-5.513 -3.526)" style="fill:#fff"/>
            <path data-name="패스 301" d="M263.246 219.906c2.664 3.892 6.1 3.865 10.546 3.96q8.194.172 16.392.163 15.916-.018 31.816-.729c7.412-.32 7.452-11.721 0-11.4q-13.007.56-26.026.694-6.267.057-12.536.007c-4.119-.033-9.113.595-13.116-.281l3.455 2.62-.542-.792c-4.14-6.05-14.161-.351-9.984 5.753" transform="translate(-7.566 -9.004)" style="fill:#fff"/>
            <path data-name="패스 302" d="M298.05 115.651a105.346 105.346 0 0 0 1.48 15.223c.4 2.431 3.234 4.185 5.574 4.185 2.743 0 4.606-1.828 5.575-4.185.681-1.657 1.228-3.937 2.287-5.324l-6.529 2.62.356.109-3.455-2.62a34.207 34.207 0 0 1 1.68 4.5 5.824 5.824 0 0 0 11.356-1.516 3.667 3.667 0 0 1 .728-2.112l-10.567-1.361 2.357 6.442L316 124.6c-2.124-.3-5.917-.972-7.211-2.718a13.7 13.7 0 0 1-.882-2.3 9.688 9.688 0 0 0-.671-1.4q-.819 4.451.164 2.769c1.557-1.041 1.339-4.8.96-6.117-1.755-6.085-11.516-5.033-11.357 1.516l.3 12.44 11.356-1.515a12.658 12.658 0 0 1-.237-2.5c-.175-7.323-11.738-7.35-11.563 0a32.267 32.267 0 0 0 .651 5.526c1.264 6.34 11.511 4.848 11.357-1.516l-.3-12.44-11.356 1.515.139.484v-3.03c.108-.53.215-.347-.1.134a8.468 8.468 0 0 0-.9 1.881 7.083 7.083 0 0 0-.145 4.409 21.644 21.644 0 0 0 1.27 2.708 25.859 25.859 0 0 0 1.76 3.922c2.825 4.247 8.764 6.522 13.684 7.227 3.913.56 8.779-2.455 7.112-7.011l-2.357-6.443a5.9 5.9 0 0 0-10.567-1.361c-1.65 2.378-2.015 5.067-2.306 7.866l11.356-1.515c-1.417-3.82-2.222-8.59-6.656-9.955-2.666-.821-5 .62-6.529 2.619-1.637 2.145-2.428 5.553-3.452 8.048h11.15a84.353 84.353 0 0 1-1.067-12.193c-.148-7.326-11.711-7.35-11.563 0" transform="translate(-8.538 -4.688)" style="fill:#fff"/>
            <path data-name="패스 303" d="m163.281 50.856 3.075 10.754-10.249-3.305S141.01 69.988 124 62.571c-18.8-8.2-21.3-25.835-21.054-30.308S103.963 3.324 132.184.791s46.236 20.383 31.1 50.065" transform="translate(-2.97 -.026)" style="stroke:transparent;fill:#fff"/>
            <path data-name="패스 304" d="m163.281 50.856 3.075 10.754-10.249-3.305S141.01 69.988 124 62.571c-18.8-8.2-21.3-25.835-21.054-30.308S103.963 3.324 132.184.791s46.236 20.384 31.097 50.065z" transform="translate(-2.97 -.026)" style="stroke-dasharray:6 6;stroke-width:1.2px;stroke-linecap:round;stroke-linejoin:round;stroke:#000;fill:none"/>
            <path data-name="패스 305" d="M132.96 17.198c-.729.033-17.156 19.257-17.156 19.257l7.307-.082.258 11.039 23.114-.782-.049-11.77 6.81-.3-7.467-8.8-.183-9.362-7.306.083-.489 5.307z"/>
            <path data-name="패스 306" d="M136.4 17.927c-.729.033-17.156 19.257-17.156 19.257l7.307-.082.258 11.039 23.114-.782-.049-11.77 6.81-.3-7.467-8.8-.183-9.362-7.306.083-.489 5.307z" transform="translate(-3.44 -.729)" style="stroke-linecap:round;stroke-linejoin:round;stroke:#000;fill:none"/>
            <path data-name="패스 307" d="m135.463 36.895-.3 5.589h6.266l-.3-5.736z" transform="translate(-3.9 -1.564)" style="fill:#fff"/>
            <path data-name="패스 308" d="M44.667 66.577s-14.138 8.873-28.27.987C.776 58.848.138 43.31.745 39.443s3.4-25.062 28.148-24.871S67.294 36.2 51.55 60.713c0 0-3.432 4.626-6.884 5.864" transform="translate(-.017 -.62)" style="stroke:transparent;fill:#fff"/>
            <path data-name="패스 309" d="M44.667 66.577s-14.138 8.873-28.27.987C.776 58.848.138 43.31.745 39.443s3.4-25.062 28.148-24.871S67.294 36.2 51.55 60.713c0 0-3.432 4.626-6.883 5.864z" transform="translate(-.017 -.62)" style="stroke-dasharray:6 6;stroke-width:1.2px;stroke-linecap:round;stroke-linejoin:round;stroke:#000;fill:none"/>
            <path data-name="패스 310" d="M31.016 35.44s6.945 6.524 8.469 8.764c1.683 2.471 1.844 7.681-1.724 9.459-3.23 1.609-14.189 3.1-17.692 1.483-3.569-1.653-4.359-4.488-2.661-8.65s6.9-10.611 6.9-10.611z"/>
            <path data-name="패스 311" d="M31.508 37.015s6.945 6.524 8.469 8.764c1.683 2.471 1.844 7.681-1.724 9.459-3.23 1.609-14.189 3.1-17.692 1.483-3.569-1.653-4.359-4.488-2.661-8.65s6.9-10.611 6.9-10.611z" transform="translate(-.492 -1.575)" style="stroke-miterlimit:10;stroke-width:1.2px;stroke:#000;fill:none"/>
            <path data-name="패스 312" d="M32.023 35.116s6.011-7.189 4.8-8.376-4 .3-5.9 1.785c-2.37 1.853-5.045 1.57-8.04.533a5.441 5.441 0 0 0-3.986.081.911.911 0 0 0-.343 1.4l5.226 6.65s4.285 2.5 8.246-2.078" transform="translate(-.529 -1.12)" style="fill:#fff"/>
            <path data-name="패스 313" d="M32.023 35.116s6.011-7.189 4.8-8.376-4 .3-5.9 1.785c-2.37 1.853-5.045 1.57-8.04.533a5.441 5.441 0 0 0-3.986.081.911.911 0 0 0-.343 1.4l5.226 6.65s4.282 2.511 8.243-2.073z" transform="translate(-.529 -1.12)" style="stroke-width:1.2px;stroke-linecap:round;stroke-linejoin:round;stroke:#000;fill:none"/>
            <path data-name="선 12" transform="translate(27.932 33.273)" style="fill:#fff" d="M.807 0 0 3.009"/>
            <path data-name="선 13" transform="translate(27.932 33.273)" style="stroke-width:1.2px;stroke-linecap:round;stroke-linejoin:round;stroke:#000;fill:none" d="M.807 0 0 3.009"/>
            <path data-name="패스 314" d="M25.792 34.25s2.106 3.726 2.373 3.659" transform="translate(-.744 -1.458)" style="fill:#fff"/>
            <path data-name="패스 315" d="M25.792 34.25s2.106 3.726 2.373 3.659" transform="translate(-.744 -1.458)" style="stroke-width:1.2px;stroke-linecap:round;stroke-linejoin:round;stroke:#000;fill:none"/>
            <path data-name="패스 316" d="m32.612 43.785-2.061 5.936-2.143-5.343-2.283 5.8-2.526-6.083"/>
            <path data-name="패스 317" d="m33.313 45.731-2.061 5.936-2.143-5.343-2.283 5.8-2.526-6.083" transform="translate(-.701 -1.946)" style="stroke:#fff;stroke-width:1.2px;stroke-linecap:round;stroke-linejoin:round;fill:none"/>
            <path data-name="선 14" d="m34.78 45.573-12.218.371"/>
            <path data-name="선 15" transform="translate(22.562 45.573)" style="stroke:#fff;stroke-width:1.2px;stroke-linecap:round;stroke-linejoin:round;fill:none" d="M12.218 0 0 .371"/>
            <path data-name="패스 318" d="m114.62 112.535 15.186 1-7.247-12.361s11.387-22.8-3.212-42.775c-16.136-22.08-40.338-20.434-46.231-18.87s-38.291 9.336-33.844 46.6 39.983 54.25 75.348 26.409" transform="translate(-1.121 -1.647)" style="stroke:transparent;fill:#fff"/>
            <path data-name="패스 319" d="m114.62 112.535 15.186 1-7.247-12.361s11.387-22.8-3.212-42.775c-16.136-22.08-40.338-20.434-46.231-18.87s-38.291 9.336-33.844 46.6 39.984 54.246 75.348 26.406z" transform="translate(-1.121 -1.647)" style="stroke-dasharray:6 6;stroke-width:1.2px;stroke-linecap:round;stroke-linejoin:round;stroke:#000;fill:none"/>
            <path data-name="패스 320" d="m62.323 79.381-.738 25.1h7.933l.738-25.466z" transform="translate(-1.777 -3.363)" style="fill:#fff"/>
            <path data-name="패스 321" d="m62.323 79.381-.738 25.1h7.933l.738-25.466z" transform="translate(-1.777 -3.363)" style="stroke-width:1.2px;stroke-linecap:round;stroke-linejoin:round;stroke:#000;fill:#fff"/>
            <path data-name="패스 322" d="m77.346 73.2-.946 31.016h10.132l.942-31.469z" transform="translate(-2.204 -3.096)" style="fill:#fff"/>
            <path data-name="패스 323" d="m77.346 73.2-.946 31.016h10.132l.942-31.469z" transform="translate(-2.204 -3.096)" style="stroke-width:1.2px;stroke-linecap:round;stroke-linejoin:round;stroke:#000;fill:#fff"/>
            <path data-name="패스 324" d="m93.937 59.521-1.005 44.287h10.8l1.005-44.928z" transform="translate(-2.681 -2.506)" style="fill:#fff"/>
            <path data-name="패스 325" d="m93.937 59.521-1.005 44.287h10.8l1.005-44.928z" transform="translate(-2.681 -2.506)" style="stroke-width:1.2px;stroke-linecap:round;stroke-linejoin:round;stroke:#000;fill:#fff"/>
            <path data-name="패스 326" d="m54.987 90.932 4.273 5.1 9.445-9.755 9.221 11.751 24.963-25.276 3.6 1.552-.223-13.747-14.172 2.438 3.372 3.77L78.601 82.95l-7.2-9.755z"/>
            <path data-name="패스 327" d="m56.621 93.624 4.273 5.1 9.445-9.755 9.221 11.751 24.963-25.276 3.6 1.552-.223-13.747-14.172 2.438 3.372 3.77-16.865 16.185-7.2-9.755z" transform="translate(-1.634 -2.692)" style="stroke-width:.5px;stroke-linecap:round;stroke-linejoin:round;stroke:#000;fill:none"/>
            <path data-name="패스 328" d="M299.314 21.983s-14.5-6.182-22.668.2c-4.93 3.851-9.468 9.071-9.23 17.05s-1.429 20.769-4.761 24.993-11.425 15.016-11.186 22.06 10.235 3.99 21.424 10.561a46.278 46.278 0 0 0 22.851 6.1l8.094.235s5.253.785 3.571-1.643c-3.333-4.811 8.807-4.459 13.33-6.806s23.09-6.571 23.8-13.612-4.509-32.779-9.042-42.479c-4.285-9.152-11.664-25.111-36.182-16.662"/>
            <path data-name="패스 329" d="M306.784 22.841s-14.5-6.182-22.668.2c-4.93 3.851-9.468 9.071-9.23 17.05s-1.429 20.769-4.761 24.993S258.7 80.1 258.939 87.144s10.235 3.99 21.424 10.561a46.278 46.278 0 0 0 22.851 6.1l8.094.235s5.253.785 3.571-1.643c-3.333-4.811 8.807-4.459 13.33-6.806s23.09-6.571 23.8-13.612S347.5 49.2 342.967 39.5c-4.285-9.148-11.667-25.107-36.183-16.659z" transform="translate(-7.47 -.858)" style="stroke-width:1.2px;stroke-linecap:round;stroke-linejoin:round;stroke:#000;fill:none"/>
            <path data-name="패스 330" d="M306.59 30.432c-2.1-.623-8.5-1.519-15.422 7.545a6.143 6.143 0 0 0-.688 1.153c-3.939 8.627-2.638 10.5-5.43 13.938-2.856 3.52-7.833 14.2-3.571 26.518 5.237 15.137 23.685 12.908 29.637 9.622s10.354-8.566 13.925-8.8 5.236 1.408 9.283-1.76c6.327-4.954 7.878-8.28 5.713-13.142-1.429-3.207-4.84-3.6-10.316-2.425s-6.585-.156-7.061-8.37c-.466-8.034-1.045-25.274-14.435-24.122a4.412 4.412 0 0 1-1.636-.157" transform="translate(-8.073 -1.28)" style="fill:#fff"/>
            <path data-name="패스 331" d="M306.59 30.432c-2.1-.623-8.5-1.519-15.422 7.545a6.143 6.143 0 0 0-.688 1.153c-3.939 8.627-2.638 10.5-5.43 13.938-2.856 3.52-7.833 14.2-3.571 26.518 5.237 15.137 23.685 12.908 29.637 9.622s10.354-8.566 13.925-8.8 5.236 1.408 9.283-1.76c6.327-4.954 7.878-8.28 5.713-13.142-1.429-3.207-4.84-3.6-10.316-2.425s-6.585-.156-7.061-8.37c-.466-8.034-1.045-25.274-14.435-24.122a4.412 4.412 0 0 1-1.635-.157z" transform="translate(-8.073 -1.28)" style="stroke-width:1.2px;stroke-linecap:round;stroke-linejoin:round;stroke:#000;fill:none"/>
            <path data-name="패스 332" d="M301.164 51.349c3.863-1.144 8.286 1.969 8.8 5.836l-.1.057a12.252 12.252 0 0 0-6.073-5.145 9.8 9.8 0 0 0-2.631-.633z"/>
            <path data-name="패스 333" d="M284.874 44.87c2.4-1.966 7.221-.108 7.7 2.776a9.854 9.854 0 0 0-7.667-2.665l-.028-.111"/>
            <path data-name="패스 334" d="m326.217 111.131-16.425-15.372-24.992-11.03.912 18.7s-2.222 2.347 4.126 6.571 20.154 12.048 25.391 13.3a97.722 97.722 0 0 0 6.189 12.2l2.539 4.615" transform="translate(-8.216 -3.606)" style="fill:#fff"/>
            <path data-name="패스 335" d="m326.217 111.131-16.425-15.372-24.992-11.03.912 18.7s-2.222 2.347 4.126 6.571 20.154 12.048 25.391 13.3a97.722 97.722 0 0 0 6.189 12.2l2.539 4.615" transform="translate(-8.216 -3.606)" style="stroke-width:1.2px;stroke-linecap:round;stroke-linejoin:round;stroke:#000;fill:none"/>
            <path data-name="패스 336" d="M301.607 61.415c-.739 1.969-2.153 3.27-3.157 2.9s-1.22-2.261-.481-4.23 2.153-3.27 3.157-2.9 1.22 2.261.481 4.23"/>
            <path data-name="패스 337" d="M288.376 53.512c-.692 1.845-2.017 3.063-2.958 2.72s-1.143-2.118-.45-3.964 2.017-3.063 2.958-2.719 1.142 2.118.45 3.963"/>
            <path data-name="패스 338" d="M288.948 59.573c-1.625 1.46-2.4 1.97-1.347 4.116a14.881 14.881 0 0 1 .826 2.062.053.053 0 0 1-.037.065c-1.521-1.218-3.686-3.913-1.483-5.511a4.06 4.06 0 0 1 2.082-.8c.009.032-.021.054-.042.072"/>
            <path data-name="패스 339" d="M290.756 73.983c-2.46 2.044-7.394.664-7.4-2.8-.013-.062.065-.112.1-.052 1.342 2.553 4.6 3.151 7.27 2.74.068-.009.085.086.023.113"/>
            <path data-name="패스 340" d="M294.762 128.277s-10.712 2.816-15.234 2.816" transform="translate(-8.064 -5.459)" style="fill:#fff"/>
            <path data-name="패스 341" d="M294.762 128.277s-10.712 2.816-15.234 2.816" transform="translate(-8.064 -5.459)" style="stroke-width:1.2px;stroke-linecap:round;stroke-linejoin:round;stroke:#000;fill:none"/>
            <path data-name="패스 342" d="M216.531 241.486s-.029-94.611-1.826-111.074a2.6 2.6 0 0 0-2.463-2.314c-9.525-.519-39.715-2.652-40.621-.041-.948 2.73-5.237 60.235 3.014 93.716s20.948 49.439 31.739 51S232.4 260.26 238.43 249c1.638-3.061 3.2-9.229 4.683-11.862 1.421-2.521 5.379 2.035 4.948 4.887-2.451 16.23-6.2 42.293-6.5 51.855a2.609 2.609 0 0 0 2.627 2.682h110.52a2.614 2.614 0 0 0 2.619-2.384l3.3-40.485" transform="translate(-4.895 -5.396)" style="stroke-width:1.2px;stroke-linecap:round;stroke-linejoin:round;stroke:#000;fill:none"/>
            <path data-name="패스 343" d="M249.405 120.315s-16.504 167.719-14.284 172.413h118.387l2.856-62.582s-12.378-84.172-12.378-89.491 3.015-39.074 2.222-42.516c-.642-2.784-10.633-.313-12.061 2.816-1.2 2.631-3.491 100.091-12.7 106.975s-57.126 8.762-61.886 1.562c-4.77-7.211.879-87.335-.952-89.179s-6.309-1.76-9.2 0"/>
            <path data-name="패스 344" d="M256.384 124.623S239.88 292.342 242.1 297.036h118.387l2.856-62.582s-12.378-84.172-12.378-89.491 3.015-39.074 2.222-42.516c-.642-2.784-10.633-.313-12.061 2.816-1.2 2.631-3.491 100.091-12.7 106.975S271.3 221 266.54 213.8c-4.77-7.211.879-87.335-.952-89.179s-6.308-1.757-9.204.002z" transform="translate(-6.979 -4.308)" style="stroke-width:1.2px;stroke-linecap:round;stroke-linejoin:round;stroke:#000;fill:none"/>
            <path data-name="패스 345" d="M301.443 97.293s-15.87-9.075-19.361-12.829.635-7.2 3.809-6.259 2.54 3.442 6.983 5.946 13.012 5.632 17.456 5.945 7.934-10.638 13.012-11.89 3.491 5.006.953 9.7-4.126 6.258-3.491 9.7 10.95 17.523 10.95 17.523 4.7 7.8 6.606 13.435-10.474 11.5-11.188 11.5" transform="translate(-8.1 -3.321)" style="fill:#fff"/>
            <path data-name="패스 346" d="M301.443 97.293s-15.87-9.075-19.361-12.829.635-7.2 3.809-6.259 2.54 3.442 6.983 5.946 13.012 5.632 17.456 5.945 7.934-10.638 13.012-11.89 3.491 5.006.953 9.7-4.126 6.258-3.491 9.7 10.95 17.523 10.95 17.523 4.7 7.8 6.606 13.435-10.474 11.5-11.188 11.5" transform="translate(-8.1 -3.321)" style="stroke-width:1.2px;stroke-linecap:round;stroke-linejoin:round;stroke:#000;fill:none"/>
            <path data-name="패스 347" d="M297.7 102.151s-7.3-4.693-12.537-7.51-1.269-6.727-1.269-6.727-.06-.294 3.689 1.525S300.8 97.3 300.8 97.3" transform="translate(-8.149 -3.741)" style="fill:#fff"/>
            <path data-name="패스 348" d="M297.7 102.151s-7.3-4.693-12.537-7.51-1.269-6.727-1.269-6.727-.06-.294 3.689 1.525S300.8 97.3 300.8 97.3" transform="translate(-8.149 -3.741)" style="stroke-width:1.2px;stroke-linecap:round;stroke-linejoin:round;stroke:#000;fill:none"/>
            <path data-name="패스 349" d="M296.161 108.752c-3.809-1.408-7.618-4.85-10.791-7.822s.159-5.006.159-5.006 8.887 4.693 12.219 6.571" transform="translate(-8.193 -4.082)" style="fill:#fff"/>
            <path data-name="패스 350" d="M296.161 108.752c-3.809-1.408-7.618-4.85-10.791-7.822s.159-5.006.159-5.006 8.887 4.693 12.219 6.571" transform="translate(-8.193 -4.082)" style="stroke-width:1.2px;stroke-linecap:round;stroke-linejoin:round;stroke:#000;fill:none"/>
            <path data-name="선 16" transform="translate(287.492 110.771)" style="fill:#fff" d="M.476 0 0 17.053"/>
            <path data-name="선 17" transform="translate(287.492 110.771)" style="stroke-width:1.2px;stroke-linecap:round;stroke-linejoin:round;stroke:#000;fill:none" d="M.476 0 0 17.053"/>
            <path data-name="패스 351" d="M375.3 117.37c4.761 15.019 30.75 100.3 31.422 103.377.7 3.207 3.766 17.122 4.151 23.357.2 3.24.222 5.1-.786 7.455-2.733 6.377-10.171 17.072-28.122 10.491-24.757-9.073-38.4-45.37-38.4-45.37l-31.421-73.22s31.738-14.706 32.691-15.332 40.625 69.153 50.147 95.124" transform="translate(-9.005 -4.995)" style="fill:#fff"/>
            <path data-name="패스 352" d="M375.3 117.37c4.761 15.019 30.75 100.3 31.422 103.377.7 3.207 3.766 17.122 4.151 23.357.2 3.24.222 5.1-.786 7.455-2.733 6.377-10.171 17.072-28.122 10.491-24.757-9.073-38.4-45.37-38.4-45.37l-31.421-73.22s31.738-14.706 32.691-15.332 40.625 69.153 50.147 95.124" transform="translate(-9.005 -4.995)" style="stroke-width:1.2px;stroke-linecap:round;stroke-linejoin:round;stroke:#000;fill:none"/>
            <path data-name="패스 353" d="M192.764 79.908s3.07-18.957 2.747-21.347 1.777-3.5 4.039-2.389 2.424 6.531 2.1 8.443S199.55 78 199.55 78" transform="translate(-5.561 -2.372)" style="fill:#fff"/>
            <path data-name="패스 354" d="M192.764 79.908s3.07-18.957 2.747-21.347 1.777-3.5 4.039-2.389 2.424 6.531 2.1 8.443S199.55 78 199.55 78" transform="translate(-5.561 -2.372)" style="stroke-width:1.2px;stroke-linecap:round;stroke-linejoin:round;stroke:#000;fill:none"/>
            <path data-name="패스 355" d="M190.24 124.6s-1.777-39.667-.485-42.057c1.1-2.027 22.46-5.894 22.46-5.894s3.232-1.114 3.393 1.752-3.554 4.142-9.21 5.735-10.18 3.027-10.18 3.027" transform="translate(-5.461 -3.253)" style="fill:#fff"/>
            <path data-name="패스 356" d="M190.24 124.6s-1.777-39.667-.485-42.057c1.1-2.027 22.46-5.894 22.46-5.894s3.232-1.114 3.393 1.752-3.554 4.142-9.21 5.735-10.18 3.027-10.18 3.027" transform="translate(-5.461 -3.253)" style="stroke-width:1.2px;stroke-linecap:round;stroke-linejoin:round;stroke:#000;fill:none"/>
            <path data-name="패스 357" d="M211.773 82.882a2.949 2.949 0 0 1 3.082 2.177c1.007 2.864-.671 4.286-2.772 4.923s-16.159 3.505-16.159 3.505" transform="translate(-5.652 -3.527)" style="stroke-width:1.2px;stroke-linecap:round;stroke-linejoin:round;stroke:#000;fill:none"/>
            <path data-name="패스 358" d="M212.223 90.3a32.849 32.849 0 0 1 .485 6.532 8.846 8.846 0 0 1-1.874 4.9c-.77.608-1.68.673-4.589.673a50.564 50.564 0 0 0-5.494.319" transform="translate(-5.792 -3.843)" style="stroke-width:1.2px;stroke-linecap:round;stroke-linejoin:round;stroke:#000;fill:none"/>
            <path data-name="패스 359" d="M200.584 125.073s.161-8.762 1.939-10.036 12.6-9.4 12.6-9.4 6.335-3.613 6.9-6.449c.4-2.018.324-3.416-.874-6.634a9.6 9.6 0 0 0-1.318-2.327c-.841-.985-3.35-3.061-4.846-2.534a4.629 4.629 0 0 0-2.516 5.874c.969 1.912 3.139 2.671 4.916 3.468" transform="translate(-5.787 -3.728)" style="stroke-width:1.2px;stroke-linecap:round;stroke-linejoin:round;stroke:#000;fill:none"/>
            <path data-name="패스 360" d="M205.065 95.957s-5.817.638-5.17 3.5 2.159 8.539 1.439 10.565a21.858 21.858 0 0 1-2.247 3.931" transform="translate(-5.744 -4.084)" style="stroke-width:1.2px;stroke-linecap:round;stroke-linejoin:round;stroke:#000;fill:none"/>
            <path data-name="패스 361" d="M215.533 94.842c3.72 0 3.726-5.7 0-5.7s-3.726 5.7 0 5.7" transform="translate(-6.138 -3.794)" style="fill:#fff"/>
            <path data-name="패스 362" d="M215.949 94.011c3.72 0 3.726-5.7 0-5.7s-3.726 5.7 0 5.7" transform="translate(-6.15 -3.758)" style="fill:#fff"/>
            <path data-name="패스 363" d="M215.949 93.928c3.72 0 3.726-5.7 0-5.7s-3.726 5.7 0 5.7" transform="translate(-6.15 -3.755)" style="fill:#fff"/>
            <path data-name="패스 364" d="M215.782 94.177c3.72 0 3.726-5.7 0-5.7s-3.726 5.7 0 5.7" transform="translate(-6.145 -3.765)" style="fill:#fff"/>
            <path data-name="패스 365" d="M216.032 95.175c3.72 0 3.726-5.7 0-5.7s-3.726 5.7 0 5.7" transform="translate(-6.152 -3.808)" style="fill:#fff"/>
            <path data-name="패스 366" d="M215.99 95.216c3.72 0 3.726-5.7 0-5.7s-3.726 5.7 0 5.7" transform="translate(-6.151 -3.81)" style="fill:#fff"/>
            <path data-name="패스 367" d="M216.822 94.51c3.72 0 3.726-5.7 0-5.7s-3.726 5.7 0 5.7" transform="translate(-6.175 -3.779)" style="fill:#fff"/>
            <path data-name="패스 368" d="M216.572 94.385c3.72 0 3.726-5.7 0-5.7s-3.726 5.7 0 5.7" transform="translate(-6.168 -3.774)" style="fill:#fff"/>
            <path data-name="패스 369" d="M216.489 94.3c3.72 0 3.726-5.7 0-5.7s-3.726 5.7 0 5.7" transform="translate(-6.165 -3.771)" style="fill:#fff"/>
            <path data-name="패스 370" d="M216.489 94.26c3.72 0 3.726-5.7 0-5.7s-3.726 5.7 0 5.7" transform="translate(-6.165 -3.769)" style="fill:#fff"/>
            <path data-name="패스 371" d="M216.448 94.26c3.719 0 3.725-5.7 0-5.7s-3.727 5.7 0 5.7" transform="translate(-6.164 -3.769)" style="fill:#fff"/>
            <path data-name="패스 372" d="M216.988 94.759c3.72 0 3.726-5.7 0-5.7s-3.726 5.7 0 5.7" transform="translate(-6.18 -3.79)" style="fill:#fff"/>
            <path data-name="패스 373" d="M217.071 94.8c3.72 0 3.726-5.7 0-5.7s-3.726 5.7 0 5.7" transform="translate(-6.182 -3.792)" style="fill:#fff"/>
            <path data-name="패스 374" d="M217.113 94.842c3.72 0 3.726-5.7 0-5.7s-3.726 5.7 0 5.7" transform="translate(-6.183 -3.794)" style="fill:#fff"/>
            <path data-name="패스 375" d="M217.154 94.925c3.72 0 3.726-5.7 0-5.7s-3.726 5.7 0 5.7" transform="translate(-6.184 -3.797)" style="fill:#fff"/>
            <path data-name="패스 376" d="M217.03 94.676c3.719 0 3.725-5.7 0-5.7s-3.727 5.7 0 5.7" transform="translate(-6.181 -3.787)" style="fill:#fff"/>
            <path data-name="패스 377" d="M217.071 94.842c3.72 0 3.726-5.7 0-5.7s-3.726 5.7 0 5.7" transform="translate(-6.182 -3.794)" style="fill:#fff"/>
            <path data-name="패스 378" d="M216.489 94.219c3.72 0 3.726-5.7 0-5.7s-3.726 5.7 0 5.7" transform="translate(-6.165 -3.767)" style="fill:#fff"/>
            <path data-name="패스 379" d="M217.237 94.967c3.72 0 3.726-5.7 0-5.7s-3.726 5.7 0 5.7" transform="translate(-6.187 -3.799)" style="fill:#fff"/>
            <path data-name="패스 380" d="M217.445 95.05c3.72 0 3.726-5.7 0-5.7s-3.726 5.7 0 5.7" transform="translate(-6.193 -3.802)" style="fill:#fff"/>
            <path data-name="패스 381" d="M216.157 95.424c3.719 0 3.725-5.7 0-5.7s-3.727 5.7 0 5.7" transform="translate(-6.156 -3.818)" style="fill:#fff"/>
            <path data-name="패스 382" d="M216.572 95.59c3.72 0 3.726-5.7 0-5.7s-3.726 5.7 0 5.7" transform="translate(-6.168 -3.825)" style="fill:#fff"/>
            <path data-name="패스 383" d="M216.531 95.632c3.72 0 3.726-5.7 0-5.7s-3.726 5.7 0 5.7" transform="translate(-6.166 -3.827)" style="fill:#fff"/>
            <path data-name="패스 384" d="M208.98 277.638a13.3 13.3 0 1 0-13.49-13.3 13.606 13.606 0 0 0 13.49 13.3" transform="translate(-5.64 -10.683)" style="fill:#fff"/>
        </g>
    </g>
</svg>
