<svg xmlns="http://www.w3.org/2000/svg" width="32" height="32" viewBox="0 0 32 32">
    <path style="fill:none" d="M0 0h32v32H0z"/>
    <g data-name="사각형 1984" transform="translate(2 10.281)" style="stroke:#222426;stroke-width:1.5px;fill:#fff">
        <rect width="24" height="17" rx="8" style="stroke:none"/>
        <rect x=".75" y=".75" width="22.5" height="15.5" rx="7.25" style="fill:none"/>
    </g>
    <g data-name="합치기 3" style="fill:#fff">
        <path d="M686.088-2474.573c-.427 0-.843-.12-1.202-.347l-.4-.254-.402.254a2.245 2.245 0 0 1-1.202.347c-.6 0-1.166-.234-1.591-.659l-3.24-3.24a2.254 2.254 0 0 1 0-3.183l.745-.746c.425-.424.99-.659 1.592-.659.6 0 1.166.234 1.59.66l1.977 1.976.53.53.53-.53 1.977-1.977c.425-.424.99-.658 1.59-.658.602 0 1.167.234 1.592.659l.746.745c.425.426.659.99.659 1.592 0 .6-.234 1.166-.659 1.59l-3.241 3.242c-.425.425-.99.658-1.59.658z" style="stroke:none" transform="translate(-670.485 2484.81)"/>
        <path d="M686.088-2475.323c.4 0 .777-.156 1.06-.439l3.242-3.241c.283-.283.439-.66.439-1.06s-.156-.778-.44-1.061l-.745-.746a1.491 1.491 0 0 0-1.061-.44c-.401 0-.778.157-1.06.44l-3.038 3.037-3.037-3.038a1.488 1.488 0 0 0-1.06-.439c-.401 0-.778.156-1.061.44l-.746.745a1.503 1.503 0 0 0 0 2.122l3.24 3.24c.284.284.66.44 1.06.44.286 0 .563-.08.802-.23l.802-.508.802.508c.239.15.516.23.801.23m0 1.5a2.996 2.996 0 0 1-1.603-.463 3.003 3.003 0 0 1-3.724-.415l-3.241-3.241a3.001 3.001 0 0 1 0-4.243l.746-.746a3 3 0 0 1 4.243 0l1.976 1.977 1.976-1.977a3.001 3.001 0 0 1 4.243 0l.746.746a3 3 0 0 1 0 4.243l-3.24 3.24a2.99 2.99 0 0 1-2.122.88z" style="fill:#222426;stroke:none" transform="translate(-670.485 2484.81)"/>
    </g>
    <g data-name="사각형 1987" style="stroke:#222426;stroke-width:1.5px;fill:#fff">
        <path d="M2 0h8a2 2 0 0 1 2 2v2H0V2a2 2 0 0 1 2-2z" style="stroke:none" transform="translate(8 7.781)"/>
        <path d="M2 .75h8A1.25 1.25 0 0 1 11.25 2v1.25H.75V2A1.25 1.25 0 0 1 2 .75z" style="fill:none" transform="translate(8 7.781)"/>
    </g>
    <g data-name="사각형 1988" transform="translate(17 16.281)" style="stroke:#222426;stroke-width:1.5px;fill:#fff">
        <rect width="13" height="14" rx="2" style="stroke:none"/>
        <rect x=".75" y=".75" width="11.5" height="12.5" rx="1.25" style="fill:none"/>
    </g>
    <path data-name="패스 6508" d="M-597.039 2796.909h12.676" transform="translate(614.201 -2775.719)" style="stroke:#222426;stroke-width:1.5px;fill:none"/>
    <path data-name="패스 6509" d="M-597.039 2796.909h12.676" transform="translate(614.201 -2771.719)" style="stroke:#222426;stroke-width:1.5px;fill:none"/>
</svg>
