<svg width="16" height="16" viewBox="0 0 16 16" fill="none" xmlns="http://www.w3.org/2000/svg">
    <path fill-rule="evenodd" clip-rule="evenodd" d="M8 4.377c2.301 0 4.167 1.958 4.167 4.374 0 2.416-1.866 4.374-4.167 4.374-2.301 0-4.167-1.958-4.167-4.374 0-.652.136-1.27.379-1.825a.447.447 0 0 0-.205-.58.409.409 0 0 0-.552.215A5.451 5.451 0 0 0 3 8.75C3 11.65 5.239 14 8 14s5-2.35 5-5.25c0-2.898-2.239-5.248-5-5.248v.875z" fill="#5C6773"/>
    <path d="M8 5.66V2.22c0-.186-.206-.288-.342-.169l-1.966 1.72c-.1.088-.1.249 0 .336l1.966 1.72c.136.12.342.018.342-.168z" fill="#5C6773"/>
    <path clip-rule="evenodd" d="M8 4.377c2.301 0 4.167 1.958 4.167 4.374 0 2.416-1.866 4.374-4.167 4.374-2.301 0-4.167-1.958-4.167-4.374 0-.652.136-1.27.379-1.825a.447.447 0 0 0-.205-.58.409.409 0 0 0-.552.215A5.451 5.451 0 0 0 3 8.75C3 11.65 5.239 14 8 14s5-2.35 5-5.25c0-2.898-2.239-5.248-5-5.248v.875z" stroke="#5C6773" stroke-width=".5"/>
    <path d="M8 5.66V2.22c0-.186-.206-.288-.342-.169l-1.966 1.72c-.1.088-.1.249 0 .336l1.966 1.72c.136.12.342.018.342-.168z" stroke="#5C6773" stroke-width=".5"/>
</svg>
