<svg width="24" height="24" viewBox="0 0 24 24" fill="none" xmlns="http://www.w3.org/2000/svg">
    <path d="M18.631 2.979H5.37C3.509 2.979 2 4.557 2 6.505v13.947c0 1.947 1.508 3.526 3.369 3.526H18.63c1.86 0 3.369-1.579 3.369-3.526V6.505c0-1.948-1.508-3.526-3.369-3.526z" fill="#2E83FF"/>
    <rect x="8" y="9.021" width="9" height="2" rx="1" fill="#fff"/>
    <path d="M6.087 11.021h-.174c-.503 0-.913-.448-.913-1s.408-1 .913-1h.174c.503 0 .913.448.913 1s-.408 1-.913 1z" fill="#fff"/>
    <rect x="8" y="13.021" width="9" height="2" rx="1" fill="#fff"/>
    <path d="M6.087 15.021h-.174c-.503 0-.913-.448-.913-1s.408-1 .913-1h.174c.503 0 .913.448.913 1s-.408 1-.913 1z" fill="#fff"/>
    <path d="M14.81.021H7.19C6.533.021 6 .5 6 1.087v1.869c0 .588.533 1.065 1.19 1.065h7.62c.657 0 1.19-.477 1.19-1.065V1.087C16 .5 15.467.021 14.81.021z" fill="#83B5FF"/>
</svg>
