<svg width="24" height="24" viewBox="0 0 24 24" fill="none" xmlns="http://www.w3.org/2000/svg">
    <path d="M9.368 24c-1.599 0-2.984-.284-4.157-.853A8.712 8.712 0 0 1 2.27 20.78c-.767-.99-1.343-2.126-1.726-3.41A14.816 14.816 0 0 1 0 13.325c0-1.2.139-2.42.416-3.663a14.465 14.465 0 0 1 1.374-3.6 12 12 0 0 1 2.366-3.095C5.136 2.042 6.31 1.316 7.673.79 9.037.263 10.615 0 12.405 0c.98 0 1.822.063 2.526.19l1.055.189v3.853l-.576-.095a24.25 24.25 0 0 0-1.374-.19 13.842 13.842 0 0 0-1.631-.094c-1.364 0-2.536.22-3.517.663-.959.442-1.758 1.031-2.398 1.768a7.79 7.79 0 0 0-1.407 2.337 8.914 8.914 0 0 0-.575 2.432c.192-.316.512-.695.96-1.137.447-.442 1.054-.832 1.822-1.169.788-.336 1.78-.505 2.973-.505 1.705 0 3.133.369 4.284 1.105 1.151.737 2.014 1.695 2.59 2.874A8.124 8.124 0 0 1 18 15.884c0 1.01-.181 2-.544 2.969a7.515 7.515 0 0 1-1.598 2.59c-.725.778-1.63 1.4-2.718 1.862-1.065.463-2.323.695-3.772.695zm0-3.568c1.215 0 2.248-.39 3.1-1.169.875-.8 1.312-1.884 1.312-3.253 0-1.368-.437-2.442-1.311-3.22-.853-.8-1.886-1.2-3.101-1.2s-2.26.4-3.134 1.2c-.852.778-1.278 1.852-1.278 3.22 0 1.369.426 2.453 1.278 3.253.874.78 1.919 1.169 3.134 1.169z" fill="#fff"/>
</svg>
