<svg width="24" height="24" viewBox="0 0 24 24" fill="none" xmlns="http://www.w3.org/2000/svg">
    <path d="M8.5 24c-1.604 0-3.052-.274-4.344-.821-1.27-.569-2.281-1.358-3.031-2.368C.375 19.8 0 18.61 0 17.242c0-1.095.198-2.01.594-2.747.416-.758.885-1.348 1.406-1.769.542-.442 1.02-.758 1.438-.947.416-.19.635-.284.656-.284v-.19c-.021 0-.209-.073-.563-.22-.354-.17-.76-.443-1.219-.822-.458-.379-.864-.884-1.218-1.516C.74 8.116.562 7.327.562 6.38c0-1.263.344-2.368 1.032-3.316.687-.968 1.625-1.716 2.812-2.242C5.615.274 6.98 0 8.5 0c1.52 0 2.875.274 4.063.821 1.208.526 2.145 1.274 2.812 2.242.688.948 1.031 2.042 1.031 3.284 0 .948-.177 1.748-.531 2.4-.333.632-.74 1.137-1.219 1.516-.458.38-.864.653-1.219.821l-.53.221v.19l.624.284c.417.19.896.505 1.438.947.541.421 1.01 1.01 1.406 1.769.417.737.625 1.652.625 2.747 0 1.368-.375 2.558-1.125 3.569-.75 1.01-1.77 1.8-3.063 2.368-1.27.547-2.708.821-4.312.821zm0-14.084c1.188 0 2.135-.327 2.844-.98.708-.652 1.062-1.43 1.062-2.336 0-.905-.354-1.684-1.062-2.337-.709-.652-1.656-.979-2.844-.979s-2.135.327-2.844.98c-.708.652-1.062 1.441-1.062 2.368 0 .884.354 1.652 1.062 2.305.709.652 1.657.979 2.844.979zm0 10.705c.98 0 1.792-.179 2.438-.537.666-.379 1.166-.863 1.5-1.452.354-.59.53-1.2.53-1.832 0-.632-.166-1.232-.5-1.8-.333-.568-.833-1.032-1.5-1.39-.666-.357-1.489-.536-2.468-.536-1 0-1.833.179-2.5.537-.646.357-1.135.82-1.469 1.389a3.504 3.504 0 0 0-.5 1.8c0 .632.167 1.242.5 1.832.334.59.834 1.073 1.5 1.452.667.358 1.49.537 2.469.537z" fill="#fff"/>
</svg>
