<svg width="16" height="16" viewBox="0 0 16 16" fill="none" xmlns="http://www.w3.org/2000/svg">
    <path d="M2.678 11.674c.21.226.316.54.287.859a12.5 12.5 0 0 1-.398 2.142c1.395-.346 2.247-.746 2.634-.957a.94.94 0 0 1 .71-.079c.659.19 1.36.292 2.089.292 3.996 0 7-3.009 7-6.43 0-3.42-3.004-6.43-7-6.43s-7 3.01-7 6.43c0 1.573.617 3.033 1.678 4.173zm-.493 4.184a19.579 19.579 0 0 1-.713.138c-.2.035-.352-.188-.273-.387a10.795 10.795 0 0 0 .247-.694c.248-.772.45-1.658.524-2.484C.743 11.111 0 9.387 0 7.5 0 3.358 3.582 0 8 0s8 3.358 8 7.501c0 4.143-3.582 7.501-8 7.501a8.494 8.494 0 0 1-2.347-.328c-.52.282-1.639.796-3.468 1.184z" fill="#5C6773"/>
    <path d="M8 4.5c.207 0 .375.168.375.375v2.25h2.25a.375.375 0 0 1 0 .75h-2.25v2.25a.375.375 0 0 1-.75 0v-2.25h-2.25a.375.375 0 1 1 0-.75h2.25v-2.25c0-.207.168-.375.375-.375z" fill="#5C6773" stroke="#5C6773" stroke-width=".5" stroke-linecap="round"/>
</svg>
