<svg xmlns="http://www.w3.org/2000/svg" width="400" height="240" viewBox="0 0 400 240">
    <path style="opacity:.234;fill:none" d="M0 0h400v240H0z"/>
    <g data-name="그룹 3276">
        <g data-name="그룹 3188">
            <path data-name="선 1110" transform="translate(3 158.815)" style="stroke-width:.5px;stroke-miterlimit:10;stroke:#000;fill:none" d="m0 0 394.523 31.133"/>
            <g data-name="그룹 3278">
                <path data-name="패스 6271" d="M41.3 62.9c12.708 0 23.009 12.008 23.009 26.822s-10.3 26.819-23.009 26.819-23.01-12.01-23.01-26.821S28.591 62.9 41.3 62.9" transform="translate(8.662 68.33)" style="fill:#fff"/>
                <path data-name="패스 6272" d="M357.816 182.934a2.636 2.636 0 0 1 2.735 2.539 2.6 2.6 0 0 1-.1.817 11.6 11.6 0 0 1-2.749 5.343 27.131 27.131 0 0 1-8.792 5.492c-4.1 1.567-.969 1.371 1.759 2.155 1.275.365 2.549.689 3.549.931a.948.948 0 0 1 .393 1.642c-.756.651-4.98 2-5.537 2.844a11.092 11.092 0 0 1-4.691 2.943l-33.266 10.916a16.522 16.522 0 0 1-7.012.716l-6.176-.7a2.644 2.644 0 0 0-1.132.123 96.907 96.907 0 0 1-15.086 3.734c-8.595 1.374-20.124 3.923-31.261.786s-83.039-9.217-83.039-9.217L60.556 202.469l-9.154-1.369c-3.072-.324-.2-4.162 2.867-4.544a.624.624 0 0 1 .212 0 28.579 28.579 0 0 1 7.012 0c5.862.588 4.274-12.216 7.6-13.2 2.954-.873 48.065 10.066 50.8 8.617a2.635 2.635 0 0 1 1.132-.3z"/>
                <path data-name="패스 6273" d="M65.16 102.569s-.839 3.364-1.814 6.027a38.8 38.8 0 0 1-4.467 9.106c-1.5 1.889-2.61 2.573-6.98 2.8-5.036.264-18.336-.53-18.336-.53a18.208 18.208 0 0 1-10.611-6.572c-4.59-5.65-5.421-11.041-6.156-17.5-.549-4.871-.214-18.553 3.973-24.72" transform="translate(6.27 80.08)" style="fill:#fff"/>
                <path data-name="패스 6274" d="M65.16 102.569s-.839 3.364-1.814 6.027a38.8 38.8 0 0 1-4.467 9.106c-1.5 1.889-2.61 2.573-6.98 2.8-5.036.264-18.336-.53-18.336-.53a18.208 18.208 0 0 1-10.611-6.572c-4.59-5.65-5.421-11.041-6.156-17.5-.549-4.871-.214-18.553 3.973-24.72" transform="translate(6.27 80.08)" style="stroke-linejoin:round;stroke-linecap:round;stroke-width:.5px;stroke:#000;fill:none"/>
                <path data-name="패스 6275" d="M165 121.179s-3.364 16.262-10.551 24.418c-7.024 7.971-15.6 12.823-29.893 13.532-16.741.837-25.808-6.566-29.035-11.273s-9.067-12.262-12-23.441-7.327-37.949 7.913-47.657 46.6-26.473 73.563 44.421" transform="translate(96.485 75.258)" style="fill:#fff"/>
                <path data-name="패스 6276" d="M165 121.179s-3.364 16.262-10.551 24.418c-7.024 7.971-15.6 12.823-29.893 13.532-16.741.837-25.808-6.566-29.035-11.273s-9.067-12.262-12-23.441-7.327-37.949 7.913-47.657S138.033 50.284 165 121.179z" transform="translate(96.485 75.258)" style="stroke-linejoin:round;stroke-linecap:round;stroke-width:.5px;stroke:#000;fill:none"/>
                <path data-name="패스 6277" d="M212.769 164.089c1.407-.046 13.527 5.045 16.011 19.967s-1.239 28.307-7.438 31.729-22.322-.934-24.794-15.551-.339-35.584 16.221-36.145"/>
                <path data-name="패스 6278" d="M105.4 76.485c1.407-.046 13.527 5.045 16.011 19.967s-1.239 28.307-7.438 31.729-22.322-.934-24.794-15.551-.339-35.584 16.221-36.145z" transform="translate(107.369 87.604)" style="stroke-linejoin:round;stroke-linecap:round;stroke-width:.5px;stroke:#000;fill:none"/>
                <path data-name="패스 6279" d="M36.892 152.894a4.961 4.961 0 0 1 4.017 1.2c2.465 2.126 6.431 7.023 6.012 16.325-.607 13.4-3.337 19.181-9.706 19.791s-9.1-12.482-8.491-19.181c.559-6.194.082-16.819 8.168-18.137"/>
                <path data-name="패스 6280" d="M27.242 71.887a4.961 4.961 0 0 1 4.017 1.2c2.465 2.126 6.431 7.023 6.012 16.325-.607 13.4-3.337 19.181-9.706 19.791s-9.1-12.482-8.491-19.181c.558-6.192.081-16.822 8.168-18.135z" transform="translate(9.65 81.007)" style="stroke-linejoin:round;stroke-linecap:round;stroke-width:.5px;stroke:#000;fill:none"/>
                <path data-name="패스 6281" d="M53.702 161.572s-4.3-24.909-15.24-24.514-13.262 10.714-14.98 26.555c.118-.363 4.1-22.432 14.785-20.867 10.715 1.563 15.435 18.826 15.435 18.826"/>
                <path data-name="패스 6282" d="M47.07 89.825s-4.3-24.909-15.24-24.514-13.262 10.714-14.98 26.555c.118-.363 4.1-22.432 14.785-20.867C42.35 72.562 47.07 89.825 47.07 89.825z" transform="translate(6.632 71.747)" style="stroke-linejoin:round;stroke-linecap:round;stroke-width:.5px;stroke:#000;fill:none"/>
                <path data-name="패스 6283" d="M46.314 57.413c3.858-5.87 4.725-10.816 12.734-14.935S147.948 24.042 175.694 26s56.662 2.16 69.948 13.435c0 0 34.584 40.008 36.343 42.361s8.207 3.236 17.582 4.119S362.032 89 366.427 91.8c5.106 3.246 14.214-1.323 17.585 5.589 2.973 6.1-1.8 57.07-15.864 64.718s-55.39 22.062-74.734 21.769-35.5 1.2-43.706-4.98-8.13-15.048-17.305-29.709c-12.291-19.643-27.208-23.269-41.278-13.856s-16.7 37.362-14.946 41.48 6.448 11.766 1.173 11.179-104.044-17.06-104.044-17.06l-6.168-1.4a11.018 11.018 0 0 0-7.057-5.94c-5.277-1.47-7.583-5.306-9.342-10.013s-4.98-30.89-16.117-30.595-15.4 26.437-15.214 26.4c0 0-8.2-52.64-2.67-57.767 0 .007 7.973-1.325 29.574-34.2" transform="translate(3.773 15.734)" style="fill:#fff"/>
                <path data-name="패스 6284" d="M46.314 57.413c3.858-5.87 4.725-10.816 12.734-14.935S147.948 24.042 175.694 26s56.662 2.16 69.948 13.435c0 0 34.584 40.008 36.343 42.361s8.207 3.236 17.582 4.119S362.032 89 366.427 91.8c5.106 3.246 14.214-1.323 17.585 5.589 2.973 6.1-1.8 57.07-15.864 64.718s-55.39 22.062-74.734 21.769-35.5 1.2-43.706-4.98-8.13-15.048-17.305-29.709c-12.291-19.643-27.208-23.269-41.278-13.856s-16.7 37.362-14.946 41.48 6.448 11.766 1.173 11.179-104.044-17.06-104.044-17.06l-6.168-1.4a11.018 11.018 0 0 0-7.057-5.94c-5.277-1.47-7.583-5.306-9.342-10.013s-4.98-30.89-16.117-30.595-15.4 26.437-15.214 26.4c0 0-8.2-52.64-2.67-57.767.005.004 7.973-1.329 29.574-34.202z" transform="translate(3.773 15.734)" style="stroke-linejoin:round;stroke-linecap:round;stroke-width:.5px;stroke:#000;fill:none"/>
                <path data-name="패스 6285" d="M210.206 94.045s-1.21-8.146-8.149-10.688-18.066-3.244-24.491 7.075"/>
                <path data-name="패스 6286" d="M104.342 52.675s-.831-5.277-5.161-6.994-12.33-2.271-16.214 4.344" transform="translate(99.826 42.314)" style="fill:#fff"/>
                <path data-name="패스 6287" d="M284.089 94.932c-9.72-3.125-72.286-.6-78.987-.123s-17.645 1.514-24.252-.757-13.163-20.88-16.228-27.848c-3.682-8.371-5.836-11.769-2.66-16.533 4.46-5.906 43.67-3.067 56.267-1.671 13.438 1.492 25.7 3.454 27.3 4.656.07.053.063.152-.026.138-6.47-.871-31.861-2.76-46.538-3.572-18.079-.992-32.726-2.033-34.374 3.327-.5 1.611-.583 2.711 1.014 7.263 1.634 4.663 9.964 24.415 13.629 28.829s18.464 3.971 29.307 3.824 73.941-1.932 75.548 2.467"/>
                <path data-name="패스 6288" d="M128.691 50.112s58.479 6.745 66.978 10.276 9.732 8.453 9.732 8.453" transform="translate(164.274 50.193)" style="stroke-linejoin:round;stroke-linecap:round;stroke-width:.5px;stroke:#000;fill:none"/>
                <path data-name="패스 6289" d="M93.451 54.777s62.255-9.132 89.723 7.181" transform="translate(114.603 53.195)" style="stroke-linejoin:round;stroke-linecap:round;stroke-width:.5px;stroke:#000;fill:none"/>
                <path data-name="패스 6290" d="M219.987 94.3s-70.924 17.063-86.367 17.063c0 0-5.824-1.949-6.646-11.766a169.551 169.551 0 0 1-.646-26.819 6.405 6.405 0 0 1 .323-1.741c1.241-3.161 5.646-13.737 12.64-12.233 8.207 1.766 8.4 12.552 8.4 12.552s-1.369 4.315 2.344 4.119 64.281-7.256 64.281-7.256 2.347-12.944 5.472-13.336 6.253 5.294 4.884 14.122-4.687 25.3-4.687 25.3" transform="translate(160.582 56.933)" style="fill:#fff"/>
                <path data-name="패스 6291" d="M219.987 94.3s-70.924 17.063-86.367 17.063c0 0-5.824-1.949-6.646-11.766a169.551 169.551 0 0 1-.646-26.819 6.405 6.405 0 0 1 .323-1.741c1.241-3.161 5.646-13.737 12.64-12.233 8.207 1.766 8.4 12.552 8.4 12.552s-1.369 4.315 2.344 4.119 64.281-7.256 64.281-7.256 2.347-12.944 5.472-13.336 6.253 5.294 4.884 14.122-4.685 25.295-4.685 25.295z" transform="translate(160.582 56.933)" style="stroke-linejoin:round;stroke-linecap:round;stroke-width:.5px;stroke:#000;fill:none"/>
                <path data-name="패스 6292" d="M235.992 71.332s7.294 1.961 5.985 6.668-17.2 6.864-17.2 6.864l-73.3 19.22a33.013 33.013 0 0 1-15.9 1.567 91.837 91.837 0 0 1-18.515-5.681s-5.609-3.335.747-6.67a24.145 24.145 0 0 1 12.342-2.745S142.565 92 149.97 88.791z" transform="translate(144.656 80.294)" style="fill:#fff"/>
                <path data-name="패스 6293" d="M235.992 71.332s7.294 1.961 5.985 6.668-17.2 6.864-17.2 6.864l-73.3 19.22a33.013 33.013 0 0 1-15.9 1.567 91.837 91.837 0 0 1-18.515-5.681s-5.609-3.335.747-6.67a24.145 24.145 0 0 1 12.342-2.745S142.565 92 149.97 88.791z" transform="translate(144.656 80.294)" style="stroke-linejoin:round;stroke-linecap:round;stroke-width:.5px;stroke:#000;fill:none"/>
                <path data-name="패스 6294" d="M173.277 128.592 67.8 111.716a8.224 8.224 0 0 1-6.739-6.518c-2.426-12.192-7.915-42.23-29.314-42.458 0 0-11.518-.252-13.908 13.563" transform="translate(8.022 68.106)" style="stroke-linejoin:round;stroke-linecap:round;stroke-width:.5px;stroke:#000;fill:none"/>
                <path data-name="패스 6295" d="M153.82 66.683 131.245 34.94a2.885 2.885 0 0 0-2.887-1.746L92.734 36.1s-3.446.776-3.072 8.506c.465 9.5.323 13.174 2.337 17.3" transform="translate(109.222 26.18)" style="stroke-linejoin:round;stroke-linecap:round;stroke-width:.5px;stroke:#000;fill:none"/>
                <path data-name="패스 6296" d="m104.886 64.584-.988-22.1c-.041-.919-.185-2.235-.193-3.154-.039-4.252-2.532-4.823-6.441-4.527-5.86.44-20.8 1.5-20.8 1.5" transform="translate(90.655 28.379)" style="stroke-linejoin:round;stroke-linecap:round;stroke-width:.5px;stroke:#000;fill:none"/>
                <path data-name="패스 6297" d="M45.744 81.2c.4.058 63.4.242 78.228.285a1.944 1.944 0 0 0 1.947-1.942 1.975 1.975 0 0 0-.193-.854c-3.118-6.494-10.621-22.27-11.549-25.288-1.173-3.826-6.154-17.946-7.619-20.446s-2.051-4.561-7.915-3.971-35.022 3.971-35.022 3.971a9.9 9.9 0 0 0-9.231 8.238C52.486 49.43 43.692 80.905 45.744 81.2z" transform="translate(46.925 20.074)" style="stroke-linejoin:round;stroke-linecap:round;stroke-width:.5px;stroke:#000;fill:none"/>
                <path data-name="패스 6298" d="M224.81 151.722s-10.363-3.763-20.026-.883c-6.47 1.928-17.291 9.577-20.505 26.594-1.5 10.1-1.9 19.941-1.9 19.941s-3.263-6.525-2.532-11.145c1.371-8.666 3.6-29.325 18.324-36.861 7.915-4.053 15.7-4.61 26.637 2.353"/>
                <path data-name="패스 6299" d="M126.769 74.5s-10.363-3.763-20.026-.883c-6.47 1.928-17.291 9.577-20.505 26.594-1.5 10.1-1.9 19.941-1.9 19.941s-3.263-6.525-2.532-11.145c1.371-8.666 3.6-29.325 18.324-36.861 7.917-4.051 15.7-4.608 26.639 2.354z" transform="translate(98.041 77.222)" style="stroke-linejoin:round;stroke-linecap:round;stroke-width:.5px;stroke:#000;fill:none"/>
                <path data-name="패스 6300" d="M105.513 76.737a26.483 26.483 0 0 1 17.047 20.219c2.479 14.937-1.981 27.134-8.18 30.553s-21.572.242-24.052-14.378-1.248-38.578 15.185-36.394" transform="translate(108.813 87.764)" style="fill:#ebecee"/>
                <path data-name="패스 6301" d="M105.513 76.737a26.483 26.483 0 0 1 17.047 20.219c2.479 14.937-1.981 27.134-8.18 30.553s-21.572.242-24.052-14.378-1.248-38.578 15.185-36.394z" transform="translate(108.813 87.764)" style="stroke-linejoin:round;stroke-linecap:round;stroke-width:.5px;stroke:#000;fill:none"/>
                <path data-name="패스 6302" d="M27.746 71.971a4.96 4.96 0 0 1 4.017 1.2C34.227 75.3 38.2 80.2 37.774 89.5c-.607 13.4-3.337 19.181-9.706 19.791s-9.1-12.482-8.491-19.181c.559-6.194.082-16.819 8.168-18.137" transform="translate(10.36 81.127)" style="fill:#ebecee"/>
                <path data-name="패스 6303" d="M27.746 71.971a4.96 4.96 0 0 1 4.017 1.2C34.227 75.3 38.2 80.2 37.774 89.5c-.607 13.4-3.337 19.181-9.706 19.791s-9.1-12.482-8.491-19.181c.559-6.196.082-16.821 8.169-18.139z" transform="translate(10.36 81.127)" style="stroke-linejoin:round;stroke-linecap:round;stroke-width:.5px;stroke:#000;fill:none"/>
                <path data-name="패스 6304" d="m164.49 62.586-84.21-2.315-62.222-3.086" transform="translate(8.336 60.227)" style="stroke-linejoin:round;stroke-linecap:round;stroke-width:.5px;stroke:#000;fill:none"/>
                <path data-name="선 1111" transform="translate(172.825 122.808)" style="stroke-linejoin:round;stroke-linecap:round;stroke-width:.5px;stroke:#000;fill:none" d="M113.52 5.137 0 0"/>
                <path data-name="선 1112" transform="translate(65.948 156.967)" style="stroke-linejoin:round;stroke-linecap:round;stroke-width:.5px;stroke:#000;fill:none" d="M116.197 13.904 0 0"/>
                <path data-name="패스 6305" d="M73.843 32.5s3.662.3 3.224 2.648-6.558 26.582-6.558 26.582-2.089 11.67-5.721 13.027c-3.655 1.359-8.535.963-18.4.733-6.288-.146-16.988 1.31-19.872-1.614-2.576-2.612 1.682-11.4 4.173-15.817S38.5 40.164 44.951 38.546 73.843 32.5 73.843 32.5z" transform="translate(19.129 25.21)" style="stroke-linejoin:round;stroke-linecap:round;stroke-width:.5px;stroke:#000;fill:none"/>
                <path data-name="패스 6306" d="M165.077 110.082s-1.272.457-7.115-14.772c-6.766-17.634-13.17-23.651-27.071-28.778C113.8 60.223 98.5 62.934 84.729 87.057a44.246 44.246 0 0 0-4.756 13.607" transform="translate(95.605 69.356)" style="stroke-linejoin:round;stroke-linecap:round;stroke-width:.5px;stroke:#000;fill:none"/>
                <path data-name="패스 6307" d="M154.701 56.854s-3.352-4.593-6.939-4.716-37.685 3.734-37.685 3.734-4.53.368-7.441 9.212c-3.145 9.551-9.235 36.039-9.235 36.039l-.911-.4s6.679-41.7 11.252-44.929 19.409-4.839 19.785-4.709 20.65-2.111 20.65-2.111 4.328-.745 6.306.249 4.735 7.667 4.735 7.667z"/>
                <path data-name="패스 6308" d="M93.177 58.887s-22.211 4.658-27.666 7.009a18.371 18.371 0 0 0-8.212 7.055c-.036.053-2.32 4.157-2.347 4.22-1.025 2.208-6.225 11.108-7.693 16.18a14.07 14.07 0 0 0-.879 5.737c.147 1.841-2.041-1.4-2.051-2.793a5.663 5.663 0 0 0 .039.607c1.583-9.183 10.086-22.964 13.782-28.166a2.543 2.543 0 0 1 .145-.213c.549-.641 3.614-4.082 6.453-4.709 3.128-.709 23.977-5.415 28.43-4.927"/>
                <path data-name="패스 6309" d="m44.657 37.095 69.035-1.524s7.127-1.337 6.739 5.5c-.248 4.341-1.294 14.3-1.294 14.3s-.7 4.438-3.783 5.572S44.5 65.8 44.5 65.8s-11.944.348-16-1.115a2.9 2.9 0 0 1-1.4-3.717c2.279-6.291 8.332-18.3 8.332-18.3a11.016 11.016 0 0 1 5.07-4.586 9.543 9.543 0 0 1 4.155-.987z" transform="translate(20.76 29.416)" style="stroke-linejoin:round;stroke-linecap:round;stroke-width:.5px;stroke:#000;fill:none"/>
                <path data-name="패스 6310" d="m71.359 62.474 21.23-4.5 3.111.769-23.252 4.5"/>
                <path data-name="패스 6311" d="M202.883 63.439s2.1 9.024 9.024 7.072l-1.132 7.408L131.8 93.688l-2-7.289s7.243-.162 10.749-4.278 3.585-10.605 3.585-10.605z" transform="translate(165.85 69.098)" style="fill:#ebecee"/>
                <path data-name="패스 6312" d="M144.742 74.354s1.092 16.158-9.354 17.883-9.288-16.894-9.288-16.894.513-16.526 9.79-18.275c10.216-1.928 8.848 17.285 8.848 17.285" transform="translate(160.574 59.869)" style="fill:#fff3a5"/>
                <path data-name="패스 6313" d="M144.742 74.354s1.092 16.158-9.354 17.883-9.288-16.894-9.288-16.894.513-16.526 9.79-18.275c10.221-1.927 8.852 17.286 8.852 17.286z" transform="translate(160.574 59.869)" style="stroke-width:.5px;stroke-miterlimit:10;stroke:#000;fill:none"/>
                <path data-name="패스 6314" d="M295.25 116.897s9.966 1.766 9.966 17.455l69.883-8.905-.2-2.157-62.848 8.117s-4.3.392-4.3-3.335-3.125-15.486-12.505-11.174"/>
                <path data-name="패스 6315" d="M378.636 113.573a3.306 3.306 0 0 1 3.072-1.217c1.829 1.1 4.152 4.1 3.106 12.431-1.472 11.759-7.937 10.675-7.937 10.675s-5.877.535-5.14-10.724l3.055-.987z"/>
                <path data-name="패스 6316" d="M167.878 57.208a1.085 1.085 0 0 1 1.385-.67 1.215 1.215 0 0 1 .171.08c1.636.972 4.311 3.7 3.376 11.048-1.318 10.371-7.108 9.415-7.108 9.415s-4.908-.88-4.248-10.808l3.516-.958z" transform="translate(210.37 59.222)" style="fill:#fff3a5"/>
                <path data-name="패스 6317" d="M167.878 57.208a1.085 1.085 0 0 1 1.385-.67 1.215 1.215 0 0 1 .171.08c1.636.972 4.311 3.7 3.376 11.048-1.318 10.371-7.108 9.415-7.108 9.415s-4.908-.88-4.248-10.808l3.516-.958z" transform="translate(210.37 59.222)" style="stroke-width:.5px;stroke-miterlimit:10;stroke:#000;fill:none"/>
                <path data-name="선 1113" transform="translate(374.683 115.391)" style="stroke-width:.5px;stroke-miterlimit:10;stroke:#000;fill:none" d="M0 9.415 2.858 0"/>
                <path data-name="패스 6318" d="m354.717 172.719-31.293 8.492a4.715 4.715 0 0 0-2.012 4.428c.118 3.263-1.2 6.757 4.342 5.106 4.677-1.393 21.546-7.1 26.717-8.852a3.4 3.4 0 0 0 2.1-2.063 29.208 29.208 0 0 0 1.723-5.792 1.248 1.248 0 0 0-1.578-1.316"/>
                <path data-name="패스 6319" d="M47.809 52.045s-8.9 17.859-1.694 69.719" transform="translate(43.915 52.935)" style="stroke-linejoin:round;stroke-linecap:round;stroke-width:.5px;stroke:#000;fill:none"/>
                <path data-name="패스 6320" d="M46.455 38.883S31.27 61.625 25.432 66.861c-7.414 6.656-9.494 5.437-10.387 9.253s.226 22.684 1.6 32.275 2.573 19.276 2.573 19.276" transform="translate(3.633 34.264)" style="stroke-linecap:round;stroke-width:.5px;stroke-miterlimit:10;stroke:#000;fill:none"/>
                <path data-name="패스 6321" d="M15.143 54.286s8.486-.486 7.39 6.508-6.123 20.447-6.123 20.447-2.942-20.616-1.267-26.955" transform="translate(3.499 56.104)" style="fill:#fff"/>
                <path data-name="패스 6322" d="M15.143 54.286s8.486-.486 7.39 6.508-6.123 20.447-6.123 20.447-2.942-20.616-1.267-26.955z" transform="translate(3.499 56.104)" style="stroke-linecap:round;stroke-width:.5px;stroke-miterlimit:10;stroke:#000;fill:none"/>
                <path data-name="패스 6323" d="M152.566 101.444s-6.988-19.506-9.084-22.708-3.026-6.114-9.542-6.4-10.944 5.239-12.11 14.265a69.153 69.153 0 0 0-.464 15.134z"/>
            </g>
        </g>
        <g data-name="그룹 3191">
            <path data-name="패스 6429" d="M98.51 19.119 99.477 0 83.524 11.781s-27.154-12.246-49.766.34S-4.217 57.765 1.032 80.339c4.842 20.825 25.94 46.352 49.1 49.241s51.375-8.572 61.833-26.807 26.774-45.019-13.455-83.654z" transform="rotate(87 66.559 99.818)" style="stroke-dasharray:4 4;stroke-linejoin:round;stroke-linecap:round;fill:#fff;stroke-width:.5px;stroke:#000"/>
            <path data-name="패스 6430" d="M6.234 14.874c1.621.309 3.152.6 5.111 3.9 1.939 3.267 13.85 22.644 16.907 27.548 2.172 3.484 3.069 5.342 2.642 7.135a6.709 6.709 0 0 0 2.54 7.388c3.092 2.191 5.192 2.652 7.023 1.547l.532-.322-4.276-3.845c-.13-.253-.675-1.556.966-3.156a5.207 5.207 0 0 1 3.81-1.634l4.522 3.914.264-.529c.044-.085 1.022-2.141-1.507-6.326-1.3-2.148-3.007-2.53-4.659-2.9-1.73-.386-3.363-.751-4.766-3.073-2.262-3.742-6.275-10.362-10.158-16.765-3.328-5.491-6.448-10.635-7.957-13.132-.129-.216-.259-.426-.387-.635-1.287-2.1-2.3-3.751-2.1-6.886a6.788 6.788 0 0 0-2.538-5.4 7.926 7.926 0 0 0-7.22-1.4l-.844.225 4.22 3.681A3.24 3.24 0 0 1 8.1 7.6a5.115 5.115 0 0 1-3.19 1.819L.563 6.1l-.257.47c-.058.105-1.373 2.619 1.945 6.258a6.2 6.2 0 0 0 3.983 2.047M.955 7.556l3.684 2.813.173-.012a5.987 5.987 0 0 0 4.019-2.2 4.191 4.191 0 0 0 .3-4.47l-.041-.064L6.1 1.02a6.817 6.817 0 0 1 5.515 1.4 6.6 6.6 0 0 1 .651.627c.058.071.122.155.193.249a6.162 6.162 0 0 1 .45.712 4.983 4.983 0 0 1 .4.983 4.243 4.243 0 0 1 .175 1.2 4.625 4.625 0 0 1-.2 1.323 5.607 5.607 0 0 1-.245.669c-.053.111-.1.221-.156.332s-.119.217-.179.328a10.346 10.346 0 0 1-.873 1.259 14.434 14.434 0 0 1-1.045 1.151 7.6 7.6 0 0 1-1.124.935l-1.119.563-.076.025a11.238 11.238 0 0 1-1.732.44c-.386.032-1.555.091-1.881.076-.163-.007-.315-.021-.457-.035s-.274-.024-.393-.039l-.75-.094.178.091c.117.057.287.142.514.234a6.9 6.9 0 0 0 .834.29 7.316 7.316 0 0 0 1.27.3 18.867 18.867 0 0 0 2.634-.419 5.022 5.022 0 0 0 1.509-.567 6.983 6.983 0 0 0 1.06-.753c.331.438.658.873 1.277 1.7 16.338 21.813 20.743 32.975 21.742 36.05l-.078.06a4.436 4.436 0 0 0-.34.3c-.213.214-1.44 1.105-1.6 1.352a4.758 4.758 0 0 0-.553 1.511 8.265 8.265 0 0 0-.292 1.5 9.708 9.708 0 0 0 .039 1.309 9.913 9.913 0 0 0 .163 1.085c.061.318.132.593.2.815a6.355 6.355 0 0 0 .232.694s-.006-.266-.006-.724l.009-.585.005-.238c.012-.315.031-.669.063-1.051s.077-.793.149-1.217a8.721 8.721 0 0 1 .315-1.291 6.715 6.715 0 0 1 .871-1.325c.128-.183 1.017-.9 1.174-1.052a3.053 3.053 0 0 1 .248-.214l.3-.236a12.3 12.3 0 0 1 1.224-.829 6.723 6.723 0 0 1 1.266-.581 5.976 5.976 0 0 1 1.274-.266 8.445 8.445 0 0 1 1.206-.014c.379.023.732.061 1.044.1s.586.087.812.126l.437.076a4.624 4.624 0 0 1 1.542 1.61 8.621 8.621 0 0 1 1.59 4.782l-3.7-3.2-.135-.019a5.984 5.984 0 0 0-4.7 1.876c-1.881 1.836-1.525 3.653-1.073 4.358l.033.052 3.409 3.07c-1.032.374-2.57.243-5.436-1.788a5.74 5.74 0 0 1-2.176-6.423c.546-2.3-.737-4.6-2.759-7.837-3.056-4.9-14.958-24.265-16.9-27.53-2.171-3.658-4.062-4.019-5.731-4.338a5.353 5.353 0 0 1-3.474-1.762C.922 10 .824 8.358.955 7.556" transform="rotate(12.04 -231.51 375.836)" style="fill:#222426"/>
            <path data-name="패스 6433" d="M2.033.634c.13.044.262.092.4.14s.272.109.414.16.281.115.423.182c.281.132.567.273.844.437a8.365 8.365 0 0 1 .806.544 9.06 9.06 0 0 1 .732.649c.112.117.23.232.335.351l.313.358a8.869 8.869 0 0 1 .546.715 7.535 7.535 0 0 1 .434.685A7.1 7.1 0 0 1 7.967 6.4a2.992 2.992 0 0 0-.032-.477A5.694 5.694 0 0 0 7.616 4.7a7.581 7.581 0 0 0-.349-.778 8.87 8.87 0 0 0-.5-.816 8.925 8.925 0 0 0-.637-.8 6.252 6.252 0 0 0-.772-.746 5.989 5.989 0 0 0-.889-.618 6.647 6.647 0 0 0-.949-.43C3.362.454 3.2.406 3.051.355S2.744.273 2.595.236l-.434-.09A9.37 9.37 0 0 0 0 .015s.167.057.46.138l.524.153c.2.06.426.129.671.2.122.044.245.094.378.128z" transform="rotate(12.04 -237.978 403.859)" style="stroke-linejoin:round;stroke-linecap:round;stroke-width:.5px;stroke:#000;fill:none"/>
            <path data-name="패스 6435" d="M3.217 4.614c-.068-.184-.145-.378-.233-.574s-.179-.4-.279-.6-.212-.408-.322-.612-.235-.4-.36-.594-.25-.383-.383-.556-.255-.347-.391-.5S1 .88.871.759.632.523.529.425.326.256.249.193C.092.067 0 0 0 0s.07.1.195.253c.061.079.14.171.224.283S.591.777.694.91s.2.294.312.451.215.336.333.51.22.369.341.554.223.387.337.581.22.393.325.588.212.386.3.577l.279.543.248.49.509 1.023A7.669 7.669 0 0 0 3.4 5.134c-.054-.162-.11-.334-.183-.52z" transform="rotate(12.04 -486.696 551.204)" style="stroke-linejoin:round;stroke-linecap:round;stroke-width:.5px;stroke:#000;fill:none"/>
            <path data-name="패스 6436" d="M120.35 104.613c-.586-8.728 2.046-9.787 3.039-10.189a2.054 2.054 0 0 0 1.206-1.825 2.509 2.509 0 0 0-1.049-2.347 1.938 1.938 0 0 0-.96-.292c-.566-.018-1.587-.031-2.411-.036.02-.27.04-.542.056-.794a.856.856 0 0 0 .241-.499l.333-2.859a.9.9 0 0 0-.003-.227l-.123-.83.337.134a.878.878 0 0 0 .891-.143l3.587-3.033a.87.87 0 0 0 .156-.172l7.17-10.545a.87.87 0 0 0-.042-1.04l-.899-1.11a.883.883 0 0 0-1.233-.141l-3.967 3.16a.809.809 0 0 0-.301.878 2.053 2.053 0 0 1-.96 1.84 2.76 2.76 0 0 1-2.335.628.857.857 0 0 0-.793.155l-3.357 2.678-.202-.202-.344-.3-.355-.257a5.59 5.59 0 0 0-.7-.391 5.74 5.74 0 0 0-.627-.253l-.193-.054.935-4.242a.876.876 0 0 0-.217-.788 2.762 2.762 0 0 1-.453-2.365 2.043 2.043 0 0 1 1.247-1.677.784.784 0 0 0 .637-.652l1.1-4.946a.88.88 0 0 0-.396-.935.909.909 0 0 0-.272-.113l-1.394-.317a.87.87 0 0 0-.95.41l-6.32 11.082a.839.839 0 0 0-.093.24l-1.45 6.55-.554-.016a.86.86 0 0 0-.458.114l-1.534.875a.853.853 0 0 0-.38.459c-.22.126-.455.263-.69.4-.367-.737-.826-1.65-1.092-2.15a1.94 1.94 0 0 0-.684-.733 2.51 2.51 0 0 0-2.574.087 2.054 2.054 0 0 0-1.107 1.886c.08 1.067.28 3.9-7.817 7.213-10.016 4.1-18.48 15.206-18.565 15.317-1.904 2.523-2.783 4.46-1.278 6.319a4.122 4.122 0 0 0 1.02.932c1.331.83 2.915.527 4.705-.901s2.295-2.56 2.397-3.273c4.737-6.496 18.635-14.529 22.748-15.126a9.992 9.992 0 0 0 6.732-4.736l.423-.337c.08.108.164.218.252.322.127.14.262.272.393.402l.42.351.436.297.44.244a5.471 5.471 0 0 0 .847.346 3.649 3.649 0 0 0 .746.185c.108.016.21.025.3.03l-.158.718a9.989 9.989 0 0 0-1.293 8.128c1.272 3.956.17 19.97-3.582 27.082-.59.404-1.387 1.354-1.88 3.586s-.072 3.793 1.264 4.625a4.118 4.118 0 0 0 1.285.504c2.331.533 3.685-1.107 5.113-3.926.063-.125 6.313-12.612 5.592-23.412m-7.26-17.837a7.629 7.629 0 0 1-.746-.421l-.381-.267-.374-.303-.357-.344-.33-.377a5.685 5.685 0 0 1-.562-.853 5.421 5.421 0 0 1-.4-.936 4.32 4.32 0 0 1-.136-.48 3.232 3.232 0 0 1-.092-.481 3.192 3.192 0 0 1-.045-.473 3.268 3.268 0 0 1-.013-.452 5.582 5.582 0 0 1 .078-.845 5.481 5.481 0 0 1 .381-1.217 1.387 1.387 0 0 0 .146-.475l.002-.009-.477-.013 1.413-6.38 6.311-11.079 1.392.318-1.095 4.948a2.828 2.828 0 0 0-1.885 2.328 3.647 3.647 0 0 0 .635 3.11 2.112 2.112 0 0 0-1.43 1.632 2.578 2.578 0 0 0 .61 2.277l-.097.458.128.02a1.446 1.446 0 0 0 .4.16c.133.041.285.105.476.171a5.65 5.65 0 0 1 .575.293 5.49 5.49 0 0 1 .625.427l.315.271.308.302a8.737 8.737 0 0 1 .576.69 7.553 7.553 0 0 1 .485.789 5.62 5.62 0 0 1 .362.847 3.426 3.426 0 0 1 .131.427 3.479 3.479 0 0 1 .091.436 4.972 4.972 0 0 1 .005 1.582 6.604 6.604 0 0 1-.27 1.103 2.85 2.85 0 0 0-.097.424l-.002.006.19 1.28-.333 2.859-4.902-.225.225-1.018c-.07 0-.138-.002-.203-.005s-.218-.03-.407-.069a4.571 4.571 0 0 1-.547-.146 5.365 5.365 0 0 1-.668-.29m-3.434-7.079a5.6 5.6 0 0 0-.299.755 6.1 6.1 0 0 0-.188.886 4.313 4.313 0 0 0-.04 1.032 3.739 3.739 0 0 0 .062.544 3.049 3.049 0 0 0 .126.549 4.72 4.72 0 0 0 .383.934l-.56.447-2.356-4.304 1.522-.881zm16.312-4.465a2.829 2.829 0 0 0 1.26-2.717l3.962-3.16.897 1.111-5.27 7.737 4.683-7.543-7.396 10.108-3.916 2.762a6.466 6.466 0 0 0 .173-.625 5.271 5.271 0 0 0 .112-1.682 4.873 4.873 0 0 0-.196-.94 5.73 5.73 0 0 0-.38-.918 5.39 5.39 0 0 0-.418-.676l.254-.202a2.58 2.58 0 0 0 2.315-.455 2.109 2.109 0 0 0 .834-2.003 3.648 3.648 0 0 0 3.074-.798"/>
            <path data-name="패스 6437" d="M3.9 5.725a3.1 3.1 0 0 0 1.14-.686 3.059 3.059 0 0 0 .718-1.114 2.674 2.674 0 0 0 .155-.64 2.577 2.577 0 0 0 .021-.308 2.757 2.757 0 0 0-.01-.32A2.952 2.952 0 0 0 4.9.691a2.648 2.648 0 0 0-.756-.47 3.136 3.136 0 0 0-.654-.19A2.692 2.692 0 0 0 3.057 0H2.9l.151.021a3.539 3.539 0 0 1 .419.084 2.951 2.951 0 0 1 .61.248 3 3 0 0 1 .67.5 2.751 2.751 0 0 1 .82 1.826 2.525 2.525 0 0 1 0 .274 2.465 2.465 0 0 1-.031.292 2.739 2.739 0 0 1-.147.545 2.672 2.672 0 0 1-.637.966 2.753 2.753 0 0 1-2.117.757 2.8 2.8 0 0 1-1.816-.855 2.978 2.978 0 0 1-.487-.676A2.888 2.888 0 0 1 .1 3.375a3.387 3.387 0 0 1-.074-.417l-.017-.151v.152a2.488 2.488 0 0 0 .021.43 2.981 2.981 0 0 0 .17.653 2.59 2.59 0 0 0 .454.758 2.99 2.99 0 0 0 3.246.925" transform="rotate(12.04 -316.285 575.044)" style="stroke:#707070;fill:#fff;stroke-width:.5px"/>
            <path data-name="패스 6438" d="M6.127 4.235A3.158 3.158 0 1 1 4.235.19a3.158 3.158 0 0 1 1.892 4.045" transform="rotate(12.04 -316.078 573.571)" style="stroke:#707070;fill:#fff3a5;stroke-width:.5px"/>
            <path data-name="패스 6439" d="M6.127 4.235A3.158 3.158 0 1 1 4.235.19a3.158 3.158 0 0 1 1.892 4.045z" transform="rotate(12.04 -316.078 573.571)" style="stroke-width:.5px;stroke-miterlimit:10;stroke:#000;fill:none"/>
        </g>
    </g>
</svg>
