<svg xmlns="http://www.w3.org/2000/svg" width="400" height="240" viewBox="0 0 400 240">
    <defs>
        <clipPath id="0vfgzjm4aa">
            <path data-name="사각형 2030" style="stroke-width:.5px;stroke:#707070;fill:none" d="M0 0h164.913v213.62H0z"/>
        </clipPath>
    </defs>
    <path style="fill:none" d="M0 0h400v240H0z"/>
    <g data-name="그룹 3262">
        <g data-name="그룹 3275">
            <g data-name="그룹 3273">
                <path data-name="패스 6623" d="m101.327 39.737 2.813-3.752 1.173-1.565c2.766-3.691-4.65-13.922-16.564-22.852S64.934-1.609 62.167 2.082l-1.173 1.564L58.181 7.4" transform="translate(35.465 81.391)" style="fill:#222426"/>
                <path data-name="패스 6624" d="m101.327 39.737 2.813-3.752 1.173-1.565c2.766-3.691-4.65-13.922-16.564-22.852S64.934-1.609 62.167 2.082l-1.173 1.564L58.181 7.4" transform="translate(35.465 81.391)" style="fill:#222426"/>
                <path data-name="패스 6625" d="M84.786 16.674c11.914 8.926 19.33 19.161 16.563 22.852s-14.667-.556-26.581-9.487S55.438 10.878 58.2 7.187s14.667.557 26.581 9.487" transform="translate(35.442 81.603)" style="fill:#222426"/>
                <path data-name="패스 6626" d="M84.786 16.674c11.914 8.926 19.33 19.161 16.563 22.852s-14.667-.556-26.581-9.487S55.438 10.878 58.2 7.187s14.671.557 26.586 9.487z" transform="translate(35.442 81.603)" style="fill:#222426"/>
                <path data-name="패스 6627" d="M93.263 29.865c2.571 3.057 4.39 5.143 3.563 6.246-1.653 2.206-10.7-1.78-20.2-8.9s-15.863-14.685-14.211-16.89c.76-1.014 2.442-.365 5.652.941" transform="translate(35.63 81.767)" style="fill:#222426"/>
                <path data-name="패스 6628" d="M93.263 29.865c2.571 3.057 4.39 5.143 3.563 6.246-1.653 2.206-10.7-1.78-20.2-8.9s-15.863-14.685-14.211-16.89c.76-1.014 2.442-.365 5.652.941" transform="translate(35.63 81.767)" style="fill:#222426"/>
                <path data-name="선 1148" transform="translate(97.125 82.146)" style="fill:#fff" d="M0 5.067 3.798 0"/>
                <path data-name="선 1149" transform="translate(97.125 82.146)" style="fill:none" d="M0 5.067 3.798 0"/>
                <path data-name="선 1150" transform="translate(136.997 112.032)" style="fill:#fff" d="M0 5.067 3.798 0"/>
                <path data-name="선 1151" transform="translate(136.997 112.032)" style="fill:none" d="M0 5.067 3.798 0"/>
                <path data-name="선 1152" transform="translate(135.565 108.662)" style="fill:#fff" d="M0 5.067 3.798 0"/>
                <path data-name="선 1153" transform="translate(135.565 108.662)" style="fill:none" d="M0 5.067 3.798 0"/>
                <path data-name="선 1154" transform="translate(131.597 103.563)" style="fill:#fff" d="M0 5.067 3.798 0"/>
                <path data-name="선 1155" transform="translate(131.597 103.563)" style="fill:none" d="M0 5.067 3.798 0"/>
                <path data-name="선 1156" transform="translate(124.955 96.753)" style="fill:#fff" d="M0 5.067 3.798 0"/>
                <path data-name="선 1157" transform="translate(124.955 96.753)" style="fill:none" d="M0 5.067 3.798 0"/>
                <path data-name="선 1158" transform="translate(117.004 90.793)" style="fill:#fff" d="M0 5.067 3.798 0"/>
                <path data-name="선 1159" transform="translate(117.004 90.793)" style="fill:none" d="M0 5.067 3.798 0"/>
                <path data-name="선 1160" transform="translate(108.873 85.765)" style="fill:#fff" d="M0 5.067 3.798 0"/>
                <path data-name="선 1161" transform="translate(108.873 85.765)" style="fill:none" d="M0 5.067 3.798 0"/>
                <path data-name="선 1162" transform="translate(101.156 82.872)" style="fill:#fff" d="M0 5.067 3.798 0"/>
                <path data-name="선 1163" transform="translate(101.156 82.872)" style="fill:none" d="M0 5.067 3.798 0"/>
                <path data-name="패스 6630" d="m.971 63.246 1.487 2.662.621 1.11c1.463 2.618 9.5.912 17.954-3.811S35.15 52.534 33.688 49.915l-.621-1.11-1.488-2.663" transform="translate(29.278 82.53)" style="fill:#222426"/>
                <path data-name="패스 6633" d="M8.581 61.012c-2.5.722-4.215 1.251-4.652.469-.875-1.565 3.882-5.886 10.622-9.653s12.914-5.553 13.789-3.988c.4.72-.428 1.548-2.052 3.111" transform="translate(33.211 83.32)" style="fill:#222426"/>
                <path data-name="패스 6634" d="M8.581 61.012c-2.5.722-4.215 1.251-4.652.469-.875-1.565 3.882-5.886 10.622-9.653s12.914-5.553 13.789-3.988c.4.72-.428 1.548-2.052 3.111" transform="translate(33.211 83.32)" style="fill:#222426"/>
                <path data-name="선 1164" transform="translate(64.691 131.9)" style="fill:#fff" d="m0 0 2.009 3.595"/>
                <path data-name="선 1166" transform="translate(36.404 147.706)" style="fill:#fff" d="m0 0 2.009 3.595"/>
                <path data-name="선 1167" transform="translate(36.404 147.706)" style="fill:none" d="m0 0 2.009 3.595"/>
                <path data-name="선 1168" transform="translate(38.785 147.745)" style="fill:#fff" d="m0 0 2.009 3.595"/>
                <path data-name="선 1169" transform="translate(38.785 147.745)" style="fill:none" d="m0 0 2.009 3.595"/>
                <path data-name="선 1170" transform="translate(42.862 146.733)" style="fill:#fff" d="m0 0 2.009 3.595"/>
                <path data-name="선 1171" transform="translate(42.862 146.733)" style="fill:none" d="m0 0 2.009 3.595"/>
                <path data-name="선 1172" transform="translate(48.664 144.583)" style="fill:#fff" d="m0 0 2.009 3.595"/>
                <path data-name="선 1173" transform="translate(48.664 144.583)" style="fill:none" d="m0 0 2.009 3.595"/>
                <path data-name="선 1174" transform="translate(54.304 141.431)" style="fill:#fff" d="m0 0 2.009 3.595"/>
                <path data-name="선 1175" transform="translate(54.304 141.431)" style="fill:none" d="m0 0 2.009 3.595"/>
                <path data-name="선 1176" transform="translate(59.439 137.926)" style="fill:#fff" d="m0 0 2.009 3.595"/>
                <path data-name="선 1177" transform="translate(59.439 137.926)" style="fill:none" d="m0 0 2.009 3.595"/>
                <path data-name="선 1178" transform="translate(63.196 134.104)" style="fill:#fff" d="m0 0 2.009 3.595"/>
                <path data-name="패스 6635" d="m284.129 72.39 5.207 6.789c4.848 7.683 19.772 6.724 33.333-2.142s20.623-22.282 15.774-29.965l-5.334-7.225" transform="translate(44.836 83.012)" style="fill:#222426"/>
                <path data-name="패스 6636" d="m284.129 72.39 5.207 6.789c4.848 7.683 19.772 6.724 33.333-2.142s20.623-22.282 15.774-29.965l-5.334-7.225" transform="translate(44.836 81.218)" style="fill:#222426"/>
                <path data-name="패스 6637" d="M317.224 69.849c13.561-8.866 20.623-22.282 15.776-29.965s-19.772-6.725-33.333 2.141-20.625 22.282-15.776 29.965 19.772 6.725 33.333-2.141" transform="translate(44.762 82.799)" style="fill:#222426"/>
                <path data-name="패스 6638" d="M317.224 69.849c13.561-8.866 20.623-22.282 15.776-29.965s-19.772-6.725-33.333 2.141-20.625 22.282-15.776 29.965 19.772 6.725 33.333-2.141z" transform="translate(44.762 82.799)" style="fill:#222426"/>
                <path data-name="패스 6639" d="M324.58 54.368c2.6-4.035 3.386-7.9 1.724-10.534-3.151-4.994-13.908-3.682-24.025 2.933s-15.763 16.025-12.611 21.019c1.714 2.715 5.674 3.566 10.557 2.715" transform="translate(45.029 83.052)" style="fill:#222426"/>
                <path data-name="패스 6640" d="M324.58 54.368c2.6-4.035 3.386-7.9 1.724-10.534-3.151-4.994-13.908-3.682-24.025 2.933s-15.763 16.025-12.611 21.019c1.714 2.715 5.674 3.566 10.557 2.715" transform="translate(45.029 83.052)" style="fill:#222426"/>
                <path data-name="선 1180" transform="translate(379.238 130.332)" style="fill:#fff" d="m0 0 5.411 5.882"/>
                <path data-name="선 1181" transform="translate(379.238 130.332)" style="fill:none" d="m0 0 5.411 5.882"/>
                <path data-name="선 1182" transform="translate(338.387 160.134)" style="fill:#fff" d="m0 0 6.422 7.221"/>
                <path data-name="선 1183" transform="translate(338.387 160.134)" style="fill:none" d="m0 0 6.422 7.221"/>
                <path data-name="선 1184" transform="translate(344.995 159.766)" style="fill:#fff" d="m0 0 6.299 7.083"/>
                <path data-name="선 1185" transform="translate(344.995 159.766)" style="fill:none" d="m0 0 6.299 7.083"/>
                <path data-name="선 1186" transform="translate(353.432 157.182)" style="fill:#fff" d="m0 0 6.053 6.806"/>
                <path data-name="선 1187" transform="translate(353.432 157.182)" style="fill:none" d="m0 0 6.053 6.806"/>
                <path data-name="선 1188" transform="translate(363.714 151.461)" style="fill:#fff" d="m0 0 6.171 6.938"/>
                <path data-name="선 1189" transform="translate(363.714 151.461)" style="fill:none" d="m0 0 6.171 6.938"/>
                <path data-name="선 1190" transform="translate(373.504 143.326)" style="fill:#fff" d="m0 0 5.564 6.256"/>
                <path data-name="선 1191" transform="translate(373.504 143.326)" style="fill:none" d="m0 0 5.564 6.256"/>
                <path data-name="선 1192" transform="translate(377.527 135.682)" style="fill:#fff" d="m0 0 5.865 6.595"/>
                <path data-name="선 1193" transform="translate(377.527 135.682)" style="fill:none" d="m0 0 5.865 6.595"/>
            </g>
            <g data-name="그룹 3272">
                <path data-name="패스 6623" d="m101.86 40.219 2.848-3.8 1.187-1.585c2.8-3.737-4.708-14.094-16.768-23.134S65.017-1.638 62.216 2.1l-1.187 1.582-2.848 3.8" transform="translate(30.37 77.421)" style="fill:#fff;stroke-width:.5px;stroke:#707070"/>
                <path data-name="패스 6624" d="m101.86 40.219 2.848-3.8 1.187-1.585c2.8-3.737-4.708-14.094-16.768-23.134S65.017-1.638 62.216 2.1l-1.187 1.582-2.848 3.8" transform="translate(30.37 77.421)" style="stroke-miterlimit:10;stroke-linecap:round;stroke:#000;stroke-width:.5px;fill:none"/>
                <path data-name="패스 6625" d="M85.121 16.807c12.062 9.04 19.57 19.4 16.768 23.134s-14.848-.563-26.91-9.6S55.411 10.94 58.211 7.2s14.848.564 26.91 9.6" transform="translate(30.34 77.699)" style="fill:#fff;stroke-width:.5px;stroke:#707070"/>
                <path data-name="패스 6626" d="M85.121 16.807c12.062 9.04 19.57 19.4 16.768 23.134s-14.848-.563-26.91-9.6S55.411 10.94 58.211 7.2s14.849.568 26.91 9.607z" transform="translate(30.34 77.699)" style="stroke-miterlimit:10;stroke-linecap:round;stroke:#000;stroke-width:.5px;fill:none"/>
                <path data-name="패스 6627" d="M93.647 30.113c2.6 3.095 4.444 5.206 3.607 6.323-1.673 2.233-10.828-1.8-20.448-9.011s-16.061-14.865-14.388-17.1c.77-1.027 2.472-.369 5.722.953" transform="translate(30.587 77.914)" style="fill:#fff;stroke-width:.5px;stroke:#707070"/>
                <path data-name="패스 6628" d="M93.647 30.113c2.6 3.095 4.444 5.206 3.607 6.323-1.673 2.233-10.828-1.8-20.448-9.011s-16.061-14.865-14.388-17.1c.77-1.027 2.472-.369 5.722.953" transform="translate(30.587 77.914)" style="stroke-miterlimit:10;stroke-linecap:round;stroke:#000;stroke-width:.5px;fill:none"/>
                <path data-name="선 1148" transform="translate(92.073 78.177)" style="fill:#fff;stroke-width:.5px;stroke:#707070" d="M0 5.129 3.845 0"/>
                <path data-name="선 1149" transform="translate(92.073 78.177)" style="stroke-miterlimit:10;stroke-linecap:round;stroke:#000;stroke-width:.5px;fill:none" d="M0 5.129 3.845 0"/>
                <path data-name="선 1150" transform="translate(132.439 108.431)" style="fill:#fff;stroke-width:.5px;stroke:#707070" d="M0 5.129 3.845 0"/>
                <path data-name="선 1151" transform="translate(132.439 108.431)" style="stroke-miterlimit:10;stroke-linecap:round;stroke:#000;stroke-width:.5px;fill:none" d="M0 5.129 3.845 0"/>
                <path data-name="선 1152" transform="translate(130.989 105.02)" style="fill:#fff;stroke-width:.5px;stroke:#707070" d="M0 5.129 3.845 0"/>
                <path data-name="선 1153" transform="translate(130.989 105.02)" style="stroke-miterlimit:10;stroke-linecap:round;stroke:#000;stroke-width:.5px;fill:none" d="M0 5.129 3.845 0"/>
                <path data-name="선 1154" transform="translate(126.972 99.858)" style="fill:#fff;stroke-width:.5px;stroke:#707070" d="M0 5.129 3.845 0"/>
                <path data-name="선 1155" transform="translate(126.972 99.858)" style="stroke-miterlimit:10;stroke-linecap:round;stroke:#000;stroke-width:.5px;fill:none" d="M0 5.129 3.845 0"/>
                <path data-name="선 1156" transform="translate(120.248 92.963)" style="fill:#fff;stroke-width:.5px;stroke:#707070" d="M0 5.129 3.845 0"/>
                <path data-name="선 1157" transform="translate(120.248 92.963)" style="stroke-miterlimit:10;stroke-linecap:round;stroke:#000;stroke-width:.5px;fill:none" d="M0 5.129 3.845 0"/>
                <path data-name="선 1158" transform="translate(112.199 86.93)" style="fill:#fff;stroke-width:.5px;stroke:#707070" d="M0 5.129 3.845 0"/>
                <path data-name="선 1159" transform="translate(112.199 86.93)" style="stroke-miterlimit:10;stroke-linecap:round;stroke:#000;stroke-width:.5px;fill:none" d="M0 5.129 3.845 0"/>
                <path data-name="선 1160" transform="translate(103.967 81.84)" style="fill:#fff;stroke-width:.5px;stroke:#707070" d="M0 5.129 3.845 0"/>
                <path data-name="선 1161" transform="translate(103.967 81.84)" style="stroke-miterlimit:10;stroke-linecap:round;stroke:#000;stroke-width:.5px;fill:none" d="M0 5.129 3.845 0"/>
                <path data-name="선 1162" transform="translate(96.154 78.911)" style="fill:#fff;stroke-width:.5px;stroke:#707070" d="M0 5.129 3.845 0"/>
                <path data-name="선 1163" transform="translate(96.154 78.911)" style="stroke-miterlimit:10;stroke-linecap:round;stroke:#000;stroke-width:.5px;fill:none" d="M0 5.129 3.845 0"/>
                <path data-name="패스 6629" d="m.971 63.458 1.506 2.695.623 1.123c1.481 2.651 9.619.924 18.176-3.858s14.296-10.805 12.816-13.456l-.628-1.124-1.507-2.7" transform="translate(27.262 79.888)" style="fill:#fff;stroke-width:.5px;stroke:#707070"/>
                <path data-name="패스 6630" d="m.971 63.458 1.506 2.695.623 1.123c1.481 2.651 9.619.924 18.176-3.858s14.296-10.805 12.816-13.456l-.628-1.124-1.507-2.7" transform="translate(27.262 79.888)" style="stroke-miterlimit:10;stroke-linecap:round;stroke:#000;stroke-width:.5px;fill:none"/>
                <path data-name="패스 6631" d="M19.158 59.664C10.6 64.445 2.463 66.172.983 63.522s4.254-8.675 12.811-13.457 16.693-6.508 18.175-3.858-4.254 8.675-12.811 13.457" transform="translate(27.25 79.824)" style="fill:#fff;stroke-width:.5px;stroke:#707070"/>
                <path data-name="패스 6632" d="M19.158 59.664C10.6 64.445 2.463 66.172.983 63.522s4.254-8.675 12.811-13.457 16.693-6.508 18.175-3.858-4.254 8.675-12.811 13.457z" transform="translate(27.25 79.824)" style="stroke-miterlimit:10;stroke-linecap:round;stroke:#000;stroke-width:.5px;fill:none"/>
                <path data-name="패스 6633" d="M8.64 61.182c-2.526.731-4.267 1.266-4.71.474-.886-1.585 3.93-5.959 10.753-9.773s13.074-5.621 13.96-4.037c.407.729-.433 1.567-2.077 3.149" transform="translate(27.417 79.949)" style="fill:#fff;stroke-width:.5px;stroke:#707070"/>
                <path data-name="패스 6634" d="M8.64 61.182c-2.526.731-4.267 1.266-4.71.474-.886-1.585 3.93-5.959 10.753-9.773s13.074-5.621 13.96-4.037c.407.729-.433 1.567-2.077 3.149" transform="translate(27.417 79.949)" style="stroke-miterlimit:10;stroke-linecap:round;stroke:#000;stroke-width:.5px;fill:none"/>
                <path data-name="선 1164" transform="translate(59.238 128.545)" style="fill:#fff;stroke-width:.5px;stroke:#707070" d="m0 0 2.034 3.64"/>
                <path data-name="선 1165" transform="translate(59.238 128.545)" style="stroke-miterlimit:10;stroke-linecap:round;stroke:#000;stroke-width:.5px;fill:none" d="m0 0 2.034 3.64"/>
                <path data-name="선 1166" transform="translate(30.602 144.547)" style="fill:#fff;stroke-width:.5px;stroke:#707070" d="m0 0 2.034 3.64"/>
                <path data-name="선 1167" transform="translate(30.602 144.547)" style="stroke-miterlimit:10;stroke-linecap:round;stroke:#000;stroke-width:.5px;fill:none" d="m0 0 2.034 3.64"/>
                <path data-name="선 1168" transform="translate(33.012 144.586)" style="fill:#fff;stroke-width:.5px;stroke:#707070" d="m0 0 2.034 3.64"/>
                <path data-name="선 1169" transform="translate(33.012 144.586)" style="stroke-miterlimit:10;stroke-linecap:round;stroke:#000;stroke-width:.5px;fill:none" d="m0 0 2.034 3.64"/>
                <path data-name="선 1170" transform="translate(37.14 143.561)" style="fill:#fff;stroke-width:.5px;stroke:#707070" d="m0 0 2.034 3.64"/>
                <path data-name="선 1171" transform="translate(37.14 143.561)" style="stroke-miterlimit:10;stroke-linecap:round;stroke:#000;stroke-width:.5px;fill:none" d="m0 0 2.034 3.64"/>
                <path data-name="선 1172" transform="translate(43.013 141.385)" style="fill:#fff;stroke-width:.5px;stroke:#707070" d="m0 0 2.034 3.64"/>
                <path data-name="선 1173" transform="translate(43.013 141.385)" style="stroke-miterlimit:10;stroke-linecap:round;stroke:#000;stroke-width:.5px;fill:none" d="m0 0 2.034 3.64"/>
                <path data-name="선 1174" transform="translate(48.723 138.194)" style="fill:#fff;stroke-width:.5px;stroke:#707070" d="m0 0 2.034 3.64"/>
                <path data-name="선 1175" transform="translate(48.723 138.194)" style="stroke-miterlimit:10;stroke-linecap:round;stroke:#000;stroke-width:.5px;fill:none" d="m0 0 2.034 3.64"/>
                <path data-name="선 1176" transform="translate(53.921 134.646)" style="fill:#fff;stroke-width:.5px;stroke:#707070" d="m0 0 2.034 3.64"/>
                <path data-name="선 1177" transform="translate(53.921 134.646)" style="stroke-miterlimit:10;stroke-linecap:round;stroke:#000;stroke-width:.5px;fill:none" d="m0 0 2.034 3.64"/>
                <path data-name="선 1178" transform="translate(57.725 130.776)" style="fill:#fff;stroke-width:.5px;stroke:#707070" d="m0 0 2.034 3.64"/>
                <path data-name="선 1179" transform="translate(57.725 130.776)" style="stroke-miterlimit:10;stroke-linecap:round;stroke:#000;stroke-width:.5px;fill:none" d="m0 0 2.034 3.64"/>
                <path data-name="패스 6635" d="m284.129 72.792 5.272 6.873c4.908 7.778 20.017 6.807 33.745-2.169s20.878-22.558 15.969-30.336l-5.4-7.314" transform="translate(42.65 79.546)" style="fill:#fff;stroke-width:.5px;stroke:#707070"/>
                <path data-name="패스 6636" d="m284.129 72.792 5.272 6.873c4.908 7.778 20.017 6.807 33.745-2.169s20.878-22.558 15.969-30.336l-5.4-7.314" transform="translate(42.65 79.546)" style="stroke-miterlimit:10;stroke-linecap:round;stroke:#000;stroke-width:.5px;fill:none"/>
                <path data-name="패스 6637" d="M317.655 70.283c13.729-8.976 20.878-22.558 15.969-30.336s-20.017-6.808-33.745 2.168S279 64.673 283.91 72.451s20.017 6.808 33.745-2.168" transform="translate(42.554 79.266)" style="fill:#fff;stroke-width:.5px;stroke:#707070"/>
                <path data-name="패스 6638" d="M317.655 70.283c13.729-8.976 20.878-22.558 15.969-30.336s-20.017-6.808-33.745 2.168S279 64.673 283.91 72.451s20.017 6.808 33.745-2.168z" transform="translate(42.554 79.266)" style="stroke-miterlimit:10;stroke-linecap:round;stroke:#000;stroke-width:.5px;fill:none"/>
                <path data-name="패스 6639" d="M325.022 54.536c2.632-4.085 3.428-8 1.745-10.665-3.19-5.056-14.08-3.727-24.322 2.969s-15.958 16.223-12.767 21.279c1.735 2.749 5.744 3.61 10.688 2.749" transform="translate(42.903 79.598)" style="fill:#fff;stroke-width:.5px;stroke:#707070"/>
                <path data-name="패스 6640" d="M325.022 54.536c2.632-4.085 3.428-8 1.745-10.665-3.19-5.056-14.08-3.727-24.322 2.969s-15.958 16.223-12.767 21.279c1.735 2.749 5.744 3.61 10.688 2.749" transform="translate(42.903 79.598)" style="stroke-miterlimit:10;stroke-linecap:round;stroke:#000;stroke-width:.5px;fill:none"/>
                <path data-name="선 1180" transform="translate(377.673 126.957)" style="fill:#fff;stroke-width:.5px;stroke:#707070" d="m0 0 5.478 5.955"/>
                <path data-name="선 1181" transform="translate(377.673 126.957)" style="stroke-miterlimit:10;stroke-linecap:round;stroke:#000;stroke-width:.5px;fill:none" d="m0 0 5.478 5.955"/>
                <path data-name="선 1182" transform="translate(336.318 157.128)" style="fill:#fff;stroke-width:.5px;stroke:#707070" d="m0 0 6.501 7.31"/>
                <path data-name="선 1183" transform="translate(336.318 157.128)" style="stroke-miterlimit:10;stroke-linecap:round;stroke:#000;stroke-width:.5px;fill:none" d="m0 0 6.501 7.31"/>
                <path data-name="선 1184" transform="translate(343.008 156.756)" style="fill:#fff;stroke-width:.5px;stroke:#707070" d="m0 0 6.377 7.171"/>
                <path data-name="선 1185" transform="translate(343.008 156.756)" style="stroke-miterlimit:10;stroke-linecap:round;stroke:#000;stroke-width:.5px;fill:none" d="m0 0 6.377 7.171"/>
                <path data-name="선 1186" transform="translate(351.549 154.14)" style="fill:#fff;stroke-width:.5px;stroke:#707070" d="m0 0 6.128 6.89"/>
                <path data-name="선 1187" transform="translate(351.549 154.14)" style="stroke-miterlimit:10;stroke-linecap:round;stroke:#000;stroke-width:.5px;fill:none" d="m0 0 6.128 6.89"/>
                <path data-name="선 1188" transform="translate(361.958 148.348)" style="fill:#fff;stroke-width:.5px;stroke:#707070" d="m0 0 6.247 7.024"/>
                <path data-name="선 1189" transform="translate(361.958 148.348)" style="stroke-miterlimit:10;stroke-linecap:round;stroke:#000;stroke-width:.5px;fill:none" d="m0 0 6.247 7.024"/>
                <path data-name="선 1190" transform="translate(371.869 140.112)" style="fill:#fff;stroke-width:.5px;stroke:#707070" d="m0 0 5.632 6.333"/>
                <path data-name="선 1191" transform="translate(371.869 140.112)" style="stroke-miterlimit:10;stroke-linecap:round;stroke:#000;stroke-width:.5px;fill:none" d="m0 0 5.632 6.333"/>
                <path data-name="선 1192" transform="translate(375.942 132.374)" style="fill:#fff;stroke-width:.5px;stroke:#707070" d="m0 0 5.937 6.676"/>
                <path data-name="선 1193" transform="translate(375.942 132.374)" style="stroke-miterlimit:10;stroke-linecap:round;stroke:#000;stroke-width:.5px;fill:none" d="m0 0 5.937 6.676"/>
            </g>
        </g>
        <g data-name="그룹 3261">
            <g data-name="그룹 3260" style="clip-path:url(#0vfgzjm4aa)" transform="translate(118 13.001)">
                <path data-name="패스 6641" d="m153.729 212.873-136.814.326a10.036 10.036 0 0 1-9.841-10.224L6.66 13.754a10.041 10.041 0 0 1 9.8-10.271l136.814-.326a10.036 10.036 0 0 1 9.84 10.224l.414 189.221a10.042 10.042 0 0 1-9.795 10.271"/>
                <path data-name="패스 6643" d="m159.02 207.081-144.906.331a6.653 6.653 0 0 1-6.668-6.638L7 7.6A6.653 6.653 0 0 1 13.642.931L158.548.6a6.653 6.653 0 0 1 6.668 6.638l.441 193.175a6.653 6.653 0 0 1-6.638 6.668" transform="translate(-1.239 -.106)" style="fill:#fff;stroke-width:.5px;stroke:#707070"/>
                <path data-name="패스 6644" d="m159.02 207.081-144.906.331a6.653 6.653 0 0 1-6.668-6.638L7 7.6A6.653 6.653 0 0 1 13.642.931L158.548.6a6.653 6.653 0 0 1 6.668 6.638l.441 193.175a6.653 6.653 0 0 1-6.637 6.668z" transform="translate(-1.239 -.106)" style="stroke-linejoin:round;stroke-linecap:round;stroke:#000;stroke-width:.5px;fill:none"/>
                <path data-name="패스 6645" d="m137.982 80.1-89.821.206A11.817 11.817 0 0 1 36.317 68.52l-.053-23.084a11.816 11.816 0 0 1 11.79-11.843l89.821-.206a11.818 11.818 0 0 1 11.844 11.79l.053 23.084a11.816 11.816 0 0 1-11.79 11.839" transform="translate(-6.413 -5.904)" style="fill:#f7f7f7;stroke-width:.5px;stroke:#707070"/>
                <path data-name="패스 6646" d="m137.982 80.1-89.821.206A11.817 11.817 0 0 1 36.317 68.52l-.053-23.084a11.816 11.816 0 0 1 11.79-11.843l89.821-.206a11.818 11.818 0 0 1 11.844 11.79l.053 23.084a11.816 11.816 0 0 1-11.79 11.839z" transform="translate(-6.413 -5.904)" style="stroke-linejoin:round;stroke-linecap:round;stroke:#000;stroke-width:.5px;fill:none"/>
                <path data-name="패스 6672" d="m56.96 130.715-18.34.042a2.29 2.29 0 0 1-2.3-2.285l-.042-18.34a2.291 2.291 0 0 1 2.285-2.3l18.341-.041a2.289 2.289 0 0 1 2.295 2.284l.042 18.34a2.291 2.291 0 0 1-2.281 2.3z" transform="translate(-6.416 -19.064)" style="stroke-linejoin:round;stroke-linecap:round;stroke:#000;stroke-width:.5px;fill:none"/>
                <g data-name="그룹 3269">
                    <path data-name="패스 6649" d="m50.932 112.921-19.453.044a2.29 2.29 0 0 1-2.3-2.285l-.041-18.34a2.29 2.29 0 0 1 2.284-2.3l19.453-.044a2.291 2.291 0 0 1 2.3 2.285l.042 18.34a2.291 2.291 0 0 1-2.285 2.3"/>
                    <path data-name="패스 6651" d="m80.996 112.921-19.453.044a2.289 2.289 0 0 1-2.295-2.285l-.042-18.34a2.29 2.29 0 0 1 2.285-2.3l19.453-.044a2.289 2.289 0 0 1 2.295 2.284l.042 18.34a2.291 2.291 0 0 1-2.285 2.3"/>
                    <path data-name="패스 6707" d="m110.837 112.921-19.453.044a2.289 2.289 0 0 1-2.295-2.285l-.042-18.34a2.29 2.29 0 0 1 2.285-2.3l19.453-.044a2.289 2.289 0 0 1 2.295 2.284l.042 18.34a2.291 2.291 0 0 1-2.285 2.3"/>
                    <path data-name="패스 6709" d="m140.678 112.921-19.453.044a2.289 2.289 0 0 1-2.295-2.285l-.042-18.34a2.29 2.29 0 0 1 2.285-2.3l19.453-.044a2.289 2.289 0 0 1 2.295 2.284l.042 18.34a2.291 2.291 0 0 1-2.285 2.3"/>
                    <path data-name="패스 6671" d="m56.96 130.715-18.34.042a2.29 2.29 0 0 1-2.3-2.285l-.042-18.34a2.291 2.291 0 0 1 2.285-2.3l18.341-.041a2.289 2.289 0 0 1 2.295 2.284l.042 18.34a2.291 2.291 0 0 1-2.285 2.3" transform="translate(-6.417 -19.063)" style="stroke:#222426;fill:#fff;stroke-width:.5px"/>
                    <path data-name="패스 6673" d="m93.7 130.631-18.34.042a2.29 2.29 0 0 1-2.3-2.285l-.042-18.34a2.291 2.291 0 0 1 2.285-2.3l18.341-.042A2.29 2.29 0 0 1 95.942 110l.042 18.34a2.291 2.291 0 0 1-2.285 2.3" transform="translate(-13.315 -19.049)" style="stroke:#222426;fill:#fff;stroke-width:.5px"/>
                    <path data-name="패스 6706" d="m93.7 130.631-18.34.042a2.29 2.29 0 0 1-2.3-2.285l-.042-18.34a2.291 2.291 0 0 1 2.285-2.3l18.341-.042A2.29 2.29 0 0 1 95.942 110l.042 18.34a2.291 2.291 0 0 1-2.285 2.3" transform="translate(16.525 -19.049)" style="stroke:#222426;fill:#fff;stroke-width:.5px"/>
                    <path data-name="패스 6708" d="m93.7 130.631-18.34.042a2.29 2.29 0 0 1-2.3-2.285l-.042-18.34a2.291 2.291 0 0 1 2.285-2.3l18.341-.042A2.29 2.29 0 0 1 95.942 110l.042 18.34a2.291 2.291 0 0 1-2.285 2.3" transform="translate(46.366 -19.049)" style="stroke:#222426;fill:#fff;stroke-width:.5px"/>
                </g>
                <g data-name="그룹 3270">
                    <path data-name="패스 6649" d="m50.932 147.921-19.453.044a2.29 2.29 0 0 1-2.3-2.285l-.041-18.34a2.29 2.29 0 0 1 2.284-2.3l19.453-.044a2.291 2.291 0 0 1 2.3 2.285l.042 18.34a2.291 2.291 0 0 1-2.285 2.3"/>
                    <path data-name="패스 6651" d="m80.996 147.921-19.453.044a2.289 2.289 0 0 1-2.295-2.285l-.042-18.34a2.29 2.29 0 0 1 2.285-2.3l19.453-.044a2.289 2.289 0 0 1 2.295 2.284l.042 18.34a2.291 2.291 0 0 1-2.285 2.3"/>
                    <path data-name="패스 6707" d="m110.837 147.921-19.453.044a2.289 2.289 0 0 1-2.295-2.285l-.042-18.34a2.29 2.29 0 0 1 2.285-2.3l19.453-.044a2.289 2.289 0 0 1 2.295 2.284l.042 18.34a2.291 2.291 0 0 1-2.285 2.3"/>
                    <path data-name="패스 6709" d="m140.678 147.921-19.453.044a2.289 2.289 0 0 1-2.295-2.285l-.042-18.34a2.29 2.29 0 0 1 2.285-2.3l19.453-.044a2.289 2.289 0 0 1 2.295 2.284l.042 18.34a2.291 2.291 0 0 1-2.285 2.3"/>
                    <path data-name="패스 6671" d="m56.96 130.715-18.34.042a2.29 2.29 0 0 1-2.3-2.285l-.042-18.34a2.291 2.291 0 0 1 2.285-2.3l18.341-.041a2.289 2.289 0 0 1 2.295 2.284l.042 18.34a2.291 2.291 0 0 1-2.285 2.3" transform="translate(-6.417 15.937)" style="stroke:#222426;fill:#fff;stroke-width:.5px"/>
                    <path data-name="패스 6673" d="m93.7 130.631-18.34.042a2.29 2.29 0 0 1-2.3-2.285l-.042-18.34a2.291 2.291 0 0 1 2.285-2.3l18.341-.042A2.29 2.29 0 0 1 95.942 110l.042 18.34a2.291 2.291 0 0 1-2.285 2.3" transform="translate(-13.315 15.951)" style="stroke:#222426;fill:#fff;stroke-width:.5px"/>
                    <path data-name="패스 6706" d="m93.7 130.631-18.34.042a2.29 2.29 0 0 1-2.3-2.285l-.042-18.34a2.291 2.291 0 0 1 2.285-2.3l18.341-.042A2.29 2.29 0 0 1 95.942 110l.042 18.34a2.291 2.291 0 0 1-2.285 2.3" transform="translate(16.525 15.951)" style="stroke:#222426;fill:#fff;stroke-width:.5px"/>
                    <path data-name="패스 6708" d="m93.7 130.631-18.34.042a2.29 2.29 0 0 1-2.3-2.285l-.042-18.34a2.291 2.291 0 0 1 2.285-2.3l18.341-.042A2.29 2.29 0 0 1 95.942 110l.042 18.34a2.291 2.291 0 0 1-2.285 2.3" transform="translate(46.366 15.951)" style="stroke:#222426;fill:#fff;stroke-width:.5px"/>
                </g>
                <g data-name="그룹 3271">
                    <path data-name="패스 6649" d="m50.932 184.193-19.453.044a2.29 2.29 0 0 1-2.3-2.285l-.041-18.34a2.29 2.29 0 0 1 2.284-2.3l19.453-.044a2.291 2.291 0 0 1 2.3 2.285l.042 18.34a2.291 2.291 0 0 1-2.285 2.3"/>
                    <path data-name="패스 6651" d="m80.996 184.193-19.453.044a2.289 2.289 0 0 1-2.295-2.285l-.042-18.34a2.29 2.29 0 0 1 2.285-2.3l19.453-.044a2.289 2.289 0 0 1 2.295 2.284l.042 18.34a2.291 2.291 0 0 1-2.285 2.3"/>
                    <path data-name="합치기 4" d="m120.828 184.204-14.444.033a2.289 2.289 0 0 1-.4-.034l-14.6.034a2.288 2.288 0 0 1-2.294-2.286l-.043-18.339a2.291 2.291 0 0 1 2.285-2.294l19.453-.044a2.3 2.3 0 0 1 .4.033l14.6-.033a2.289 2.289 0 0 1 .395.033l14.447-.033a2.29 2.29 0 0 1 2.295 2.283l.042 18.341a2.289 2.289 0 0 1-2.285 2.294l-19.453.045h-.009a2.311 2.311 0 0 1-.389-.033z"/>
                    <path data-name="패스 6671" d="m56.96 130.715-18.34.042a2.29 2.29 0 0 1-2.3-2.285l-.042-18.34a2.291 2.291 0 0 1 2.285-2.3l18.341-.041a2.289 2.289 0 0 1 2.295 2.284l.042 18.34a2.291 2.291 0 0 1-2.285 2.3" transform="translate(-6.417 52.209)" style="stroke:#222426;fill:#fff;stroke-width:.5px"/>
                    <path data-name="패스 6673" d="m93.7 130.631-18.34.042a2.29 2.29 0 0 1-2.3-2.285l-.042-18.34a2.291 2.291 0 0 1 2.285-2.3l18.341-.042A2.29 2.29 0 0 1 95.942 110l.042 18.34a2.291 2.291 0 0 1-2.285 2.3" transform="translate(-13.315 52.223)" style="stroke:#222426;fill:#fff;stroke-width:.5px"/>
                    <path data-name="합치기 5" d="m8872.143-6650.344-14.6.034a2.327 2.327 0 0 1-.415-.036l-15.586.036a2.29 2.29 0 0 1-2.3-2.283l-.04-18.342a2.288 2.288 0 0 1 2.283-2.294l18.341-.042a2.328 2.328 0 0 1 .411.036l15.59-.036a2.364 2.364 0 0 1 .4.034l14.6-.034a2.291 2.291 0 0 1 2.3 2.286l.04 18.339a2.285 2.285 0 0 1-2.283 2.294l-18.342.042h-.008a2.306 2.306 0 0 1-.391-.034z" transform="translate(-8749.66 6833.205)" style="fill:#ebecee;stroke:#222426;stroke-width:.5px"/>
                </g>
                <path data-name="패스 6704" d="m111.961 50.924 37.679.2" transform="translate(-19.8 -9.006)" style="stroke:#0a1c20;stroke-linejoin:round;stroke-linecap:round;stroke-width:.5px;fill:none"/>
                <path data-name="패스 6705" d="m142.1 57.39 12.741.546" transform="translate(-25.131 -10.149)" style="stroke:#0a1c20;stroke-linejoin:round;stroke-linecap:round;stroke-width:.5px;fill:none"/>
            </g>
        </g>
    </g>
</svg>
