<svg xmlns="http://www.w3.org/2000/svg" width="24" height="24" viewBox="0 0 24 24">
  <defs>
    <style>
      .cls-1 {
        fill: #2c965b;
        opacity: 0;
      }

      .cls-2 {
        fill: #b9c6da;
      }

      .cls-3 {
        fill: #fff;
      }

      .cls-4 {
        fill: #455164;
      }
    </style>
  </defs>
  <g id="ic_사진" transform="translate(-213 -437)">
    <rect id="사각형_5153" data-name="사각형 5153" class="cls-1" width="24" height="24" transform="translate(213 437)"/>
    <g id="그룹_10243" data-name="그룹 10243" transform="translate(214.49 438.49)">
      <g id="그룹_10244" data-name="그룹 10244" transform="translate(0.51 0.51)">
        <path id="패스_10029" data-name="패스 10029" class="cls-2" d="M17.56,20H2.44A2.44,2.44,0,0,1,0,17.56V2.44A2.44,2.44,0,0,1,2.44,0H17.56A2.44,2.44,0,0,1,20,2.44V17.56A2.44,2.44,0,0,1,17.56,20"/>
        <path id="패스_10030" data-name="패스 10030" class="cls-3" d="M54.666,15.759a1.825,1.825,0,1,1-1.825-1.825,1.825,1.825,0,0,1,1.825,1.825" transform="translate(-38.378 -10.482)"/>
        <path id="패스_10031" data-name="패스 10031" class="cls-4" d="M15.982,37.806a2.283,2.283,0,0,1-3.193.043L6.452,31.9a2.288,2.288,0,0,0-3.4.271L0,36.071v5.361a2.494,2.494,0,0,0,2.44,2.545H17.56A2.494,2.494,0,0,0,20,41.432v-7.6Z" transform="translate(0 -23.977)"/>
      </g>
    </g>
  </g>
</svg>
