<svg id="ic_사업자" xmlns="http://www.w3.org/2000/svg" width="20" height="20" viewBox="0 0 20 20">
  <defs>
    <style>
      .cls-1 {
        fill: #bfbfbf;
      }

      .cls-2 {
        fill: #ccc;
      }

      .cls-3 {
        fill: #487cff;
      }

      .cls-4 {
        fill: #fff;
      }
    </style>
  </defs>
  <g id="그룹_9209" data-name="그룹 9209">
    <path id="패스_9297" data-name="패스 9297" class="cls-1" d="M40.675,4.23a.793.793,0,0,1-.782-.8V1.965a.356.356,0,0,0-.351-.36H36.177a.355.355,0,0,0-.351.36V3.428a.782.782,0,1,1-1.564,0V1.965A1.942,1.942,0,0,1,36.177,0h3.365a1.942,1.942,0,0,1,1.915,1.965V3.428a.793.793,0,0,1-.782.8" transform="translate(-27.86)"/>
    <path id="패스_9298" data-name="패스 9298" class="cls-2" d="M17.771,32.085H2.229A2.259,2.259,0,0,1,0,29.8V17.239a2.259,2.259,0,0,1,2.229-2.287H17.771A2.259,2.259,0,0,1,20,17.239V29.8a2.259,2.259,0,0,1-2.229,2.287" transform="translate(0 -12.085)"/>
    <path id="패스_9299" data-name="패스 9299" class="cls-3" d="M16.149,26.629H3.851A3.9,3.9,0,0,1,0,22.677v-5.65a2.05,2.05,0,0,1,2.023-2.076H17.977A2.05,2.05,0,0,1,20,17.028v5.65a3.9,3.9,0,0,1-3.851,3.952" transform="translate(0 -12.085)"/>
    <path id="패스_9300" data-name="패스 9300" class="cls-4" d="M19.488,53.811v-.159a1.115,1.115,0,1,1,2.229,0v.159a1.115,1.115,0,1,1-2.229,0" transform="translate(-15.846 -42.44)"/>
    <path id="패스_9301" data-name="패스 9301" class="cls-4" d="M75.612,53.811v-.159a1.115,1.115,0,1,1,2.229,0v.159a1.115,1.115,0,1,1-2.229,0" transform="translate(-61.482 -42.44)"/>
  </g>
</svg>
