<svg xmlns="http://www.w3.org/2000/svg" width="40" height="40" viewBox="0 0 40 40">
  <defs>
    <style>
      .cls-1 {
        fill: #f1f4f3;
      }

      .cls-1, .cls-2 {
        opacity: 0;
      }

      .cls-2 {
        fill: #ef4040;
      }

      .cls-3 {
        fill: #b9c6da;
      }

      .cls-4 {
        fill: #fff;
      }

      .cls-5 {
        fill: #6e819b;
      }

      .cls-6 {
        fill: #445063;
      }
    </style>
  </defs>
  <g id="ic_모바일_운전면허증_인증" data-name="ic_모바일 운전면허증 인증" transform="translate(-36 -221)">
    <path id="패스_13091" data-name="패스 13091" class="cls-1" d="M20.174,0h-.348C8.877,0,0,3.833,0,19.826v.348C0,36.037,8.877,40,19.826,40h.348C31.124,40,40,36.167,40,20.174v-.348C40,3.7,31.124,0,20.174,0" transform="translate(36 221)"/>
    <g id="ic">
      <g id="ic-2" data-name="ic" transform="translate(0 44)">
        <rect id="사각형_5544" data-name="사각형 5544" class="cls-2" width="24" height="24" transform="translate(44 185)"/>
        <g id="그룹_11076" data-name="그룹 11076" transform="translate(0 -1)">
          <rect id="사각형_5545" data-name="사각형 5545" class="cls-3" width="18" height="24" rx="2" transform="translate(44 186)"/>
          <rect id="사각형_5546" data-name="사각형 5546" class="cls-4" width="12" height="13" rx="1" transform="translate(47 189)"/>
          <circle id="타원_742" data-name="타원 742" class="cls-5" cx="2" cy="2" r="2" transform="translate(51 204)"/>
        </g>
      </g>
      <g id="그룹_11077" data-name="그룹 11077" transform="translate(53.064 236.69)">
        <circle id="타원_744" data-name="타원 744" class="cls-6" cx="8" cy="8" r="8" transform="translate(-1.064 0.31)"/>
        <path id="패스_13093" data-name="패스 13093" class="cls-4" d="M9.654,2.771a1.258,1.258,0,0,0,.3-.089.425.425,0,0,0,.207-.65.592.592,0,0,0-.468-.214c-.245-.011-.493.024-.738.024L8.208.655a1.4,1.4,0,0,0-.775-.6A1.336,1.336,0,0,0,7.042,0H3.193A1.337,1.337,0,0,0,2.8.055a1.4,1.4,0,0,0-.774.6L1.286,1.842c-.245,0-.494-.036-.738-.024a.592.592,0,0,0-.468.214.425.425,0,0,0,.207.65,1.259,1.259,0,0,0,.3.089c.017,0,.128.033.141.02A2.758,2.758,0,0,0,.159,4.355V6.988a.263.263,0,0,0,.01.073.782.782,0,0,0,.767.672H.953a.783.783,0,0,0,.773-.717v-.2H8.5v.174a.263.263,0,0,0,.01.073.782.782,0,0,0,.767.671H9.3a.782.782,0,0,0,.77-.693.267.267,0,0,0,0-.04V4.355a2.755,2.755,0,0,0-.558-1.562c.013.013.125-.017.142-.02M2.648,5.427a.754.754,0,1,1,.749-.76v.005a.749.749,0,0,1-.743.754m5.108,0a.754.754,0,1,1,.749-.76s0,0,0,.005a.749.749,0,0,1-.743.754m.1-2.932h-5.5c-.251,0-.143-.241-.143-.241l.717-1.183A.867.867,0,0,1,3.282.75.616.616,0,0,1,3.565.671H6.671A.616.616,0,0,1,6.953.75a.866.866,0,0,1,.34.322l.716,1.183s.109.24-.143.24" transform="translate(1.818 4.443)"/>
      </g>
    </g>
  </g>
</svg>
