<svg xmlns="http://www.w3.org/2000/svg" width="40" height="40" viewBox="0 0 40 40">
    <path style="fill:none" d="M0 0h40v40H0z"/>
    <g data-name="패스 1828" style="fill:#fff">
        <path d="M11 21.25c-.109 0-.367-.034-.87-.261a9.595 9.595 0 0 1-1.385-.795 15.783 15.783 0 0 1-3.433-3.22c-2.017-2.54-4.237-6.884-3.368-13.17.07-.517.454-.957.976-1.123a91.47 91.47 0 0 1 4.09-1.186C8.897 1.001 10.24.75 11 .75c.76 0 2.102.25 3.993.746 1.519.395 3.062.863 4.09 1.186.52.165.902.605.972 1.12.87 6.288-1.35 10.632-3.365 13.17a15.785 15.785 0 0 1-3.435 3.222 9.595 9.595 0 0 1-1.385.795c-.501.227-.76.261-.87.261z" style="stroke:none" transform="translate(9.001 8.999)"/>
        <path d="M11 1.5c-.478 0-1.526.125-3.799.72-1.356.36-2.72.755-4.054 1.176a.647.647 0 0 0-.46.511c-.833 6.023 1.286 10.175 3.21 12.598l.004.005a15.034 15.034 0 0 0 3.27 3.067c.4.276.828.522 1.271.73.357.16.522.188.558.192.037-.004.202-.031.557-.191a8.847 8.847 0 0 0 1.272-.731 15.031 15.031 0 0 0 3.27-3.067l.004-.005c1.924-2.423 4.043-6.575 3.21-12.6a.644.644 0 0 0-.456-.508c-1.019-.32-2.55-.784-4.054-1.176C12.526 1.625 11.478 1.5 11 1.5M11 0c.986 0 2.633.364 4.183.77 1.586.413 3.184.9 4.124 1.196.802.255 1.382.93 1.492 1.735.851 6.156-1.125 10.719-3.522 13.737a16.545 16.545 0 0 1-3.596 3.373c-.472.327-.973.614-1.497.859-.4.181-.83.33-1.184.33s-.783-.149-1.184-.33a10.319 10.319 0 0 1-1.497-.86 16.548 16.548 0 0 1-3.596-3.372C2.326 14.42.35 9.858 1.2 3.7c.11-.806.69-1.48 1.492-1.735 1.364-.43 2.74-.83 4.124-1.196C8.367.364 10.014 0 11 0z" style="fill:#222426;stroke:none" transform="translate(9.001 8.999)"/>
    </g>
    <path data-name="패스 1416" d="m122.91 266.792 2.454 2.273 4.532-4.192" transform="translate(-106.097 -246.787)" style="stroke:#222426;stroke-linecap:round;stroke-width:1.5px;fill:none"/>
</svg>
